<?xml version="1.0" encoding="UTF-8"?>
<svg width="129px" height="21px" viewBox="0 0 129 21" version="1.1" xmlns="http://www.w3.org/2000/svg" xmlns:xlink="http://www.w3.org/1999/xlink">
    <!-- Generator: Sketch 53.2 (72643) - https://sketchapp.com -->
    <title>logo_08</title>
    <desc>Created with Sketch.</desc>
    <g id="pages" stroke="none" stroke-width="1" fill="none" fill-rule="evenodd">
        <g id="01-w_01-03-index-ui" transform="translate(-1036.000000, -4238.000000)" fill="#111114">
            <g id="logos" transform="translate(260.000000, 4040.000000)">
                <g id="logo_08" transform="translate(760.000000, 168.000000)">
                    <path d="M16.0008509,30 L31.5109041,30 L31.5109041,44.565601 L31.5118614,44.5666015 L25.3696068,50.5617984 L25.3696068,40.8616477 L24.7097131,40.8616477 L23.4810282,39.3208305 L25.3696068,39.3208305 L25.3696068,36.1304127 L22.1305012,36.1304127 L22.1305012,50.5617984 L16,44.5668121 L16.0008509,44.5660223 L16.0008509,30 Z M17.5600145,43.9745586 L20.5712844,46.950253 L20.5712844,35.7020715 L19.6839275,34.5893322 L26.0515713,34.5896481 L26.9288767,35.4074191 L26.9288767,39.3208305 L26.1034247,40.0912128 L26.9288767,40.8616477 L26.9288767,46.9616263 L29.9516873,43.9745586 L29.9516873,31.5408172 L17.5600145,31.5408172 L17.5600145,43.9745586 Z M51.3686346,35.0361142 L48.2901506,35.0361142 L48.2901506,39.2150392 L51.3686346,39.2150392 C52.7133708,39.2150392 53.6694279,38.5267883 53.6694279,37.1334838 C53.6694279,35.7405088 52.7133708,35.0361142 51.3686346,35.0361142 Z M53.685401,45.3473579 L51.0608195,40.2874454 L48.2901506,40.2874454 L48.2901506,45.3473579 L47.0588901,45.3473579 L47.0588901,33.9469053 L51.4821103,33.9469053 C53.4910615,33.9469053 54.9006884,35.1481321 54.9006884,37.1176696 C54.9006884,38.7827821 53.8800733,39.8716615 52.3895825,40.1757571 L55.1273069,45.3473579 L53.685401,45.3473579 Z M71.6560807,45.347325 L71.6560807,33.9468723 L72.8873412,33.9468723 L72.8873412,45.347325 L71.6560807,45.347325 Z M93.8287197,45.347325 L92.8237449,45.347325 L89.0324608,33.9468723 L90.3286121,33.9468723 L93.326565,43.170225 L96.3238524,33.9468723 L97.6200037,33.9468723 L93.8287197,45.347325 Z M116.056932,35.6924729 L113.886586,41.7131033 L118.19633,41.7131033 L116.056932,35.6924729 Z M119.475843,45.3474238 L118.55273,42.7693658 L113.51388,42.7693658 L112.589769,45.3474238 L111.277644,45.3474238 L115.522831,33.9469712 L116.559752,33.9469712 L120.7883,45.3474238 L119.475843,45.3474238 Z M136.990224,33.9469712 L138.221484,33.9469712 L138.221484,44.2588738 L144.118889,44.2588738 L144.118889,45.3470944 L136.990224,45.3470944 L136.990224,33.9469712 Z"></path>
                </g>
            </g>
        </g>
    </g>
</svg>