<svg width="16" height="16" xmlns="http://www.w3.org/2000/svg" xmlns:xlink="http://www.w3.org/1999/xlink"><defs><path d="M17.37 6.886a8.022 8.022 0 0 0-4.256-4.257A8.07 8.07 0 0 0 10 2a8.028 8.028 0 0 0-3.115.63A8.036 8.036 0 0 0 2.63 6.885a7.989 7.989 0 0 0 .738 7.588c.286.424.614.82.975 1.184A8 8 0 0 0 10 18c.542 0 1.084-.055 1.611-.164a7.88 7.88 0 0 0 2.862-1.203 8.164 8.164 0 0 0 1.185-.975c.36-.364.69-.76.975-1.184a7.97 7.97 0 0 0 1.205-6.084 8.02 8.02 0 0 0-.468-1.504zM10 3.168c1.73 0 3.31.646 4.512 1.706-.017.025-.99 1.507-3.569 2.473A34.802 34.802 0 0 0 8.39 3.36 6.83 6.83 0 0 1 10 3.168zm-1.636.199l-.002.002-.02.003.022-.005zm-1.28.455a40.877 40.877 0 0 1 2.538 3.936c-3.28.872-6.128.837-6.308.834a6.834 6.834 0 0 1 3.77-4.77zM4.919 14.565A6.805 6.805 0 0 1 3.168 10c0-.072.003-.144.005-.215.121.003 3.497.08 7.015-.973.195.382.383.773.554 1.161-.09.025-.18.052-.27.082-3.686 1.19-5.557 4.508-5.557 4.508l.003.003zM10 16.833a6.804 6.804 0 0 1-4.265-1.497l.065.05s1.31-2.856 5.362-4.268c.016-.006.031-.01.046-.014.962 2.497 1.358 4.59 1.46 5.187a6.807 6.807 0 0 1-2.668.542zm3.818-1.167c-.07-.412-.434-2.417-1.33-4.88 2.206-.352 4.117.253 4.258.299a6.834 6.834 0 0 1-2.928 4.581zm-1.746-5.958c-.049-.117-.097-.234-.148-.352a20.557 20.557 0 0 0-.454-.991c2.698-1.102 3.793-2.685 3.806-2.704a6.806 6.806 0 0 1 1.555 4.27c-.1-.02-2.412-.518-4.76-.223z" id="a"/></defs><use fill="#FFF" xlink:href="#a" transform="translate(-2 -2)" fill-rule="evenodd"/></svg>