<svg width="51" height="59" xmlns="http://www.w3.org/2000/svg"><g fill-rule="nonzero" fill="#FFF"><path d="M49.97 38.142c0-.068-.068-.136-.068-.204 0-.068-2.723-4.764-5.105-9.733-2.246-4.697-2.45-9.665-2.45-9.733 0-.137-.068-.34-.068-.477a2.039 2.039 0 0 0-1.294-1.293 2.17 2.17 0 0 0-1.837 0c-2.383.953-3.54 2.79-3.948 4.696-.136-1.089-.136-1.701-.136-1.77 0-.135-.068-.34-.068-.476a2.039 2.039 0 0 0-1.294-1.293 2.17 2.17 0 0 0-1.837 0c-.817.34-1.43.749-2.042 1.293l-6.398-6.398c-1.566-1.565-4.016-1.77-5.786-.544a5.613 5.613 0 0 0-1.43 1.701l-.067-.068c-.953-.953-2.315-1.43-3.608-1.293-.817.068-1.565.34-2.178.817a5.613 5.613 0 0 0-1.43 1.701 4.489 4.489 0 0 0-3.13-1.293 4.489 4.489 0 0 0-3.131 1.293A4.489 4.489 0 0 0 1.372 18.2c0 1.157.476 2.315 1.293 3.131l1.02 1.021c-.68.34-1.292.817-1.7 1.43C.69 25.482.894 28 2.46 29.566l.816.817c-.68.34-1.293.817-1.701 1.43-1.225 1.7-1.021 4.22.544 5.785l19.535 19.535a5.353 5.353 0 0 0 3.812 1.565c1.429 0 2.722-.545 3.811-1.565l.545-.545c.885.613 1.974.885 2.995.885 1.36 0 2.722-.545 3.811-1.566L49.017 43.52c1.225-1.43 1.702-3.54.953-5.378zm-3.063 3.404L34.52 53.933c-1.02 1.021-2.722 1.021-3.743 0l-.205-.204L11.31 34.467c-.613-.613-.749-1.566-.272-2.246.068-.136.204-.204.272-.273l.068-.068c.068-.068.136-.136.204-.136l.068-.068c.068-.068.205-.068.273-.136.136 0 .204-.068.34-.068H12.67c.068 0 .068 0 .136.068l8.849 8.849 1.906-1.906-8.849-9.053-2.995-2.995c-.612-.612-.748-1.565-.272-2.246.545-.749 1.43-.817 2.042-.544L23.97 34.127l1.906-1.906-10.959-11.027-.068.068-2.994-2.995c-.681-.68-.681-1.77 0-2.382.068-.068.136-.136.272-.204.068-.068.136-.068.204-.136l.068-.068c.204-.068.408-.136.613-.136.408 0 .885.136 1.157.476l1.838 1.838-.069.068 12.865 12.864 2.042-1.906-12.116-12.115c-.272-.613-.204-1.566.545-2.042.68-.477 1.633-.34 2.246.272l7.419 7.42 4.833 4.832 2.314 2.314a1.349 1.349 0 0 0 1.701.204c.545-.34.75-.953.613-1.565-.477-1.566-1.77-6.603 1.293-8.44.136 1.77.68 5.853 2.655 9.937 2.246 4.629 4.764 9.053 5.173 9.801.204.75 0 1.634-.613 2.247z" fill="#FFF"/><path d="M20.838 8.738L22.2 2a.752.752 0 0 0 0-.545C22.063.707 21.315.23 20.566.366c-.749.136-1.225.885-1.09 1.634l1.362 6.738zM12.875 5.063l5.445 4.22-3.404-5.99c-.068-.136-.204-.272-.34-.408-.612-.477-1.497-.34-1.974.272-.476.613-.34 1.497.273 1.906zM29.21 4.654c.409-.68.136-1.497-.544-1.905-.681-.409-1.498-.137-1.906.544l-3.403 5.99 5.445-4.22a.614.614 0 0 0 .408-.409z" fill="#7A3DD9"/></g></svg>