<?xml version="1.0" encoding="UTF-8"?>
<svg width="51px" height="59px" viewBox="0 0 51 59" version="1.1" xmlns="http://www.w3.org/2000/svg" xmlns:xlink="http://www.w3.org/1999/xlink">
    <!-- Generator: Sketch 54 (76480) - https://sketchapp.com -->
    <title>icon</title>
    <desc>Created with Sketch.</desc>
    <g id="pages-1.1" stroke="none" stroke-width="1" fill="none" fill-rule="evenodd">
        <g id="01-w_01-05-04-form_success" transform="translate(-457.000000, -211.000000)">
            <g id="icon" transform="translate(450.000000, 208.000000)">
                <rect id="Rectangle" fill="#E8E9EF" opacity="0" x="0" y="0" width="65" height="64"></rect>
                <g id="Group" transform="translate(7.000000, 3.000000)" fill-rule="nonzero">
                    <g id="Group-2" transform="translate(0.782684, 0.343075)">
                        <path d="M49.1873154,37.7992913 C49.1873154,37.7312262 49.1192503,37.6631611 49.1192503,37.5950961 C49.1192503,37.527031 46.3966476,32.8305413 44.0143702,27.8617913 C41.7682229,23.1653015 41.5640277,18.1965515 41.5640277,18.1284865 C41.5640277,17.9923563 41.4959627,17.7881611 41.4959627,17.652031 C41.2917674,17.0394454 40.9908297,21.0552844 40.378244,20.8510892 C39.7656584,20.5788289 38.9775551,16.0865344 38.3649695,16.3587947 C35.9826921,17.3117056 34.8255859,19.1494625 34.4171955,21.0552844 C34.2810654,19.9662433 34.2810654,19.3536577 34.2810654,19.2855926 C34.2810654,19.1494625 34.2130003,18.9452673 34.2130003,18.8091372 C34.0088051,18.1965515 33.5323496,17.7200961 32.919764,17.5159008 C32.3071784,17.2436406 31.6945928,17.2436406 31.0820072,17.5159008 C30.2652264,17.8562262 29.6526407,18.2646166 29.0400551,18.8091372 L22.6419387,12.4110207 C21.0764421,10.8455241 18.6260996,10.6413289 16.8564079,11.8665002 C16.2438222,12.3429556 15.7673668,12.9555413 15.4270414,13.5681269 L15.3589764,13.5000618 C14.4060654,12.5471508 13.044764,12.0706954 11.7515277,12.2068255 C10.9347469,12.2748906 10.1860311,12.5471508 9.57344553,13.0236063 C8.96085991,13.5000618 8.48440443,14.1126474 8.14407909,14.725233 C7.32729827,13.9084522 6.1701921,13.4319967 5.01308594,13.4319967 C3.85597978,13.4319967 2.69887361,13.9084522 1.88209279,14.725233 C1.06531197,15.5420139 0.588856488,16.69912 0.588856488,17.8562262 C0.588856488,19.0133324 1.06531197,20.1704385 1.88209279,20.9872193 L2.90306882,22.0081954 C2.22241813,22.3485207 1.60983251,22.8249762 1.2014421,23.4375618 C-0.0917941973,25.1391885 0.112401008,27.6575961 1.67789758,29.2230926 L2.49467841,30.0398735 C1.81402772,30.3801988 1.2014421,30.8566543 0.793051693,31.4692399 C-0.43211954,33.1708666 -0.227924334,35.6892741 1.33757224,37.2547707 L20.8722469,56.7894454 C21.8932229,57.8104214 23.2545243,58.3549419 24.6838907,58.3549419 C26.1132572,58.3549419 27.4064935,57.8104214 28.4955346,56.7894454 L29.0400551,56.2449248 C29.924901,56.8575104 31.0139421,57.1297707 32.0349181,57.1297707 C33.3962195,57.1297707 34.7575209,56.5852502 35.846562,55.5642741 L48.2344044,43.1764317 C49.4595757,41.7470652 49.9360311,39.6370481 49.1873154,37.7992913 Z M46.1243873,41.2025447 L33.7365448,53.5903872 C32.7155688,54.6113632 31.0139421,54.6113632 29.9929661,53.5903872 L29.7887709,53.3861919 L10.5263565,34.1237776 C9.91377087,33.5111919 9.77764073,32.558281 10.2540962,31.8776303 C10.3221613,31.7415002 10.4582914,31.6734351 10.5263565,31.60537 C10.5263565,31.60537 10.5944216,31.537305 10.5944216,31.537305 C10.6624866,31.4692399 10.7305517,31.4011748 10.7986168,31.4011748 C10.7986168,31.4011748 10.8666818,31.3331098 10.8666818,31.3331098 C10.9347469,31.2650447 11.070877,31.2650447 11.1389421,31.1969796 C11.2750722,31.1969796 11.3431373,31.1289145 11.4792674,31.1289145 C11.4792674,31.1289145 11.5473325,31.1289145 11.5473325,31.1289145 C11.6153976,31.1289145 11.7515277,31.1289145 11.8195928,31.1289145 C11.8195928,31.1289145 11.8876579,31.1289145 11.8876579,31.1289145 C11.9557229,31.1289145 11.9557229,31.1289145 12.023788,31.1969796 L20.8722469,40.0454385 L22.7780688,38.1396166 L13.9296099,29.0869625 L10.9347469,26.0920995 C10.3221613,25.4795139 10.1860311,24.5266029 10.6624866,23.8459522 C11.2070072,23.0972365 12.0918531,23.0291714 12.7044387,23.3014317 L23.1864592,33.7834522 L25.0922811,31.8776303 L14.1338051,20.8510892 L14.06574,20.9191543 L11.070877,17.9242913 C10.3902264,17.2436406 10.3902264,16.1545995 11.070877,15.5420139 C11.1389421,15.4739488 11.2070072,15.4058837 11.3431373,15.3378187 C11.4112024,15.2697536 11.4792674,15.2697536 11.5473325,15.2016885 C11.5473325,15.2016885 11.6153976,15.1336235 11.6153976,15.1336235 C11.8195928,15.0655584 12.023788,14.9974933 12.2279832,14.9974933 C12.6363736,14.9974933 13.1128291,15.1336235 13.3850894,15.4739488 L15.2228462,17.3117056 L15.1547811,17.3797707 L28.0190791,30.2440687 L30.0610311,28.3382467 L17.945449,16.2226645 C17.6731887,15.6100789 17.7412537,14.657168 18.4899695,14.1807125 C19.1706202,13.704257 20.1235311,13.8403872 20.7361168,14.4529728 L28.1552092,21.8720652 L32.9878291,26.7046851 L35.3020414,29.0188974 C35.7784969,29.4953529 36.4591476,29.563418 37.0036681,29.2230926 C37.5481887,28.8827673 37.7523839,28.2701817 37.6162537,27.6575961 C37.1397983,26.0920995 35.846562,21.0552844 38.90949,19.2175276 C39.0456202,20.9872193 39.5901407,25.0711235 41.5640277,29.1550276 C43.810175,33.7834522 46.3285825,38.2076817 46.7369729,38.9563974 C46.9411681,39.7051132 46.7369729,40.5899591 46.1243873,41.2025447 Z" id="Shape" fill="#FFFFFF"></path>
                        <path d="M20.0554661,8.39518167 L21.4167674,1.65673989 C21.4848325,1.45254468 21.4848325,1.31641455 21.4167674,1.11221934 C21.2806373,0.363503589 20.5319216,-0.112951891 19.7832058,0.0231782462 C19.03449,0.159308383 18.5580346,0.908024137 18.6941647,1.65673989 L20.0554661,8.39518167 Z" id="Path" fill="#7A3DD9"></path>
                        <path d="M12.0918531,4.71966797 L17.5370585,8.93970222 L14.1338051,2.94997619 C14.06574,2.81384605 13.9296099,2.67771592 13.7934798,2.54158578 C13.1808942,2.0651303 12.2960483,2.20126044 11.8195928,2.81384605 C11.3431373,3.42643167 11.4792674,4.31127756 12.0918531,4.71966797 Z" id="Path" fill="#7A3DD9"></path>
                        <path d="M28.4274695,4.31127756 C28.8358599,3.63062688 28.5635996,2.81384605 27.882949,2.40545564 C27.2022983,1.99706523 26.3855174,2.26932551 25.977127,2.94997619 L22.5738736,8.93970222 L28.0190791,4.71966797 C28.2232743,4.6516029 28.3594044,4.51547277 28.4274695,4.31127756 Z" id="Path" fill="#7A3DD9"></path>
                    </g>
                </g>
            </g>
        </g>
    </g>
</svg>