<?xml version="1.0" encoding="UTF-8"?>
<svg width="128px" height="20px" viewBox="0 0 128 20" version="1.1" xmlns="http://www.w3.org/2000/svg" xmlns:xlink="http://www.w3.org/1999/xlink">
    <!-- Generator: Sketch 53.2 (72643) - https://sketchapp.com -->
    <title>logo_05</title>
    <desc>Created with Sketch.</desc>
    <g id="pages" stroke="none" stroke-width="1" fill="none" fill-rule="evenodd" opacity="0.9">
        <g id="01-w_01-03-index-ui" transform="translate(-276.000000, -4238.000000)" fill="#111114">
            <g id="logos" transform="translate(260.000000, 4040.000000)">
                <g id="logo_05" transform="translate(0.000000, 168.000000)">
                    <path d="M59.26914,40.498 L59.26914,46.4333333 L56.6149561,46.4333333 L56.6149561,40.8653333 C56.6149561,39.7633333 55.8820844,39.0093333 54.7926806,39.0093333 C53.7032767,39.0093333 52.9307904,39.7633333 52.9307904,40.8653333 L52.9307904,46.4333333 L50.2567991,46.4333333 L50.2567991,31.9333333 L52.9307904,31.9333333 L52.9307904,37.6753333 C53.5844327,37.0373333 54.5351851,36.6506667 55.624589,36.6506667 C57.8430113,36.6506667 59.26914,38.178 59.26914,40.498 Z M70.237456,42.528 L63.3643081,42.528 C63.6812256,43.746 64.6914001,44.4226667 66.1175287,44.4226667 C67.0880885,44.4226667 67.9992263,44.094 68.850942,43.456 L69.9601532,45.2346667 C68.79152,46.182 67.4842354,46.6653333 66.0382994,46.6653333 C63.0077759,46.7233333 60.6110875,44.4226667 60.6705095,41.658 C60.6110875,38.8933333 62.9681612,36.5926667 65.8006112,36.6506667 C68.5142172,36.6506667 70.4157221,38.6033333 70.4157221,41.0973333 C70.4157221,41.5613333 70.3563001,42.0446667 70.237456,42.528 Z M63.3643081,40.6913333 L67.8209602,40.6913333 C67.8011528,39.512 66.8702077,38.758 65.7015745,38.758 C64.572556,38.758 63.6614182,39.512 63.3643081,40.6913333 Z M80.0965608,40.7493333 L80.0965608,46.4333333 L77.6404503,46.4333333 L77.6404503,45.5053333 C76.927386,46.2206667 75.8974042,46.6653333 74.6495416,46.6653333 C72.5697706,46.6653333 71.262486,45.486 71.262486,43.804 C71.262486,42.0833333 72.6886146,41.02 74.9664591,41.02 L77.4225695,41.02 L77.4225695,40.5946667 C77.4225695,39.5313333 76.7887346,38.9126667 75.600294,38.9126667 C74.5901195,38.9126667 73.8770552,39.3186667 73.0055321,40.2273333 L71.6190181,38.6226667 C72.7480367,37.308 74.1741653,36.6506667 75.8974042,36.6506667 C78.4525514,36.6506667 80.0965608,38.1006667 80.0965608,40.7493333 Z M77.4225695,42.8566667 L77.4225695,42.7406667 L75.3229912,42.7406667 C74.4514681,42.7406667 73.9562846,43.0693333 73.9562846,43.7073333 C73.9562846,44.3453333 74.5108902,44.7513333 75.3626059,44.7513333 C76.5312391,44.7513333 77.4225695,43.9586667 77.4225695,42.8566667 Z M82.0525359,46.4333333 L82.0525359,31.9333333 L84.7265271,31.9333333 L84.7265271,46.4333333 L82.0525359,46.4333333 Z M93.0604666,44.2486667 L93.0604666,46.4333333 C92.4266316,46.588 91.812604,46.6653333 91.2183837,46.6653333 C88.7424659,46.6653333 87.2965298,45.4666667 87.2965298,43.0693333 L87.2965298,39.0673333 L85.7515571,39.0673333 L85.7515571,36.8633333 L87.2965298,36.8633333 L87.2965298,34.4466667 L89.9705211,34.4466667 L89.9705211,36.8633333 L92.7435491,36.8633333 L92.7435491,39.0673333 L89.9705211,39.0673333 L89.9705211,42.8373333 C89.9705211,43.92 90.5251267,44.326 91.7927966,44.326 C91.9512554,44.326 92.3672096,44.3066667 93.0604666,44.2486667 Z M103.394948,40.498 L103.394948,46.4333333 L100.740764,46.4333333 L100.740764,40.8653333 C100.740764,39.7633333 100.007892,39.0093333 98.9184881,39.0093333 C97.8290843,39.0093333 97.0565979,39.7633333 97.0565979,40.8653333 L97.0565979,46.4333333 L94.3826067,46.4333333 L94.3826067,31.9333333 L97.0565979,31.9333333 L97.0565979,37.6753333 C97.7102402,37.0373333 98.6609927,36.6506667 99.7503965,36.6506667 C101.968819,36.6506667 103.394948,38.178 103.394948,40.498 Z M115.710163,41.6386667 C115.710163,44.5 113.689814,46.6653333 110.956401,46.6653333 C109.76796,46.6653333 108.737978,46.2593333 108.024914,45.5053333 L108.024914,49.9133333 L105.350923,49.9133333 L105.350923,36.8633333 L107.807033,36.8633333 L107.807033,38.062 C108.460675,37.1533333 109.609501,36.6506667 110.956401,36.6506667 C113.689814,36.6506667 115.710163,38.7773333 115.710163,41.6386667 Z M112.996557,41.658 C112.996557,40.0533333 111.907153,39.0093333 110.461217,39.0093333 C109.114318,39.0093333 107.985299,39.918 107.985299,41.6386667 C107.985299,43.34 109.09451,44.2873333 110.461217,44.2873333 C111.887346,44.2873333 112.996557,43.224 112.996557,41.658 Z M125.410809,40.7493333 L125.410809,46.4333333 L122.954698,46.4333333 L122.954698,45.5053333 C122.241634,46.2206667 121.211652,46.6653333 119.96379,46.6653333 C117.884019,46.6653333 116.576734,45.486 116.576734,43.804 C116.576734,42.0833333 118.002863,41.02 120.280707,41.02 L122.736818,41.02 L122.736818,40.5946667 C122.736818,39.5313333 122.102983,38.9126667 120.914542,38.9126667 C119.904368,38.9126667 119.191303,39.3186667 118.31978,40.2273333 L116.933266,38.6226667 C118.062285,37.308 119.488413,36.6506667 121.211652,36.6506667 C123.766799,36.6506667 125.410809,38.1006667 125.410809,40.7493333 Z M122.736818,42.8566667 L122.736818,42.7406667 L120.637239,42.7406667 C119.765716,42.7406667 119.270533,43.0693333 119.270533,43.7073333 C119.270533,44.3453333 119.825138,44.7513333 120.676854,44.7513333 C121.845487,44.7513333 122.736818,43.9586667 122.736818,42.8566667 Z M133.665519,44.2486667 L133.665519,46.4333333 C133.031684,46.588 132.417656,46.6653333 131.823436,46.6653333 C129.347518,46.6653333 127.901582,45.4666667 127.901582,43.0693333 L127.901582,39.0673333 L126.35661,39.0673333 L126.35661,36.8633333 L127.901582,36.8633333 L127.901582,34.4466667 L130.575574,34.4466667 L130.575574,36.8633333 L133.348601,36.8633333 L133.348601,39.0673333 L130.575574,39.0673333 L130.575574,42.8373333 C130.575574,43.92 131.130179,44.326 132.397849,44.326 C132.556308,44.326 132.972262,44.3066667 133.665519,44.2486667 Z M144,40.498 L144,46.4333333 L141.345816,46.4333333 L141.345816,40.8653333 C141.345816,39.7633333 140.612944,39.0093333 139.523541,39.0093333 C138.434137,39.0093333 137.66165,39.7633333 137.66165,40.8653333 L137.66165,46.4333333 L134.987659,46.4333333 L134.987659,31.9333333 L137.66165,31.9333333 L137.66165,37.6753333 C138.315293,37.0373333 139.266045,36.6506667 140.355449,36.6506667 C142.573871,36.6506667 144,38.178 144,40.498 Z M30.6873962,30.5151034 C33.1520498,29.4935962 35.9643743,30.0173616 37.8626168,31.8558111 C40.4041526,34.317179 40.4041526,38.3218432 37.862957,40.7828817 L32.5883602,45.8953591 C32.0991716,46.3697126 31.3055157,46.3697126 30.816327,45.8956885 L21.4632304,36.8371824 C21.027451,36.4152053 21.0417389,35.7224515 21.5054135,35.3176039 C21.9408527,34.9377916 22.6222469,34.9967564 23.0362543,35.397651 L25.7373377,38.0138427 L28.0723801,35.7379338 L26.0744628,33.8019783 L25.5947994,33.3371777 C23.8965868,31.6937403 21.1332491,31.6930814 19.4357169,33.3375071 C17.7378444,34.981274 17.7378444,37.6570893 19.4357169,39.3018445 L28.6649855,48.2107974 C29.0885181,48.6199274 29.0888583,49.283693 28.6660061,49.6931523 C28.2441744,50.1019529 27.5600587,50.1022823 27.1375467,49.6941406 L17.9058967,40.7828817 C15.3647011,38.3218432 15.3647011,34.317179 17.9058967,31.8558111 C20.4470923,29.3954313 24.5830838,29.3957607 27.1246196,31.8558111 L27.6049634,32.3212705 L28.5425183,33.2294599 L28.6489967,33.3328954 L33.2071601,37.7506424 C33.6562067,38.1854665 33.6789992,38.9213734 33.2010367,39.3258915 C32.997605,39.4981741 32.7438256,39.5844801 32.489706,39.5844801 C32.212794,39.5844801 31.9355417,39.4820329 31.7242857,39.2771385 L29.6011797,37.2199593 L27.2671578,39.4955388 L31.7028539,43.7910739 L36.3331368,39.3018445 C38.0310093,37.6570893 38.0310093,34.981274 36.3327966,33.3371777 C35.0577764,32.1022114 33.1656573,31.7556697 31.5123493,32.4523766 C30.9061363,32.7080004 30.1900431,32.3828706 30.0267534,31.7299756 C29.902245,31.2312455 30.2005889,30.7170331 30.6873962,30.5151034 Z"></path>
                </g>
            </g>
        </g>
    </g>
</svg>