<?xml version="1.0" encoding="UTF-8"?>
<svg width="113px" height="25px" viewBox="0 0 113 25" version="1.1" xmlns="http://www.w3.org/2000/svg" xmlns:xlink="http://www.w3.org/1999/xlink">
    <!-- Generator: Sketch 53.2 (72643) - https://sketchapp.com -->
    <title>logo_03</title>
    <desc>Created with Sketch.</desc>
    <g id="pages" stroke="none" stroke-width="1" fill="none" fill-rule="evenodd">
        <g id="01-w_01-03-index-ui" transform="translate(-790.000000, -4067.000000)" fill="#111114">
            <g id="logos" transform="translate(260.000000, 4040.000000)">
                <g id="logo_03" transform="translate(506.000000, 0.000000)">
                    <path d="M34.9528285,47.8740923 L32.4104447,47.8613952 L32.4104447,42.2365638 L26.5357458,42.2365638 L26.5357458,47.8740923 L24,47.8740923 L24,33.9834251 L26.5357458,33.9834251 L26.5357458,39.8241078 L32.4170828,39.8241078 L32.4170828,33.9834251 L34.9528285,33.9834251 L34.9528285,47.8740923 Z M36.2605299,35.2975787 C36.2605299,34.5069267 36.9307088,33.8659765 37.7574164,33.8659765 C38.5841241,33.8659765 39.254303,34.5069267 39.254303,35.2975787 C39.254303,36.0882307 38.5841241,36.7291808 37.7574164,36.7291808 C36.9307088,36.7291808 36.2605299,36.0882307 36.2605299,35.2975787 Z M39.0219703,47.8550466 L36.4928626,47.8550466 L36.4928626,38.0211144 L39.0286084,38.0211144 L39.0219703,47.8550466 Z M51.1563767,33.9453336 L53.6987605,33.9453336 L53.6987605,39.3924052 C54.443218,38.4235938 55.6421837,37.8716674 56.898314,37.9195374 C59.8057922,37.9195374 61.0935793,39.8050621 61.0935793,42.6873121 L61.0935793,47.8740923 L58.5578335,47.8740923 L58.5578335,42.7254035 C58.5578335,40.9414558 57.5554838,40.1859762 56.2278682,40.1859762 C55.517344,40.2154217 54.8488696,40.5162411 54.3722124,41.0210379 C53.8955553,41.5258347 53.6505622,42.1924095 53.6921224,42.8714206 L53.6921224,47.8550466 L51.1563767,47.8550466 L51.1563767,33.9453336 Z M74.1772308,40.0653534 C72.3517594,40.0653534 71.3958762,41.4747356 71.3958762,42.9666491 C71.3958762,44.4585626 72.3318452,45.8488991 74.1772308,45.8488991 C76.0226165,45.8488991 76.9585854,44.4585626 76.9585854,42.9666491 C76.996377,42.2280979 76.7236185,41.505788 76.2011222,40.9607599 C75.6786258,40.4157318 74.9498334,40.0933007 74.1772308,40.0653534 Z M74.1772308,37.8560517 L74.1639546,37.8560517 C75.592431,37.8065044 76.9787735,38.3239485 77.9945389,39.2857944 C79.0103043,40.2476403 79.5651124,41.5683054 79.5275216,42.9349063 C79.5275216,45.7503988 77.1410307,48.0328066 74.197145,48.0328066 C71.2532594,48.0328066 68.8667685,45.7503988 68.8667685,42.9349063 C68.8141156,41.5730965 69.3566824,40.2518048 70.364228,39.2882018 C71.3717736,38.3245987 72.7533193,37.8056951 74.1772308,37.8560517 Z M80.4900429,38.0592059 L82.8200082,38.0592059 L83.0058744,39.189251 C83.606217,38.2306871 84.7307619,37.6892287 85.8934383,37.7989146 C86.8696125,37.780272 87.8174205,38.1134 88.5486694,38.7321541 L87.40692,40.8398787 C86.9106563,40.4049211 86.2539264,40.1765256 85.5814486,40.2050219 C84.8795674,40.1466135 84.1870403,40.3907613 83.6927268,40.8708837 C83.1984132,41.3510061 82.9538707,42.0170258 83.0257886,42.6873121 L83.0257886,47.8550466 L80.4900429,47.8550466 L80.4900429,38.0592059 Z M98.1075016,47.8550466 L95.5717559,47.8550466 L95.5717559,42.6111293 C95.5717559,41.3223699 94.8482054,40.1478848 93.4741232,40.1478848 C92.1000411,40.1478848 91.2901956,41.3414156 91.2901956,42.6111293 L91.2901956,47.8550466 L88.7544499,47.8550466 L88.7544499,38.027463 L91.0976914,38.027463 L91.2835575,39.2209938 C91.8545441,38.3283129 92.8928785,37.8086091 93.9852552,37.8687488 C95.3024723,37.7904541 96.5243464,38.5268921 97.0188568,39.6971365 C97.7193845,38.5284907 99.0513435,37.8399136 100.457381,37.9195374 C103.364859,37.9195374 104.798684,39.6336508 104.798684,42.5730379 L104.798684,47.8613952 L102.262938,47.8613952 L102.262938,42.5730379 C102.262938,41.27793 101.70534,40.1859762 100.331258,40.1859762 C98.9571756,40.1859762 98.1075016,41.3414156 98.1075016,42.6111293 L98.1075016,47.8550466 Z M45.6202197,39.9066392 L45.6202197,39.9002906 C44.885235,39.8711498 44.1756531,40.1603274 43.688539,40.6875131 C43.0376031,41.5242657 42.7780691,42.5814768 42.9716266,43.6078545 C42.9943081,44.3546458 43.3890686,45.0460225 44.0337191,45.467985 C45.0650354,45.9536315 46.2871594,45.8861531 47.2531869,45.2902251 L47.2531869,40.0526563 C46.7150088,39.954089 46.1681751,39.9051921 45.6202197,39.9066392 Z M45.474182,37.8497031 L45.4675439,37.8877945 C46.9321492,37.8864241 48.3902312,38.0743492 49.8022088,38.4464685 C49.8022088,40.6811645 49.8022088,42.9222091 49.8022088,45.1632537 C49.7491042,46.305996 49.8752276,47.4487383 49.7491042,48.585132 C49.6502823,49.8536227 48.8716205,50.9826865 47.6913,51.5689591 C46.1387943,52.1436803 44.417923,52.1436803 42.8654174,51.5689591 C43.004817,50.9023594 43.1840451,50.2103655 43.343359,49.5310687 C43.6692606,49.6736008 44.0127601,49.7759961 44.365623,49.8357999 C45.1721191,50.0467781 46.0354136,49.8821199 46.6955883,49.3914002 C47.1440758,48.7898666 47.3363214,48.0476126 47.2332726,47.3154183 C45.7682031,48.0046016 44.0516876,48.0046016 42.5866181,47.3154183 C41.4603147,46.703504 40.6842232,45.6368208 40.4757093,44.4141227 C40.1090523,42.9054827 40.3458439,41.3202328 41.1395171,39.9701249 C42.1178377,38.6091933 43.7477824,37.8118605 45.474182,37.8497031 Z M66.7425836,34.307202 L66.7093932,34.307202 C67.6136879,34.2991576 68.512428,34.443131 69.3646243,34.7325561 L68.8734066,36.7640979 C68.4820081,36.5928631 68.0657099,36.479414 67.6387241,36.4276238 C66.8600554,36.2560468 66.0430023,36.4626833 65.4547965,36.9799493 C64.9303883,37.6148061 64.9967691,38.4782114 64.9967691,39.2400396 L68.6941785,39.2400396 L68.0901134,41.2906271 L65.0034072,41.2906271 L65.0034072,47.8360009 L62.4543852,47.8360009 C62.4543852,44.8458253 62.4543852,41.8493011 62.4543852,38.8527769 C62.3436333,37.6838519 62.6888293,36.5170526 63.4235446,35.5769157 C64.2765652,34.7015069 65.4936173,34.235918 66.7425836,34.307202 Z M124.898784,33.9580308 L124.905422,33.9516822 L124.905422,38.586137 L120.059625,38.586137 L120.066263,38.5797885 L120.052987,38.5797885 L120.052987,33.9516822 L115.213828,33.9516822 L120.059625,29.3172274 L122.482524,27 L123.07017,27.5620167 L123.079951,27.5523254 L124.444076,28.8760019 L124.905422,29.3172274 L124.902103,29.3204017 L129.744581,33.9516822 L124.898784,33.9516822 L124.898784,33.9580308 Z M110.421136,42.4333694 L110.421136,40.9351073 L107.945133,40.9351073 L110.368031,38.6178799 L115.213828,33.9834251 L115.220466,33.9834251 L115.220466,38.6178799 L115.220466,43.2523347 L115.180638,47.7979095 L110.447688,47.7979095 L110.387946,47.8550466 L110.387946,43.2523347 L110.37467,43.2523347 L110.387946,43.2396375 L110.387946,43.2205918 L110.387946,42.4143237 L110.401222,42.4333694 L110.421136,42.4333694 Z M134.597016,43.0301348 L134.597016,47.8550466 L129.751219,47.8550466 L129.751219,43.0301348 L129.751219,38.6178799 L129.751219,33.9834251 L129.744581,33.9516822 L134.557187,38.5543942 L134.577102,38.5543942 L137,40.8716216 L134.597016,40.8716216 L134.597016,43.0301348 Z M120.059625,43.2205918 L124.898784,43.2205918 L124.898784,47.8550466 L120.059625,47.8550466 L120.059625,43.2205918 Z"></path>
                </g>
            </g>
        </g>
    </g>
</svg>