<svg width="16" height="16" xmlns="http://www.w3.org/2000/svg" xmlns:xlink="http://www.w3.org/1999/xlink"><defs><path d="M15.545 1H2.455C1.65 1 1 1.65 1 2.455v13.09C1 16.35 1.65 17 2.455 17h13.09C16.35 17 17 16.35 17 15.545V2.455C17 1.65 16.35 1 15.545 1zM6.057 14.09H3.912V7.189h2.145v6.903zM4.963 6.2a1.25 1.25 0 1 1 0-2.501 1.25 1.25 0 0 1 0 2.502zm9.13 7.89H11.95v-3.356c0-.8-.015-1.83-1.115-1.83-1.116 0-1.288.871-1.288 1.772v3.415H7.403V7.188H9.46v.943h.03c.286-.543.985-1.115 2.029-1.115 2.172 0 2.574 1.43 2.574 3.289v3.786z" id="a"/></defs><use fill="#FFF" fill-rule="nonzero" xlink:href="#a" transform="translate(-1 -1)"/></svg>