<svg width="30" height="18" xmlns="http://www.w3.org/2000/svg" xmlns:xlink="http://www.w3.org/1999/xlink"><defs><path d="M27.555 27.528l.477-2.733c.346-1.979.699-3.956 1.039-5.935.11-.641.006-.857-.415-.984-.586-.177-1.224.026-1.398.512-.153.429-.227.889-.308 1.34-.45 2.527-.892 5.055-1.337 7.582-.012.066-.029.132-.047.214h-5.69c.1-.59.19-1.15.288-1.708.458-2.623.884-5.253 1.384-7.869.535-2.798 1.988-4.207 4.88-4.744 1.792-.333 3.597-.321 5.361.206 2.234.668 3.278 2.144 3.208 4.235-.035 1.021-.314 2.035-.495 3.05-.384 2.154-.776 4.307-1.167 6.461-.022.121-.061.24-.096.373h-5.684zm-14.198-8.982c.049-.394-.049-.763-.251-.873-.647-.352-1.392-.086-1.59.624-.055.2-.079.41-.116.615-.179.986-.363 1.972-.532 2.96-.066.384-.068.777.493.94.654.191 1.273-.188 1.404-.867.164-.854.367-1.974.499-2.739.052-.303.078-.544.093-.66zM13.067 10l-.62 3.618c.234-.067.404-.11.57-.164 1.34-.433 2.698-.528 4.059-.08 1.66.548 2.66 2.241 2.387 3.963-.327 2.066-.72 4.123-1.1 6.18-.43 2.33-1.952 3.594-4.185 4.011a19.399 19.399 0 0 1-3.788.328c-1.27-.016-2.536-.269-3.632-1.005-1.398-.939-1.961-2.298-1.693-3.903.715-4.278 1.51-8.542 2.274-12.81.007-.04.021-.079.037-.138h5.692z" id="a"/></defs><use fill="#FFF" xlink:href="#a" transform="translate(-5 -10)" fill-rule="evenodd"/></svg>