<?xml version="1.0" encoding="UTF-8"?>
<svg width="79px" height="21px" viewBox="0 0 79 21" version="1.1" xmlns="http://www.w3.org/2000/svg" xmlns:xlink="http://www.w3.org/1999/xlink">
    <!-- Generator: Sketch 53.2 (72643) - https://sketchapp.com -->
    <title>logo_04</title>
    <desc>Created with Sketch.</desc>
    <g id="pages" stroke="none" stroke-width="1" fill="none" fill-rule="evenodd">
        <g id="01-w_01-03-index-ui" transform="translate(-1061.000000, -4067.000000)" fill="#111114">
            <g id="logos" transform="translate(260.000000, 4040.000000)">
                <g id="logo_04" transform="translate(760.317647, 0.000000)">
                    <path d="M56.7452882,34.0299658 C59.7927633,34.0299658 61.5747615,36.1875 61.5747615,39.3968322 L61.5747615,47.6763699 L58.0882433,47.6763699 L58.0882433,39.9092466 C58.0882433,38.3180651 57.1843312,37.3202055 55.81555,37.3202055 C54.4209427,37.3202055 53.4653785,38.3450342 53.4653785,39.828339 L53.4653785,47.6763699 L49.9788603,47.6763699 L49.9788603,39.9092466 C49.9788603,38.3180651 49.0749482,37.3202055 47.706167,37.3202055 C46.3115598,37.3202055 45.3559955,38.3180651 45.3559955,39.9092466 L45.3559955,47.6763699 L41.8694774,47.6763699 L41.8694774,34.3266267 L45.0719089,34.3266267 L45.0719089,35.5132705 C45.9241689,34.5963185 47.1638198,34.0299658 48.6875573,34.0299658 C50.4179034,34.0299658 51.6833803,34.7311644 52.4839882,35.9447774 C53.4395525,34.7851027 54.937464,34.0299658 56.7452882,34.0299658 Z M73.6454648,29.5530822 C76.9253744,29.5530822 79.6629369,31.2521404 81.1608484,33.9760274 L78.5265902,35.9178082 C77.3902435,34.0299658 75.7890278,32.9242295 73.6454648,32.9242295 C70.4688593,32.9242295 68.1445139,35.3514555 68.1445139,38.8035103 C68.1445139,42.2285959 70.4688593,44.6288527 73.6454648,44.6288527 C75.7890278,44.6288527 77.3902435,43.5231164 78.5265902,41.635274 L81.1608484,43.5770548 C79.6887629,46.3009418 76.9253744,48 73.6196387,48 C68.5577309,48 64.5546915,44.0085616 64.5546915,38.7765411 C64.5546915,33.5445205 68.5577309,29.5530822 73.6454648,29.5530822 Z M89.4092947,34.0299658 C92.6633783,34.0299658 94.8844195,35.9447774 94.8844195,39.7474315 L94.8844195,47.6763699 L91.681988,47.6763699 L91.681988,46.3818493 C90.7780759,47.3797089 89.4351208,48 87.7822529,48 C84.9930384,48 83.3659965,46.2739726 83.3659965,44.0085616 C83.3659965,41.5813356 85.251299,40.125 88.1954698,40.125 L91.3979013,40.125 L91.3979013,39.5316781 C91.3979013,38.0753425 90.5972935,37.1853596 89.0219038,37.1853596 C87.6531226,37.1853596 86.6975583,37.859589 85.6386899,39.0192637 L83.8308656,36.7808219 C85.3287771,34.9199486 87.1624274,34.0299658 89.4092947,34.0299658 Z M88.7119911,45.3300514 C90.1840765,45.3300514 91.3979013,44.2512842 91.3979013,42.6870719 L91.3979013,42.5252568 L88.6603389,42.5252568 C87.5239923,42.5252568 86.8783408,42.9837329 86.8783408,43.8737158 C86.8783408,44.7906678 87.6272965,45.3300514 88.7119911,45.3300514 Z M102.977909,34.0029966 C104.837386,34.0029966 106.412776,34.677226 107.574948,36.0256849 L105.818776,38.2641267 C104.992342,37.4550514 103.985126,36.9965753 102.952083,36.9965753 C102.125649,36.9965753 101.583302,37.2932363 101.583302,37.9404966 C101.583302,38.4798801 101.996519,38.7495719 102.926257,39.1271404 L104.165908,39.666524 C106.464428,40.6374144 107.755731,41.6622432 107.755731,43.7388699 C107.755731,46.489726 105.560516,48 102.771301,48 C100.498608,48 98.6133053,46.9751712 97.4769586,45.4109589 L99.2331307,43.1994863 C100.266173,44.3052226 101.454172,45.0064212 102.822953,45.0064212 C103.701039,45.0064212 104.449995,44.6558219 104.449995,43.9006849 C104.449995,43.2803938 103.907648,43.0376712 103.132866,42.6870719 L101.764085,42.09375 C99.5946956,41.1767979 98.2775665,40.125 98.2775665,38.0214041 C98.2775665,35.4593322 100.266173,34.0029966 102.977909,34.0029966 Z M117.347132,44.7367295 C117.760349,44.7367295 118.328522,44.6827911 119,44.6288527 L119,47.6763699 C118.27687,47.8651541 117.502088,48 116.598176,48 C113.447397,48 111.484616,46.4088185 111.484616,42.9837329 L111.484616,37.401113 L109.470184,37.401113 L109.470184,34.3266267 L111.484616,34.3266267 L111.484616,30.9554795 L114.971135,30.9554795 L114.971135,34.3266267 L118.586783,34.3266267 L118.586783,37.401113 L114.971135,37.401113 L114.971135,42.6601027 C114.971135,44.1973459 115.745916,44.7367295 117.347132,44.7367295 Z M41,27 L61.6608484,27 L61.6608484,29.6969178 L41,29.6969178 L41,27 Z"></path>
                </g>
            </g>
        </g>
    </g>
</svg>