<svg width="117" height="28" xmlns="http://www.w3.org/2000/svg"><path d="M.04 11.731H6.26c.54 0 1.558.74 1.558 2.216 0 1.476-1.013 2.228-1.558 2.228H0V12.22a3 3 0 0 1 .04-.488zm4.263-4.855L10.749.814a3 3 0 0 1 4.11 0l9.803 9.22a3 3 0 0 1 .945 2.185V24.46a3 3 0 0 1-3 3h-9.545v-4.855c0-1.638-.78-2.842-2.339-3.612 1.688-1.399 2.467-3.386 2.339-5.962-.076-1.517-.889-3.552-2.427-4.795-.948-.766-3.058-1.22-6.332-1.361zM7.91 27.46H3a3 3 0 0 1-3-3v-2.719h6.261c1.29 0 1.65 1.029 1.65 1.848v3.871zm42.571-4.476l-3.058-6.006H45.84v6.006h-3.058V7.387h6.094c3.036 0 4.972 2.09 4.972 4.796 0 2.178-1.276 3.828-3.322 4.422l3.344 6.38h-3.388zm-4.642-8.624h2.464c1.54 0 2.442-.88 2.442-2.156 0-1.32-.902-2.178-2.442-2.178H45.84v4.334zm12.198 1.98h4.84c-.044-1.078-.748-2.134-2.42-2.134-1.518 0-2.354 1.144-2.42 2.134zm5.126 2.816l2.442.726c-.55 1.87-2.266 3.432-4.928 3.432-2.97 0-5.588-2.134-5.588-5.786 0-3.454 2.552-5.698 5.324-5.698 3.344 0 5.346 2.134 5.346 5.61 0 .418-.044.858-.044.902h-7.744c.066 1.43 1.276 2.464 2.728 2.464 1.364 0 2.112-.682 2.464-1.65zm7.732-2.398v6.226H67.97V12.161h2.838v1.342c.66-1.122 1.958-1.628 3.124-1.628 2.684 0 3.916 1.914 3.916 4.29v6.82h-2.926v-6.314c0-1.21-.594-2.156-2.002-2.156-1.276 0-2.024.99-2.024 2.244zm13.43-7.832v3.234h2.178v2.596h-2.178v4.532c0 .946.44 1.254 1.276 1.254.352 0 .748-.044.902-.088v2.42c-.264.11-.792.264-1.65.264-2.112 0-3.432-1.254-3.432-3.344v-5.038h-1.958v-2.596h.55c1.144 0 1.672-.748 1.672-1.716V8.927h2.64zm9.316 11.726c1.43 0 2.75-1.034 2.75-3.08 0-2.046-1.32-3.08-2.75-3.08s-2.75 1.034-2.75 3.08c0 2.024 1.32 3.08 2.75 3.08zm0-8.822c3.234 0 5.676 2.398 5.676 5.742 0 3.322-2.442 5.742-5.676 5.742s-5.676-2.42-5.676-5.742c0-3.344 2.442-5.742 5.676-5.742zm14.486.286v2.948a4.406 4.406 0 0 0-.88-.088c-1.496 0-2.794.726-2.794 3.058v4.95h-2.926V12.161h2.838v1.606c.66-1.43 2.156-1.694 3.08-1.694.242 0 .462.022.682.044zm8.502 0v2.948a4.406 4.406 0 0 0-.88-.088c-1.496 0-2.794.726-2.794 3.058v4.95h-2.926V12.161h2.838v1.606c.66-1.43 2.156-1.694 3.08-1.694.242 0 .462.022.682.044z" fill="#111114" fill-rule="evenodd"/></svg>