<?xml version="1.0" encoding="UTF-8"?>
<svg width="97px" height="21px" viewBox="0 0 97 21" version="1.1" xmlns="http://www.w3.org/2000/svg" xmlns:xlink="http://www.w3.org/1999/xlink">
    <!-- Generator: Sketch 53.2 (72643) - https://sketchapp.com -->
    <title>logo_02</title>
    <desc>Created with Sketch.</desc>
    <g id="pages" stroke="none" stroke-width="1" fill="none" fill-rule="evenodd">
        <g id="01-w_01-03-index-ui" transform="translate(-546.000000, -4068.000000)" fill="#111114">
            <g id="logos" transform="translate(260.000000, 4040.000000)">
                <g id="logo_02" transform="translate(254.647059, 0.000000)">
                    <path d="M115.931429,46.1304227 L122.157401,39.4564064 C122.487101,39.0879476 122.929258,38.7415964 123.039158,38.6629918 C122.957372,38.6629918 122.349087,38.7686167 121.855814,38.7686167 L116.342915,38.7686167 L116.342915,35.5384615 L128,35.5384615 L128,37.8965976 L121.771472,44.489553 C121.331871,44.966093 120.864157,45.3124443 120.779815,45.3640285 C120.833487,45.3640285 121.441772,45.2313833 122.185515,45.2313833 L128,45.2313833 L128,48.4615385 L115.931429,48.4615385 L115.931429,46.1304227 Z M109.897143,48.4615385 L109.897143,35.5384615 L113.737143,35.5384615 L113.737143,48.4615385 L109.897143,48.4615385 Z M95.9363845,42.6043869 L95.8807583,42.6043869 C95.7720343,43.2953186 95.6076842,43.9888188 95.2815122,44.8467042 L93.701222,49 L90.075404,49 L82.7428571,29.6153846 L86.55831,29.6153846 L91.5191572,42.7430869 C91.8731422,43.7396724 91.9843946,44.2379652 92.1184032,44.9854043 C92.2549403,44.2379652 92.3383797,43.7114187 92.6923647,42.7713406 L93.9717677,39.4476766 L90.2397542,29.6153846 L93.8377591,29.6153846 L95.3371385,33.658234 C95.6076842,34.4904343 95.8251321,35.2096197 95.9085714,35.8183588 C95.9894823,35.2096197 96.1816456,34.4904343 96.4800044,33.658234 L97.9793838,29.6153846 L101.579917,29.6153846 L97.8428467,39.4476766 L99.1247782,42.7713406 C99.4787632,43.7114187 99.5622025,44.2379652 99.6987396,44.9854043 C99.8352767,44.2379652 99.9161875,43.7396724 100.297986,42.7430869 L105.258833,29.6153846 L109.074286,29.6153846 L101.741739,49 L98.1159209,49 L96.5356306,44.8467042 C96.2094587,43.9888188 96.0451085,43.2953186 95.9363845,42.6043869 Z M77.4239684,38.3576091 C75.7351808,38.3576091 74.2979147,39.3788118 73.9103662,41.3725885 L80.6886156,41.3725885 C80.4396606,39.5101093 79.2231175,38.3576091 77.4239684,38.3576091 Z M77.6164594,49 C73.6614111,49 70.9485714,46.2208698 70.9485714,42.5250886 C70.9485714,38.9873507 73.4945856,36.0769231 77.4522004,36.0769231 C81.6844357,36.0769231 83.5657143,39.0116651 83.5657143,42.5250886 L83.5657143,43.2058904 L73.8256701,43.2058904 C74.1028571,45.6203054 75.8198768,46.719314 77.7268209,46.719314 C79.5003045,46.719314 80.7168476,45.9072147 81.4354806,44.9103264 L83.4014553,46.327853 C82.1002162,47.9520515 80.6064861,49 77.6164594,49 Z M71.4971429,48.4615385 L68.4569711,48.4615385 L64.217057,42.3572851 L62.8045768,44.0170136 L62.8045768,48.4615385 L59.9771429,48.4615385 L59.9771429,28 L62.8045768,28 L62.8045768,40.4771041 L66.9109114,35.5663348 L70.0030308,35.5663348 L65.9239069,40.3681448 L71.4971429,48.4615385 Z M49.6960418,46.6986246 C52.0690959,46.6986246 53.4488975,44.9926925 53.7535291,43.3118845 C53.1186667,43.1762139 51.9871781,42.9877825 50.9376073,42.9877825 C48.894784,42.9877825 47.5713008,43.8545669 47.5713008,45.0730898 C47.5713008,45.9675108 48.2599217,46.6986246 49.6960418,46.6986246 Z M57.7828571,48.7286588 L56.9815994,48.7286588 C55.3253254,48.7286588 54.4703092,47.8091136 54.0837599,46.4825566 C53.2569029,47.7262038 51.6543874,49 49.0611794,49 C46.1070215,49 44.6171429,47.1583972 44.6171429,45.2338846 C44.6171429,42.9325093 46.52173,41.0079967 50.4691403,41.0079967 C51.8771012,41.0079967 53.0905075,41.2793379 53.7816883,41.4150085 L53.7816883,40.7642921 C53.7816883,39.1689063 52.6220405,38.0835415 50.8275303,38.0835415 C49.6678826,38.0835415 48.536394,38.6538605 47.8733724,39.6010423 L45.8049499,38.0559049 C45.8049499,38.0559049 47.3229877,35.5384615 50.9376073,35.5384615 C54.4421499,35.5384615 56.5950501,37.6237689 56.5950501,40.6838947 L56.5950501,45.3695552 C56.5950501,45.8318402 56.8996817,46.1283056 57.3963079,46.1283056 L57.7828571,46.1283056 L57.7828571,48.7286588 Z M37.8141851,49 C35.3695559,49 32.9778517,47.7613026 32,45.1765207 L34.4723518,43.775494 C35.0973704,45.4462371 36.3751302,46.387747 37.8419077,46.387747 C39.6085933,46.387747 40.6141676,45.1765207 40.6141676,43.5357461 C40.6141676,40.1692863 33.2777598,38.6883436 33.2777598,33.9757993 C33.2777598,31.3910174 35.4250011,29.6153846 37.8141851,29.6153846 C39.5531481,29.6153846 41.0199256,30.3945652 41.8894071,31.7681208 L39.797611,33.4638376 C39.3364078,32.764573 38.7113892,32.1976691 37.8973529,32.1976691 C36.8917786,32.1976691 36.1583898,32.9793471 36.1583898,34.0032704 C36.1583898,36.6679682 43.52,38.363685 43.52,43.508275 C43.52,46.6574634 41.0476482,49 37.8141851,49 Z"></path>
                </g>
            </g>
        </g>
    </g>
</svg>