<?xml version="1.0" encoding="UTF-8"?>
<svg width="96px" height="18px" viewBox="0 0 96 18" version="1.1" xmlns="http://www.w3.org/2000/svg" xmlns:xlink="http://www.w3.org/1999/xlink">
    <!-- Generator: Sketch 53.2 (72643) - https://sketchapp.com -->
    <title>logo_06</title>
    <desc>Created with Sketch.</desc>
    <g id="pages" stroke="none" stroke-width="1" fill="none" fill-rule="evenodd">
        <g id="01-w_01-03-index-ui" transform="translate(-548.000000, -4239.000000)" fill="#111114">
            <g id="logos" transform="translate(260.000000, 4040.000000)">
                <g id="logo_06" transform="translate(255.000000, 168.000000)">
                    <path d="M39.9565727,37.1218133 L39.9565727,36.7327397 C39.9565727,36.2444881 39.8560898,35.8287176 39.6551212,35.4854157 C39.4541525,35.1421138 39.1449746,34.9704654 38.7275782,34.9704654 C38.2638043,34.9704654 37.9237086,35.1192273 37.7072808,35.4167557 C37.490853,35.714284 37.3826408,36.0461375 37.3826408,36.4123262 C37.3826408,36.9463514 37.5565534,37.3697507 37.9043837,37.6825369 C38.2522141,37.9953231 38.6889279,38.2661461 39.2145382,38.4950141 C39.7401486,38.723882 40.3043983,38.9565609 40.9073043,39.1930578 C41.5102102,39.4295547 42.0744599,39.7385217 42.6000703,40.1199683 C43.1256806,40.5014149 43.5623944,41.0011024 43.9102248,41.6190458 C44.2580552,42.2369893 44.4319677,43.0418294 44.4319677,44.0335905 C44.4319677,45.7729869 43.9295536,47.0355561 42.9247103,47.821336 C41.919867,48.6071159 40.4667308,49 38.5652581,49 C37.6686287,49 36.8763603,48.9275262 36.1884291,48.7825765 C35.500498,48.6376268 34.9207894,48.3858759 34.449286,48.0273161 C33.9777826,47.6687563 33.6183633,47.1995841 33.3710172,46.6197853 C33.1236712,46.0399865 33,45.3228777 33,44.4684374 L33,43.8962704 L37.1739436,43.8962704 L37.1739436,44.285344 C37.1739436,44.9872057 37.3053442,45.4792644 37.5681494,45.7615348 C37.8309545,46.0438053 38.1710503,46.1849384 38.5884467,46.1849384 C39.0367614,46.1849384 39.3807218,46.0323621 39.6203383,45.7272048 C39.8599548,45.4220476 39.9797612,45.0482355 39.9797612,44.6057575 C39.9797612,44.0717323 39.8135781,43.648333 39.4812069,43.3355468 C39.1488356,43.0227606 38.7314454,42.755752 38.2290238,42.534513 C37.7266021,42.313274 37.1816761,42.0882239 36.5942292,41.859356 C36.0067824,41.630488 35.4618563,41.3329642 34.9594346,40.9667755 C34.457013,40.6005868 34.0396228,40.1199713 33.7072516,39.5249146 C33.3748803,38.929858 33.2086972,38.1517187 33.2086972,37.1904733 C33.2086972,35.5273663 33.6570052,34.2609827 34.5536346,33.3912845 C35.450264,32.5215863 36.8106468,32.0867438 38.6348239,32.0867438 C40.5208374,32.0867438 41.885085,32.4872567 42.7276074,33.2882944 C43.5701299,34.0893322 43.9913848,35.3671591 43.9913848,37.1218133 L39.9565727,37.1218133 Z M67.6589567,40.3414374 C67.6589567,39.6853493 67.5777975,39.2047338 67.4154766,38.8995766 C67.2531558,38.5944193 66.9478426,38.441843 66.4995279,38.441843 C66.0666723,38.441843 65.7690886,38.5944193 65.6067677,38.8995766 C65.4444469,39.2047338 65.3632877,39.6853493 65.3632877,40.3414374 L65.3632877,40.8907177 L67.6589567,40.8907177 L67.6589567,40.3414374 Z M65.3632877,43.1336123 L65.3632877,44.7585666 C65.3632877,45.4299125 65.4792294,45.8761983 65.7111163,46.0974373 C65.9430032,46.3186763 66.2058045,46.4292942 66.4995279,46.4292942 C66.8705469,46.4292942 67.1604012,46.2805322 67.3690995,45.9830039 C67.5777977,45.6854756 67.6821452,45.1171287 67.6821452,44.2779463 L71.4386945,44.2779463 C71.4077762,45.8037326 71.0135744,46.9518695 70.2560771,47.7223916 C69.4985799,48.4929136 68.2541388,48.8781689 66.5227165,48.8781689 C65.5178732,48.8781689 64.6753633,48.767551 63.9951617,48.546312 C63.3149601,48.325073 62.7661693,47.9588898 62.3487729,47.4477514 C61.9313764,46.936613 61.6337927,46.2690915 61.4560127,45.4451669 C61.2782327,44.6212424 61.1893441,43.6218673 61.1893441,42.4470119 C61.1893441,41.2568986 61.2898269,40.2498948 61.4907956,39.4259702 C61.6917642,38.6020456 62.0086716,37.9307097 62.4415272,37.4119424 C62.8743827,36.8931751 63.4270383,36.5155486 64.0995103,36.2790518 C64.7719824,36.0425549 65.5797097,35.9243082 66.5227165,35.9243082 C67.3575094,35.9243082 68.0879422,36.0234828 68.7140368,36.2218351 C69.3401315,36.4201873 69.865734,36.7520408 70.29086,37.2174056 C70.715986,37.6827704 71.0328934,38.2930758 71.2415916,39.04834 C71.4502898,39.8036042 71.5546373,40.7457631 71.5546373,41.8748449 L71.5546373,43.1336123 L65.3632877,43.1336123 Z M89.3786882,33.0461349 L93.9607507,33.0461349 L96.6042483,42.612767 L96.6483066,42.612767 L96.6483066,33.0461349 L100.481378,33.0461349 L100.481378,48.5701697 L95.9874322,48.5701697 L93.255818,38.9817952 L93.2117597,38.9817952 L93.2117597,48.5701697 L89.3786882,48.5701697 L89.3786882,33.0461349 Z M124.524605,37.1218133 L124.524605,36.7327397 C124.524605,36.2444881 124.424122,35.8287176 124.223153,35.4854157 C124.022185,35.1421138 123.713007,34.9704654 123.29561,34.9704654 C122.831837,34.9704654 122.491741,35.1192273 122.275313,35.4167557 C122.058885,35.714284 121.950673,36.0461375 121.950673,36.4123262 C121.950673,36.9463514 122.124586,37.3697507 122.472416,37.6825369 C122.820246,37.9953231 123.25696,38.2661461 123.782571,38.4950141 C124.308181,38.723882 124.872431,38.9565609 125.475337,39.1930578 C126.078242,39.4295547 126.642492,39.7385217 127.168103,40.1199683 C127.693713,40.5014149 128.130427,41.0011024 128.478257,41.6190458 C128.826087,42.2369893 129,43.0418294 129,44.0335905 C129,45.7729869 128.497586,47.0355561 127.492743,47.821336 C126.487899,48.6071159 125.034763,49 123.13329,49 C122.236661,49 121.444393,48.9275262 120.756461,48.7825765 C120.06853,48.6376268 119.488822,48.3858759 119.017318,48.0273161 C118.545815,47.6687563 118.186396,47.1995841 117.939049,46.6197853 C117.691703,46.0399865 117.568032,45.3228777 117.568032,44.4684374 L117.568032,43.8962704 L121.741976,43.8962704 L121.741976,44.285344 C121.741976,44.9872057 121.873376,45.4792644 122.136182,45.7615348 C122.398987,46.0438053 122.739083,46.1849384 123.156479,46.1849384 C123.604794,46.1849384 123.948754,46.0323621 124.188371,45.7272048 C124.427987,45.4220476 124.547793,45.0482355 124.547793,44.6057575 C124.547793,44.0717323 124.38161,43.648333 124.049239,43.3355468 C123.716868,43.0227606 123.299478,42.755752 122.797056,42.534513 C122.294634,42.313274 121.749708,42.0882239 121.162261,41.859356 C120.574815,41.630488 120.029889,41.3329642 119.527467,40.9667755 C119.025045,40.6005868 118.607655,40.1199713 118.275284,39.5249146 C117.942913,38.929858 117.776729,38.1517187 117.776729,37.1904733 C117.776729,35.5273663 118.225037,34.2609827 119.121667,33.3912845 C120.018296,32.5215863 121.378679,32.0867438 123.202856,32.0867438 C125.08887,32.0867438 126.453117,32.4872567 127.29564,33.2882944 C128.138162,34.0893322 128.559417,35.3671591 128.559417,37.1218133 L124.524605,37.1218133 Z M61.5807828,31 L72.0787648,31 L72.0787648,33.4311101 L61.5807828,33.4311101 L61.5807828,31 Z"></path>
                </g>
            </g>
        </g>
    </g>
</svg>