<?xml version="1.0" encoding="UTF-8"?>
<svg width="125px" height="30px" viewBox="0 0 125 30" version="1.1" xmlns="http://www.w3.org/2000/svg" xmlns:xlink="http://www.w3.org/1999/xlink">
    <!-- Generator: Sketch 53.2 (72643) - https://sketchapp.com -->
    <title>logo_01</title>
    <desc>Created with Sketch.</desc>
    <g id="pages" stroke="none" stroke-width="1" fill="none" fill-rule="evenodd">
        <g id="01-w_01-03-index-ui" transform="translate(-278.000000, -4065.000000)" fill="#111114" fill-rule="nonzero">
            <g id="logos" transform="translate(260.000000, 4040.000000)">
                <g id="logo_01">
                    <path d="M32.7235417,30.1580979 C32.422905,30.1580979 32.1211338,30.1575273 31.8219719,30.1863435 C30.8820567,30.2765011 29.9571733,30.5980441 29.1911169,31.1586759 C28.6684061,31.5409897 28.2296183,32.0297237 27.8918558,32.5832228 C27.7086375,32.8836529 27.5376149,33.2049106 27.4354835,33.5432869 C27.3328416,33.8839456 27.2868953,34.2411522 27.2608023,34.5952205 C27.1997957,35.4209041 27.2488902,36.252294 27.2996581,37.0771218 C27.3129883,37.2933858 27.3268856,37.5096499 27.3396201,37.725914 C27.344158,37.8069417 27.3691166,37.9150737 27.354652,37.9961014 C27.3467106,38.040039 27.3336641,38.0551603 27.2985237,38.0913946 C27.1524596,38.2414955 26.9425811,38.3188142 26.7400768,38.350455 C26.3350681,38.4137935 25.9178637,38.3042349 25.544904,38.1504535 C25.4422337,38.1081993 25.3458031,38.0483129 25.2332061,38.0420361 C25.1396116,38.0369006 25.0440319,38.0582987 24.9569607,38.0911093 C24.828481,38.1396118 24.6361869,38.2452045 24.619737,38.4015252 C24.5978983,38.6072329 24.878398,38.7718561 25.0227604,38.8543103 C25.3392798,39.0351961 25.6889827,39.1202181 26.0281917,39.2443274 C26.6669029,39.4779954 27.300509,39.9162012 27.1771345,40.6905578 C27.1280399,40.9989481 26.9720492,41.3010901 26.826836,41.5772976 C26.4016903,42.3852921 25.831615,43.1293775 25.1429867,43.7270994 C24.6735964,44.1348342 24.1432278,44.4726113 23.5669129,44.7048812 C23.2520952,44.8321289 22.9247982,44.9271368 22.590978,44.9887349 C22.5203567,45.0018592 22.4922784,44.9918733 22.5158188,45.0646271 C22.518655,45.0740423 22.5257455,45.0831722 22.5308507,45.0914461 C22.5461661,45.1170954 22.5665867,45.1399486 22.587291,45.1613468 C22.8042599,45.3873114 23.1516939,45.4988386 23.4398513,45.5904227 C23.7753733,45.6971567 24.119971,45.7741901 24.4654196,45.8392405 C24.6509068,45.874305 24.8846093,45.8726216 25.0553483,45.9553327 C25.1889331,46.0201263 25.2626742,46.1567892 25.3125912,46.2908843 C25.3764056,46.4623549 25.4093055,46.6449526 25.448445,46.8232706 C25.4739707,46.9399619 25.5003474,47.0563679 25.5323964,47.1713188 C25.5542351,47.2486375 25.5550859,47.2734593 25.637052,47.276883 C25.8109108,47.2837305 25.9946962,47.223245 26.1645843,47.1912904 C26.3381595,47.1585084 26.5123019,47.1305196 26.6878624,47.1116892 C27.1399236,47.0631867 27.5962958,47.0774522 28.0452372,47.1484941 C28.4684259,47.2152563 28.8510004,47.3961421 29.2111972,47.6243892 C29.8451152,48.026104 30.4165803,48.5279907 31.1191343,48.8115591 C31.4875277,48.960205 31.878639,49.0432299 32.2757064,49.0560688 C32.6480989,49.0680517 33.0256249,49.059521 33.3906432,48.9781795 C34.1189782,48.8158387 34.7276258,48.393867 35.3269139,47.9684716 C35.6698099,47.7251032 36.0181231,47.4788817 36.4075327,47.315685 C36.8145268,47.1453272 37.2618232,47.0945707 37.6997034,47.0840143 C38.1004578,47.0743138 38.5000494,47.1134011 38.8940253,47.1864402 C39.0613609,47.2175388 39.2338016,47.2632167 39.4051078,47.2603351 C39.5049702,47.2589086 39.4972841,47.2107199 39.5225546,47.1165395 C39.5509166,47.0104331 39.5752795,46.9034423 39.5988199,46.7961662 C39.6592309,46.5216992 39.7035039,46.0769027 39.999858,45.9476578 C40.1774322,45.8700539 40.4088657,45.8691979 40.5988624,45.833249 C40.790022,45.7970148 40.9806144,45.7567863 41.169505,45.7099956 C41.5688413,45.6115355 42.014124,45.4971552 42.3521985,45.248366 C42.4117302,45.2046852 42.4744102,45.1530728 42.5127272,45.0885645 C42.5178323,45.0797485 42.5246392,45.0703333 42.5280426,45.0603475 C42.553852,44.9818875 42.5064875,44.9986922 42.4333137,44.9849974 C42.2605894,44.9525007 42.0898221,44.9108456 41.921352,44.8606313 C40.7743946,44.5179469 39.7964744,43.7667573 39.048286,42.8406449 C38.6480988,42.3453489 38.30577,41.801265 38.0422875,41.2206615 C37.8871476,40.8788616 37.7771315,40.5033667 37.9089863,40.1342056 C38.0224341,39.8166569 38.287902,39.5929748 38.5754922,39.4374815 C38.8673367,39.2796772 39.1849906,39.1875225 39.4981066,39.0839554 C39.7839951,38.9892614 40.1220696,38.8562789 40.3268429,38.622611 C40.4346184,38.4996429 40.4610233,38.3729658 40.3356635,38.2445769 C40.2162597,38.1224932 40.0219519,38.0471432 39.8543328,38.0317365 C39.6229276,38.0103383 39.4328741,38.137044 39.2218612,38.2126223 C38.867904,38.3396132 38.4833159,38.423494 38.1154613,38.307088 C37.9761757,38.2628937 37.7237543,38.1561597 37.6883019,37.9961014 C37.6721356,37.9233477 37.6976613,37.8234896 37.7019156,37.7495946 C37.7087225,37.6348719 37.715813,37.5202063 37.7229035,37.4054837 C37.73595,37.1963808 37.7489965,36.9875348 37.7611921,36.7784034 C37.7850162,36.3624232 37.8045859,35.9461577 37.808273,35.5293215 C37.8144842,34.8069196 37.8065429,34.0220351 37.5385508,33.3404323 C37.0702949,32.1498387 36.1244237,31.1638114 34.9664051,30.641411 C34.2669993,30.3258595 33.4904489,30.1580979 32.7235417,30.1580979 Z M18,49.5411223 L18,29.6744995 C18,27.0930254 20.080633,25 22.6468227,25 L42.3958192,25 C44.9620089,25 47.0426419,27.0930254 47.0426419,29.6744995 L47.0426419,49.5411223 C47.0426419,52.1225963 44.9619805,54.2156217 42.3958192,54.2156217 L22.6468227,54.2156217 C20.080633,54.2156217 18,52.1225963 18,49.5411223 Z M60.8327312,45.3719954 L60.8327312,42.3611259 C61.3751411,42.8192092 61.9644875,43.1625414 62.6004593,43.3914296 C63.2364302,43.6203177 63.8786192,43.7347618 64.5270236,43.7347618 C64.9074877,43.7347618 65.2394614,43.7003681 65.523255,43.6312648 C65.8067382,43.5624685 66.0439064,43.4667871 66.2341381,43.3445274 C66.4240593,43.2222678 66.5661118,43.077807 66.6596737,42.9117679 C66.7532348,42.7454131 66.799861,42.5649972 66.799861,42.3705028 C66.799861,42.1072209 66.7249488,41.8720785 66.5754366,41.6650757 C66.4256132,41.4580817 66.2213942,41.2667188 65.962778,41.090987 C65.7038513,40.915571 65.3967446,40.7460934 65.0414587,40.583177 C64.6861719,40.4199536 64.3026001,40.2536075 63.8910527,40.0844457 C62.8435334,39.645432 62.0627119,39.1091668 61.5482776,38.4756587 C61.0338425,37.8421593 60.7764706,37.0766989 60.7764706,36.1799089 C60.7764706,35.4772975 60.9169683,34.8734991 61.1973429,34.3688206 C61.4780279,33.8638263 61.8600459,33.4482681 62.3430865,33.1221371 C62.8264375,32.7959974 63.3859433,32.5558552 64.0219142,32.4023245 C64.657886,32.2484868 65.3314686,32.171875 66.0423517,32.171875 C66.7404909,32.171875 67.3593668,32.2140843 67.898668,32.2988275 C68.4379692,32.3835619 68.9353076,32.5136459 69.390683,32.6893689 L69.390683,35.5023143 C69.1659482,35.3456609 68.9213202,35.2074456 68.6564877,35.0883175 C68.3913439,34.9691805 68.118429,34.8703676 67.8380545,34.7922032 C67.5573694,34.7137142 67.2782383,34.655558 67.0009723,34.6180327 C66.723395,34.5805075 66.4601163,34.5614379 66.2105146,34.5614379 C65.8676621,34.5614379 65.555893,34.5945773 65.2752071,34.660242 C64.9948325,34.7262226 64.7576642,34.8187813 64.564324,34.9379095 C64.3712951,35.0570464 64.2214716,35.1999458 64.1154761,35.3659849 C64.0094807,35.532331 63.9566391,35.7186941 63.9566391,35.9256969 C63.9566391,36.1517693 64.0156979,36.3540793 64.1341268,36.532618 C64.2525549,36.7114813 64.421029,36.8809589 64.6392362,37.040735 C64.8574434,37.2008357 65.1225863,37.3574891 65.4343555,37.5113355 C65.7461246,37.6648662 66.0983028,37.8233967 66.4911996,37.9863043 C67.0273931,38.2120697 67.5091894,38.4518962 67.9362789,38.7061169 C68.3633683,38.9600131 68.7295339,39.2470663 69.0350858,39.5669431 C69.3406387,39.8868198 69.574388,40.2523532 69.736644,40.6629116 C69.8985906,41.0737857 69.9797182,41.5522018 69.9797182,42.0978352 C69.9797182,42.8504802 69.837977,43.4824182 69.5541834,43.9936667 C69.2703898,44.5049151 68.8855737,44.918912 68.3991149,45.235666 C67.9126553,45.5524113 67.3469333,45.7797381 66.7016366,45.9176377 C66.0563399,46.0558442 65.3749862,46.1246317 64.657886,46.1246317 C63.9221359,46.1246317 63.2224429,46.0620984 62.5581851,45.9367073 C61.8942387,45.8110091 61.3191908,45.6227689 60.8327312,45.3719954 Z M81.1165405,46.0259311 L78.1704317,46.0259311 L78.1704317,40.6724008 C78.1704317,39.179628 77.6404553,38.4332459 76.5805027,38.4332459 C76.069177,38.4332459 75.6483047,38.6305473 75.3178848,39.0257903 C74.9871546,39.4210245 74.8221004,39.9228873 74.8221004,40.5310628 L74.8221004,46.0259311 L71.8666667,46.0259311 L71.8666667,36.3913924 L74.8221004,36.3913924 L74.8221004,37.9157433 L74.8594008,37.9157433 C75.5640676,36.7428559 76.5898284,36.15625 77.9366833,36.15625 C80.0565878,36.15625 81.1165405,37.4798611 81.1165405,40.1267586 L81.1165405,46.0259311 Z M91.6363512,46.0259311 L88.8397546,46.0259311 L88.8397546,44.6429095 L88.8024541,44.6429095 C88.1599556,45.7216855 87.2091061,46.2610735 85.9495969,46.2610735 C85.0205057,46.2610735 84.289419,45.9962214 83.7563341,45.4659034 C83.2232491,44.9359011 82.9568627,44.2289126 82.9568627,43.3443152 C82.9568627,41.4753865 84.0572236,40.3962947 86.2582574,40.107689 L88.8584052,39.7596639 C88.8584052,38.7059048 88.2911284,38.1790252 87.1562636,38.1790252 C86.0151833,38.1790252 84.9300523,38.520796 83.9014942,39.2046448 L83.9014942,36.9654899 C84.3127312,36.7522329 84.875656,36.5639927 85.5896477,36.4007693 C86.3033289,36.2378617 86.9535985,36.15625 87.5395259,36.15625 C90.2705352,36.15625 91.6360399,37.5267632 91.6360399,40.2677809 L91.6360399,46.0259311 L91.6363512,46.0259311 Z M88.8584052,42.1120173 L88.8584052,41.4625623 L87.1186527,41.6886348 C86.1584783,41.8140259 85.6785472,42.2499081 85.6785472,42.9962989 C85.6785472,43.3349383 85.7954214,43.6126058 86.0291706,43.8289855 C86.2629199,44.0453653 86.5793515,44.1535551 86.9784654,44.1535551 C87.5333087,44.1535551 87.9855756,43.9606309 88.3346452,43.5750805 C88.6837148,43.1892232 88.8584052,42.7014302 88.8584052,42.1120173 Z M97.0401034,44.9062002 L97.0024925,44.9062002 L97.0024925,50.4573476 L94.0470588,50.4573476 L94.0470588,36.3913924 L97.0024925,36.3913924 L97.0024925,37.8403946 L97.0401034,37.8403946 C97.7696371,36.7175321 98.7950867,36.15625 100.117075,36.15625 C101.357934,36.15625 102.316554,36.5843254 102.992935,37.4404675 C103.669626,38.2966007 104.007816,39.4616813 104.007816,40.9356915 C104.007816,42.5416541 103.613364,43.8305556 102.824772,44.8027031 C102.035869,45.7748506 100.986796,46.2610735 99.6775516,46.2610735 C98.524037,46.2610735 97.6446806,45.8095865 97.0401034,44.9062002 Z M96.9558672,40.9547962 L96.9558672,41.7261951 C96.9558672,42.3909655 97.1302463,42.933485 97.4796263,43.353736 C97.8286959,43.7739871 98.2868687,43.9841126 98.8544568,43.9841126 C99.5277281,43.9841126 100.049934,43.7223921 100.421073,43.198644 C100.792212,42.6748871 100.97747,41.9331979 100.97747,40.9735589 C100.97747,39.2800374 100.322848,38.433281 99.0132939,38.433281 C98.4087166,38.433281 97.9144869,38.6637305 97.530915,39.1246296 C97.1476536,39.5858181 96.9558672,40.19559 96.9558672,40.9547962 Z M112.965673,45.677906 C112.298618,46.0665791 111.335024,46.2610735 110.075514,46.2610735 C108.604014,46.2610735 107.4132,45.8126741 106.50276,44.9155771 C105.592319,44.0187871 105.137255,42.8615309 105.137255,41.4437997 C105.137255,39.8068819 105.625268,38.5161032 106.600984,37.572411 C107.5767,36.6284119 108.881592,36.15625 110.515349,36.15625 C111.643685,36.15625 112.460564,36.306965 112.965673,36.6077721 L112.965673,39.1292873 C112.348352,38.6652568 111.659227,38.4332459 110.89861,38.4332459 C110.050647,38.4332459 109.37893,38.6824581 108.883145,39.1811893 C108.387362,39.6799294 108.139624,40.3681552 108.139624,41.2461826 C108.139624,42.0995089 108.376482,42.7689721 108.850508,43.2552038 C109.324223,43.7411196 109.975736,43.9840776 110.805048,43.9840776 C111.540798,43.9840776 112.261006,43.7520667 112.965673,43.2880362 L112.965673,45.677906 Z M124.09989,45.9721132 L121.153782,45.9721132 L121.153782,40.4963233 C121.153782,39.0848463 120.642456,38.379428 119.619804,38.379428 C119.096044,38.379428 118.672063,38.5770451 118.347861,38.9719724 C118.023658,39.3672066 117.861713,39.8690694 117.861713,40.4775606 L117.861713,45.9721132 L114.905968,45.9721132 L114.905968,31.7085409 L117.861713,31.7085409 L117.861713,37.7678052 L117.899012,37.7678052 C118.62233,36.6574512 119.604261,36.1024321 120.845121,36.1024321 C123.015071,36.1024321 124.09989,37.4197889 124.09989,40.0541781 L124.09989,45.9721132 Z M134.406916,45.9721132 L131.610323,45.9721132 L131.610323,44.5890915 L131.573022,44.5890915 C130.930834,45.6678675 129.979986,46.2072555 128.720165,46.2072555 C127.791385,46.2072555 127.060298,45.9424035 126.526902,45.4120854 C125.993817,44.8820831 125.727431,44.1750947 125.727431,43.2904973 C125.727431,41.4215686 126.827792,40.3424768 129.028826,40.0538711 L131.628974,39.705846 C131.628974,38.6520868 131.061697,38.1252072 129.926833,38.1252072 C128.785752,38.1252072 127.700932,38.4669781 126.672063,39.1508269 L126.672063,36.911672 C127.083611,36.6984149 127.646225,36.5101747 128.360216,36.3469513 C129.074208,36.1840438 129.724167,36.1024321 130.310405,36.1024321 C133.041413,36.1024321 134.406916,37.4729453 134.406916,40.213963 L134.406916,45.9721132 Z M131.628974,42.0581994 L131.628974,41.4087444 L129.889532,41.6348168 C128.929047,41.760208 128.449115,42.1960902 128.449115,42.942481 C128.449115,43.2811204 128.565991,43.5587878 128.799739,43.7751676 C129.033488,43.9915473 129.34992,44.0997372 129.749034,44.0997372 C130.303877,44.0997372 130.756145,43.9068129 131.105213,43.5212626 C131.454594,43.1354053 131.628974,42.6476123 131.628974,42.0581994 Z M142.534675,45.8592305 C142.097947,46.0912501 141.440216,46.2072555 140.561171,46.2072555 C138.478565,46.2072555 137.437262,45.1191026 137.437262,42.942481 L137.437262,38.5298272 L135.884633,38.5298272 L135.884633,36.3375744 L137.437262,36.3375744 L137.437262,34.2585114 L140.383375,33.411755 L140.383375,36.3375744 L142.534675,36.3375744 L142.534675,38.5298272 L140.383375,38.5298272 L140.383375,42.4249783 C140.383375,43.4287126 140.779382,43.9302596 141.571082,43.9302596 C141.882848,43.9302596 142.203944,43.839578 142.534361,43.6576008 L142.534361,45.8592305 L142.534675,45.8592305 Z"></path>
                </g>
            </g>
        </g>
    </g>
</svg>