<svg width="82" height="35" xmlns="http://www.w3.org/2000/svg"><path d="M74.959 24.013c-.529.134-.971.232-1.405.36-.326.098-.65.21-.957.355-.691.328-1.36.696-1.744 1.422-.33.62-.274 1.497.11 1.919.346.378 1.123.494 1.706.243.428-.184.767-.485 1.04-.872.704-.998.996-2.148 1.25-3.427zM58.39 15.558c1.64-1.311 3.121-3.6 3.776-5.736.39-1.27.593-2.566.551-3.896-.013-.427-.056-.9-.514-1.084-.466-.185-.846.094-1.165.414-.41.41-.703.91-.947 1.44-1.28 2.78-1.566 5.758-1.701 8.862zM82 21.072c-.89.662-1.838 1.227-2.871 1.622-.294.112-.396.281-.441.587-.312 2.074-.877 4.051-2.169 5.737-1.795 2.343-4.701 2.783-7.043 1.923-2.841-1.042-2.78-4.677-1.533-6.313.5-.657 1.114-1.158 1.834-1.623-.808-.483-1.538-1.013-2.07-1.812-1.16 1.367-2.489 2.482-4.209 2.927-2.833.732-5.388.33-7.314-2.182-.246-.322-.328-.06-.456.074-1.084 1.14-2.36 1.93-3.892 2.267-1.136.25-2.264.236-3.374-.107-1.835-.567-2.805-1.948-3.291-3.76-.404-1.502-.398-3.043-.331-4.58a42.348 42.348 0 0 1 1.8-10.47c.136-.45.32-.613.789-.59.89.044 1.786.032 2.678.004.41-.013.475.102.369.496-.323 1.196-.606 2.403-.91 3.605-.039.152-.087.298-.039.49 1.359 0 2.726.017 4.092-.01.406-.009.515.112.493.516-.033.641-.03 1.287 0 1.927.018.377-.12.453-.456.448-1.311-.018-2.623.028-3.933-.023-.587-.023-.788.107-.846.75-.163 1.823-.353 3.639-.19 5.471.191 2.135 1.193 2.856 3.2 2.255 1.116-.336 2.015-1.05 2.84-1.87.188-.187.132-.386.11-.592-.438-3.99-.024-7.879 1.408-11.62.694-1.813 1.706-3.42 3.37-4.5.614-.397 1.32-.52 1.972-.798h1.483c.017.032.029.086.052.092 1.766.395 2.62 1.256 2.908 3.095.39 2.482-.006 4.88-.952 7.177-1.237 2.999-3.236 5.368-5.847 7.2-.315.222-.356.387-.176.728.584 1.106 1.606 1.644 2.95 1.54 1.778-.14 3.194-1 4.419-2.27.151-.157.208-.307.168-.514-.25-1.293-.209-2.595-.097-3.896.138-1.61.431-3.191.937-4.726.064-.193.1-.392.399-.388 1.173.02 2.346.008 3.557.008l-.103.32c-.818 2.5-1.181 5.06-.917 7.69.138 1.366.64 2.564 1.863 3.297.882.529 1.857.465 2.827.403.28-.017.205-.225.212-.383a29.661 29.661 0 0 0-.727-8.047c-.252-1.1-.603-2.17-.958-3.28 1.107 0 2.154.046 3.195-.018.56-.035.743.2.897.686.719 2.27 1.11 4.598 1.241 6.973.05.918.008 1.842.008 2.895a14.975 14.975 0 0 0 2.69-1.874c.109-.095.17-.307.384-.23v3.273zm-52.622-4.36c-.015-.106-.029-.24-.052-.373-.106-.64-.364-.908-.847-.884-.46.022-.766.419-.789 1.024a1.751 1.751 0 0 0 1.161 1.742c.223.081.357.072.384-.208.041-.424.093-.847.143-1.3zm-1.675 4.054c-1.949-.82-2.979-2.276-2.864-4.469.095-1.838 1.089-2.94 2.902-3.398-.135-.118-.213-.193-.298-.258-1.332-1.03-3.478-.525-4.408 1.038a4.925 4.925 0 0 0-.654 2.087c-.144 1.573-.098 3.121.874 4.46 1.027 1.415 3.224 1.67 4.448.54zm4.796-2.48c.825-.097 1.545-.475 2.267-.864.28-.151.21-.377.21-.595.003-2.317.011-4.634-.007-6.95-.003-.396.07-.536.487-.521.968.035 1.938.024 2.906.004.316-.007.435.075.416.414-.029.48-.008.964-.008 1.53.33-.388.592-.734.89-1.042 1.14-1.176 2.54-1.453 4.086-1.23.21.03.235.135.234.309-.003 1.125-.001 2.25-.001 3.372-.73-.081-1.422-.254-2.128-.124-1.51.277-2.496 1.389-2.862 3.217a12.02 12.02 0 0 0-.219 2.377c.001 1.83-.011 3.66.01 5.491.004.368-.097.454-.443.445a61.957 61.957 0 0 0-2.964-.001c-.331.008-.408-.102-.402-.424.018-1.11.007-2.22.007-3.37-.657.209-1.284.534-1.932.586-1.1.088-1.796.631-2.504 1.466-1.418 1.67-3.37 2.167-5.462 2.05-2.454-.14-4.407-1.185-5.594-3.487-1.617-3.135-1.024-7.93 1.335-10.148 2.156-2.03 4.727-2.285 7.388-1.366 2.534.875 3.763 2.912 4.172 5.542.169 1.087.118 2.172.063 3.26-.058.037-.074.08-.011.123.005.004.043-.041.066-.064zM3.883 23.382C.89 21.95-.297 18.955.062 15.768c.023-.2.056-.396.094-.593h3.941c-.076.612-.097 1.22-.075 1.831.074 1.98 1.02 3.263 2.878 3.694 1.654.383 3.287.366 4.858-.503 1.58-.873 2.2-4.105-.08-5.304-1.294-.68-2.701-.966-4.07-1.393a30.622 30.622 0 0 1-.43-.139 11.034 11.034 0 0 1-1.895-.71c-1.847-.916-2.816-2.436-3.075-4.503C1.712 4.192 4.095 1.714 6.853.721c2.915-1.05 5.82-.973 8.63.358 2.963 1.403 4.136 4.34 3.782 7.464a7.192 7.192 0 0 1-.074.486h-3.908c.065-.567.083-1.131.062-1.7-.072-1.94-1.01-3.198-2.849-3.62-1.636-.377-3.253-.36-4.807.492-1.564.857-2.178 4.026.078 5.2 1.281.668 2.674.949 4.028 1.367.96.297 1.897.638 2.793 1.113 1.236.656 2.042 1.796 2.421 3.09.135.373.233.772.286 1.201.502 4.035-1.906 6.563-4.692 7.575-2.946 1.07-5.88.992-8.72-.365zm19.75 8.675c-.005.254.034.466.116.637.082.171.195.307.338.409a1.4 1.4 0 0 0 .51.218c.195.044.405.066.628.066.127 0 .266-.019.417-.056.15-.037.29-.096.42-.176.13-.081.238-.185.325-.312a.798.798 0 0 0 .13-.46.682.682 0 0 0-.093-.36.85.85 0 0 0-.239-.257 1.403 1.403 0 0 0-.325-.17 3.145 3.145 0 0 0-.348-.107l-1.087-.27a3.224 3.224 0 0 1-.413-.138 1.175 1.175 0 0 1-.352-.222 1.052 1.052 0 0 1-.335-.83c0-.12.023-.261.068-.423.046-.161.131-.314.257-.457.125-.143.297-.264.516-.363.218-.1.499-.15.84-.15.242 0 .472.033.69.098.22.064.41.161.574.29.164.13.295.29.393.482.098.191.147.414.147.668h-.464a1.102 1.102 0 0 0-.42-.848 1.28 1.28 0 0 0-.417-.215 1.672 1.672 0 0 0-.496-.073c-.16 0-.313.018-.461.052-.148.035-.278.09-.39.166a.856.856 0 0 0-.27.302.955.955 0 0 0-.102.464c0 .115.02.215.058.3a.636.636 0 0 0 .16.219c.069.06.147.108.236.145.09.037.184.067.284.09l1.189.298c.173.046.336.103.489.17.152.067.287.15.403.249.116.1.207.22.273.363.066.144.1.317.1.52 0 .055-.006.129-.018.221-.011.093-.039.19-.082.295a1.47 1.47 0 0 1-.184.315c-.08.106-.19.202-.328.287-.14.085-.311.155-.516.208-.205.053-.451.08-.738.08s-.554-.034-.8-.101a1.712 1.712 0 0 1-.629-.308 1.356 1.356 0 0 1-.4-.533 1.768 1.768 0 0 1-.12-.783h.466zm5.494-1.682c-.205 0-.385.044-.54.131a1.19 1.19 0 0 0-.386.346 1.58 1.58 0 0 0-.232.489 2.009 2.009 0 0 0 0 1.114c.052.183.13.345.232.489.103.143.231.258.386.346.155.087.335.131.54.131.205 0 .385-.044.54-.131a1.19 1.19 0 0 0 .386-.346 1.58 1.58 0 0 0 .232-.489 2.009 2.009 0 0 0 0-1.114 1.58 1.58 0 0 0-.232-.489 1.19 1.19 0 0 0-.386-.346 1.077 1.077 0 0 0-.54-.131zm0-.367c.269 0 .507.05.714.152.207.102.382.238.523.409.141.17.248.37.321.598.073.229.11.472.11.731 0 .258-.037.502-.11.73-.073.229-.18.429-.321.6a1.52 1.52 0 0 1-.523.404c-.207.1-.445.15-.714.15-.269 0-.507-.05-.714-.15a1.52 1.52 0 0 1-.523-.405 1.775 1.775 0 0 1-.321-.599 2.39 2.39 0 0 1-.11-.73c0-.259.037-.502.11-.73.073-.229.18-.429.321-.6.141-.17.316-.306.523-.408.207-.102.445-.152.714-.152zm2.31.104h.396v.837h.014c.11-.29.279-.514.509-.671a1.32 1.32 0 0 1 .823-.215v.436a1.284 1.284 0 0 0-.533.08 1.198 1.198 0 0 0-.683.678c-.064.16-.096.334-.096.523v1.904h-.43v-3.572zm2.836 0h.717v.367h-.717v2.41c0 .142.02.254.058.335.039.08.136.126.29.135.123 0 .246-.007.37-.02v.366a2.65 2.65 0 0 0-.192.007 2.65 2.65 0 0 1-.191.007c-.287 0-.488-.057-.602-.17-.114-.113-.168-.322-.164-.626v-2.444h-.615v-.367h.615v-1.074h.43v1.074zm2.843 0h.458l1.161 3.046 1.087-3.046h.43l-1.53 4.112a4.003 4.003 0 0 1-.178.378.859.859 0 0 1-.181.235.598.598 0 0 1-.232.125 1.257 1.257 0 0 1-.339.038 42.568 42.568 0 0 0-.201-.01.411.411 0 0 1-.127-.025v-.367c.05.01.1.018.147.025.048.007.097.01.147.01a.577.577 0 0 0 .236-.042.5.5 0 0 0 .16-.114.656.656 0 0 0 .117-.176l.102-.229.15-.401-1.407-3.56zm5.05.263c-.205 0-.385.044-.54.131a1.19 1.19 0 0 0-.386.346 1.58 1.58 0 0 0-.232.489 2.009 2.009 0 0 0 0 1.114c.052.183.13.345.232.489.102.143.231.258.386.346.155.087.335.131.54.131.205 0 .385-.044.54-.131a1.19 1.19 0 0 0 .386-.346 1.58 1.58 0 0 0 .232-.489 2.009 2.009 0 0 0 0-1.114 1.58 1.58 0 0 0-.232-.489 1.19 1.19 0 0 0-.386-.346 1.077 1.077 0 0 0-.54-.131zm0-.367c.269 0 .507.05.714.152.207.102.382.238.523.409.141.17.248.37.321.598.073.229.11.472.11.731 0 .258-.037.502-.11.73-.073.229-.18.429-.321.6a1.52 1.52 0 0 1-.523.404c-.207.1-.445.15-.714.15-.269 0-.507-.05-.714-.15a1.52 1.52 0 0 1-.523-.405 1.775 1.775 0 0 1-.321-.599 2.39 2.39 0 0 1-.11-.73c0-.259.037-.502.11-.73.073-.229.18-.429.321-.6.141-.17.316-.306.523-.408.207-.102.445-.152.714-.152zm5.166 3.676h-.396v-.644h-.014c-.114.24-.279.424-.495.55-.217.128-.457.191-.721.191a1.55 1.55 0 0 1-.57-.093.95.95 0 0 1-.383-.267 1.086 1.086 0 0 1-.216-.422 2.152 2.152 0 0 1-.068-.568v-2.32h.43v2.327c.01.323.084.568.223.734.139.166.379.25.72.25a.9.9 0 0 0 .479-.122c.132-.08.241-.188.328-.322a1.46 1.46 0 0 0 .191-.46 2.29 2.29 0 0 0 .062-.53v-1.876h.43v3.572zm.814-3.572h.396v.837h.014c.109-.29.279-.514.509-.671a1.32 1.32 0 0 1 .823-.215v.436a1.284 1.284 0 0 0-.533.08 1.198 1.198 0 0 0-.683.678c-.064.16-.096.334-.096.523v1.904h-.43v-3.572zm4.059-1.371h.43v4.943h-.43v-4.943zm1.264 0h.43v.699h-.43v-.7zm0 1.37h.43v3.573h-.43v-3.572zm2.617.368h-.697v3.205h-.43V30.48h-.601v-.367h.6v-.326c0-.152.012-.293.035-.422a.83.83 0 0 1 .13-.333.627.627 0 0 1 .263-.214c.112-.051.254-.076.427-.076a2.12 2.12 0 0 1 .362.027v.374a9.613 9.613 0 0 0-.164-.024c-.05-.007-.1-.01-.15-.01a.552.552 0 0 0-.273.055.337.337 0 0 0-.14.149.578.578 0 0 0-.052.218 4.953 4.953 0 0 0-.007.27v.312h.697v.367zm2.946 1.17a1.595 1.595 0 0 0-.086-.478 1.313 1.313 0 0 0-.222-.405 1.103 1.103 0 0 0-.348-.284.987.987 0 0 0-.465-.107c-.178 0-.335.035-.471.107a1.103 1.103 0 0 0-.349.284 1.42 1.42 0 0 0-.229.408 2.024 2.024 0 0 0-.113.475h2.283zm-2.283.367c0 .157.022.32.065.488.044.168.113.32.209.453.095.134.216.245.362.333.146.087.321.131.526.131.314 0 .56-.083.738-.249.178-.166.3-.388.37-.665h.43c-.091.407-.259.72-.503.942-.243.222-.588.332-1.035.332-.278 0-.518-.05-.72-.149a1.33 1.33 0 0 1-.496-.408 1.787 1.787 0 0 1-.284-.602 2.773 2.773 0 0 1 0-1.416 1.87 1.87 0 0 1 .284-.606 1.43 1.43 0 0 1 .495-.43c.203-.108.443-.162.721-.162.283 0 .524.057.724.173.201.115.364.266.49.453.124.187.214.402.27.644.054.243.077.488.067.738H56.75z" fill="#111114" fill-rule="evenodd"/></svg>