<svg width="16" height="13" xmlns="http://www.w3.org/2000/svg" xmlns:xlink="http://www.w3.org/1999/xlink"><defs><path d="M17.559 4.24a6.563 6.563 0 0 1-2.086.796A3.282 3.282 0 0 0 9.88 8.029a9.316 9.316 0 0 1-6.766-3.43 3.277 3.277 0 0 0-.445 1.652A3.28 3.28 0 0 0 4.13 8.982a3.285 3.285 0 0 1-1.488-.409v.04a3.283 3.283 0 0 0 2.635 3.218 3.278 3.278 0 0 1-1.483.057 3.283 3.283 0 0 0 3.066 2.278 6.586 6.586 0 0 1-4.077 1.406c-.265 0-.527-.015-.783-.045A9.306 9.306 0 0 0 7.032 17c6.039 0 9.34-5 9.34-9.337 0-.143-.003-.285-.009-.425A6.637 6.637 0 0 0 18 5.539c-.588.26-1.22.437-1.885.517A3.289 3.289 0 0 0 17.56 4.24" id="a"/></defs><use fill="#FFF" xlink:href="#a" transform="translate(-2 -4)" fill-rule="evenodd"/></svg>