<svg width="116" height="12" xmlns="http://www.w3.org/2000/svg"><path d="M9.792.224L5.92 6.464v4.96H3.872v-4.96L0 .224h2.176l2.72 4.416L7.616.224h2.176zm20.664 11.2h-7.328V.224h7.168v1.984h-5.072v2.384h3.936v1.984h-3.936V9.44h5.232v1.984zm17.225.224c-.8 0-1.53-.08-2.192-.24-.661-.16-1.168-.352-1.52-.576l.24-2.336c.341.33.819.61 1.432.84.613.23 1.31.344 2.088.344 1.333 0 2-.405 2-1.216 0-.235-.056-.445-.168-.632a1.79 1.79 0 0 0-.432-.488 2.87 2.87 0 0 0-.576-.352 5.229 5.229 0 0 0-.616-.24l-1.504-.528-.64-.272c-.672-.277-1.163-.608-1.472-.992-.31-.384-.48-.917-.512-1.6 0-.427.08-.84.24-1.24.16-.4.405-.757.736-1.072.33-.315.752-.568 1.264-.76C46.56.096 47.164 0 47.857 0a7.2 7.2 0 0 1 1.064.08c.357.053.696.12 1.016.2.32.08.608.173.864.28.256.107.464.208.624.304l-.208 2.096c-1.237-.672-2.33-1.008-3.28-1.008-.277 0-.539.021-.784.064a2.256 2.256 0 0 0-.648.208 1.28 1.28 0 0 0-.448.368.88.88 0 0 0-.168.544c0 .277.067.493.2.648.133.155.33.29.592.408.261.117.59.237.984.36.395.123.853.285 1.376.488l.864.336c.224.085.459.208.704.368.245.16.472.357.68.592.208.235.381.51.52.824.139.315.208.67.208 1.064 0 .341-.043.71-.128 1.104a2.509 2.509 0 0 1-.576 1.112c-.299.347-.736.635-1.312.864-.576.23-1.35.344-2.32.344zm22.296-3.904h-2v3.68H65.93V.224h3.168c.811 0 1.518.045 2.12.136.603.09 1.102.267 1.496.528.395.261.691.624.888 1.088.198.464.296 1.064.296 1.8 0 .779-.122 1.421-.368 1.928-.245.507-.56.912-.944 1.216a3.451 3.451 0 0 1-1.272.64c-.464.123-.909.184-1.336.184zm-.32-5.808h-1.68v3.888h1.728c.758 0 1.3-.152 1.624-.456.326-.304.488-.83.488-1.576 0-.33-.034-.613-.104-.848a1.225 1.225 0 0 0-.352-.576 1.523 1.523 0 0 0-.664-.328 4.375 4.375 0 0 0-1.04-.104zm24.68 9.488h-6.655V.224h2.048V9.44h4.608v1.984zm20.985-11.2L110.17 9.44h4.432v1.984h-7.808l5.152-9.216h-4.432V.224h7.808z" fill="#1B1B1D" fill-rule="nonzero"/></svg>