<?xml version="1.0" standalone="no"?>
<!DOCTYPE svg PUBLIC "-//W3C//DTD SVG 20010904//EN"
 "http://www.w3.org/TR/2001/REC-SVG-20010904/DTD/svg10.dtd">
<svg version="1.0" xmlns="http://www.w3.org/2000/svg"
 width="1152.000000pt" height="1152.000000pt" viewBox="0 0 1152.000000 1152.000000"
 preserveAspectRatio="xMidYMid meet">
<metadata>
Created by potrace 1.11, written by Peter Selinger 2001-2013
</metadata>
<g transform="translate(0.000000,1152.000000) scale(0.100000,-0.100000)"
fill="#000000" stroke="none">
<path d="M901 9233 c-6 -27 -13 -61 -16 -78 -3 -16 -7 -41 -10 -55 -11 -55
-14 -77 -19 -110 -3 -19 -7 -44 -10 -55 -2 -11 -7 -40 -12 -65 -9 -51 -11 -59
-14 -62 -1 -2 -3 -16 -5 -33 -3 -30 -7 -55 -25 -150 -5 -27 -12 -66 -15 -85
-3 -19 -8 -42 -10 -50 -2 -8 -7 -33 -10 -55 -3 -23 -8 -52 -10 -65 -3 -14 -10
-47 -15 -73 -5 -27 -13 -53 -16 -59 -5 -7 -2 -8 5 -3 10 6 11 3 3 -11 -5 -11
-13 -37 -16 -59 -3 -22 -8 -53 -11 -70 -3 -16 -7 -41 -10 -55 -3 -14 -7 -36
-10 -50 -3 -14 -8 -38 -11 -55 -4 -16 -8 -41 -9 -55 -5 -42 -16 -104 -21 -119
-2 -8 -7 -30 -10 -50 -2 -20 -9 -56 -14 -81 -5 -25 -11 -61 -14 -80 -4 -19 -8
-46 -11 -60 -3 -14 -14 -74 -25 -135 -10 -60 -21 -121 -24 -135 -5 -26 -26
-141 -31 -175 -2 -11 -7 -36 -10 -55 -3 -19 -8 -46 -11 -60 -5 -30 -22 -125
-29 -160 -3 -13 -7 -40 -10 -60 -3 -20 -8 -47 -11 -60 -3 -14 -7 -38 -9 -55
-3 -16 -7 -41 -10 -55 -3 -14 -8 -36 -11 -50 -3 -14 -7 -41 -10 -60 -6 -41
-12 -75 -14 -75 -1 0 -3 -12 -5 -26 -5 -37 -14 -88 -21 -124 -4 -16 -8 -41 -9
-55 -2 -14 -4 -25 -5 -25 -1 0 -3 -15 -5 -34 -2 -18 -8 -54 -14 -80 -6 -25
-18 -89 -26 -141 -9 -52 -18 -106 -21 -120 -33 -180 -63 -351 -68 -390 -3 -19
-12 -75 -22 -125 -9 -49 -17 -94 -18 -100 -1 -5 -5 -16 -9 -22 -5 -8 -3 -13 3
-13 6 0 9 -4 6 -9 -6 -8 -27 -116 -41 -201 -3 -19 -15 -86 -26 -148 -11 -62
-22 -127 -24 -145 -3 -17 -7 -43 -10 -57 -2 -13 -7 -40 -10 -60 -5 -34 -7 -46
-19 -110 -3 -14 -8 -43 -12 -65 -3 -22 -8 -53 -11 -70 -8 -56 -10 -386 -1
-391 5 -3 6 -9 4 -13 -3 -3 2 -40 10 -81 8 -41 17 -88 20 -105 3 -16 8 -32 12
-35 4 -3 8 -14 10 -25 5 -38 92 -230 135 -300 78 -127 245 -307 372 -402 39
-29 75 -56 80 -61 26 -21 188 -114 260 -150 83 -41 208 -93 266 -110 19 -6 66
-20 104 -32 39 -12 82 -23 97 -25 15 -2 44 -8 65 -14 21 -6 52 -12 68 -15 49
-7 168 -25 205 -31 231 -33 861 -23 1225 20 22 3 60 7 85 10 25 2 61 6 80 9
57 8 102 15 155 21 60 8 82 11 115 19 14 3 41 8 60 11 46 6 85 14 140 26 25 6
56 13 70 15 14 3 43 10 65 16 22 6 47 13 55 14 75 15 396 140 420 164 3 3 25
15 50 28 51 26 57 30 150 92 97 65 133 95 230 190 101 99 146 154 223 269 59
88 154 270 162 310 2 12 8 28 13 35 10 12 43 108 40 116 -1 3 4 14 10 26 6 11
13 32 16 45 3 13 7 33 10 44 11 41 45 202 51 245 4 24 8 47 10 50 2 3 6 21 9
40 3 19 8 46 11 60 2 13 7 40 10 60 3 20 8 47 11 60 5 27 11 56 19 105 3 17 7
41 10 55 3 14 8 40 11 59 3 18 8 43 10 55 6 27 33 171 40 215 3 18 8 43 10 55
29 148 57 298 60 324 2 18 6 42 9 53 4 11 8 33 10 49 2 16 9 57 15 92 7 35 14
73 16 86 2 12 6 34 9 50 3 15 12 68 20 117 9 50 19 104 22 120 3 17 7 39 8 50
2 11 13 79 25 150 27 161 29 175 34 200 2 11 7 42 10 68 4 27 9 59 12 70 14
71 18 139 18 272 0 150 -4 193 -25 282 -6 26 -12 53 -13 58 -2 8 -35 118 -41
135 -26 74 -98 216 -147 288 -107 158 -276 321 -423 407 -78 45 -182 95 -199
95 -9 0 -16 4 -16 10 0 5 -3 9 -7 8 -5 0 -15 2 -23 5 -27 11 -184 56 -212 61
-15 2 -31 7 -35 9 -5 3 -26 8 -48 11 -22 3 -53 9 -70 12 -29 7 -41 8 -165 21
-130 13 -449 6 -543 -13 -12 -2 -37 -6 -57 -9 -20 -3 -47 -8 -60 -11 -14 -3
-37 -7 -51 -8 -14 -2 -31 -6 -37 -10 -7 -4 -12 -5 -12 -1 0 3 -8 1 -18 -4 -10
-5 -38 -12 -62 -16 -24 -4 -51 -10 -60 -15 -8 -4 -29 -10 -47 -13 -17 -3 -36
-8 -42 -11 -6 -4 -45 -16 -88 -27 -43 -11 -84 -22 -91 -24 -7 -2 -14 -5 -17
-5 -3 0 -23 -7 -45 -15 -43 -15 -55 -8 -45 26 4 12 8 31 10 42 2 24 15 99 21
132 3 11 7 36 10 55 2 19 7 46 10 60 10 56 16 86 19 105 6 38 16 100 21 125 7
39 13 72 18 105 4 29 32 191 40 230 6 34 16 98 21 132 2 18 6 40 9 50 3 10 7
36 10 58 4 22 10 63 16 90 5 28 12 68 15 90 3 22 8 48 11 58 5 16 -51 17
-1089 17 l-1095 0 -11 -47z m2153 -2872 c89 -35 129 -87 152 -195 10 -47 5
-197 -10 -271 -2 -11 -6 -41 -10 -66 -4 -25 -9 -57 -11 -70 -2 -13 -6 -40 -9
-59 -3 -19 -8 -46 -11 -60 -5 -25 -8 -43 -25 -140 -5 -30 -12 -68 -15 -85 -3
-16 -7 -43 -10 -60 -3 -16 -10 -55 -16 -85 -6 -30 -12 -66 -15 -80 -2 -14 -9
-47 -14 -75 -6 -27 -12 -61 -14 -75 -3 -14 -5 -25 -6 -25 -1 0 -3 -9 -4 -20
-4 -29 -19 -117 -23 -135 -2 -8 -5 -26 -8 -40 -2 -14 -9 -50 -15 -80 -6 -30
-14 -66 -16 -80 -16 -80 -86 -183 -166 -244 -158 -120 -466 -81 -538 69 -24
51 -32 148 -18 223 4 26 11 61 14 77 2 17 9 57 15 90 6 33 12 69 14 80 1 11 5
34 8 50 4 17 9 46 12 65 11 67 30 173 40 222 4 15 8 42 10 60 3 18 8 47 12 63
4 17 7 37 8 45 1 8 4 29 8 45 4 17 9 46 12 65 3 19 13 80 24 135 19 98 23 120
36 200 35 208 70 300 143 372 49 48 67 60 133 86 56 23 76 26 159 23 71 -2
110 -8 154 -25z"/>
<path d="M8927 8134 c-1 -1 -45 -5 -97 -8 -52 -3 -113 -8 -135 -11 -22 -3 -60
-8 -85 -10 -25 -2 -45 -4 -45 -5 0 -1 -18 -3 -40 -5 -90 -9 -122 -14 -165 -23
-25 -6 -67 -13 -95 -17 -84 -12 -90 -13 -92 -15 -2 -2 -6 -3 -10 -4 -10 -2
-71 -15 -100 -20 -110 -22 -334 -92 -473 -147 -87 -35 -286 -134 -324 -162 -6
-4 -42 -28 -81 -54 -38 -25 -78 -54 -88 -65 -10 -10 -21 -18 -25 -18 -4 0 -53
-44 -108 -97 -92 -91 -131 -133 -177 -194 -9 -13 -28 -37 -41 -54 -29 -38
-126 -199 -126 -211 0 -5 -9 -20 -20 -34 -11 -14 -20 -33 -20 -42 0 -10 -5
-18 -12 -18 -6 0 -8 -3 -5 -6 3 -4 1 -16 -5 -28 -7 -11 -13 -23 -13 -26 -1 -3
-11 -25 -22 -50 -59 -131 -142 -425 -178 -628 -15 -88 -18 -109 -19 -124 0
-10 -4 -18 -9 -18 -4 0 -6 -3 -4 -8 3 -4 -5 -61 -18 -127 -13 -66 -26 -136
-29 -155 -3 -19 -13 -71 -21 -115 -9 -44 -18 -93 -21 -110 -2 -16 -6 -41 -10
-55 -3 -14 -7 -38 -9 -55 -2 -16 -6 -43 -9 -60 -4 -16 -13 -68 -22 -115 -35
-196 -44 -247 -50 -275 -3 -16 -7 -43 -9 -60 -2 -16 -11 -68 -20 -115 -8 -47
-18 -102 -21 -123 -7 -48 -12 -72 -14 -72 -1 0 -3 -13 -5 -30 -1 -16 -6 -46
-10 -65 -3 -19 -8 -46 -10 -60 -2 -14 -13 -76 -24 -138 -11 -62 -20 -116 -20
-120 1 -4 0 -9 -1 -12 -4 -12 -26 -131 -35 -195 -5 -34 -13 -78 -19 -115 -3
-14 -21 -119 -41 -235 -20 -115 -38 -219 -40 -230 -1 -11 -6 -36 -9 -55 -3
-19 -8 -46 -10 -60 -4 -26 -16 -91 -23 -125 -2 -11 -6 -38 -9 -60 -3 -22 -9
-60 -14 -85 -8 -39 -18 -96 -26 -150 -2 -18 -14 -86 -20 -120 -7 -41 -14 -82
-23 -137 l-8 -53 1092 0 1092 0 12 54 c6 29 14 66 16 82 8 46 21 120 30 172 3
15 8 43 11 62 3 19 7 42 9 50 3 8 7 33 10 55 4 22 9 54 12 70 5 29 10 59 17
100 2 11 6 34 9 50 4 17 9 45 12 63 12 78 16 98 21 115 3 10 7 32 9 50 6 45
16 102 35 202 5 28 12 67 14 87 2 20 7 45 10 55 2 10 7 34 10 53 3 19 10 60
16 90 6 30 13 71 16 90 3 19 9 58 14 85 5 28 12 66 15 85 7 47 17 100 22 125
12 63 24 127 28 152 2 15 9 53 14 83 10 52 13 70 26 153 3 17 9 55 15 82 5 28
12 66 15 85 3 19 8 49 12 65 3 17 7 37 8 45 2 8 5 29 8 45 3 17 9 50 13 75 4
25 8 47 9 50 0 3 4 27 9 53 4 27 9 59 12 70 4 22 10 53 19 112 3 17 9 53 15
80 13 71 19 103 30 160 5 28 12 61 15 75 3 14 7 39 10 55 6 35 19 95 25 113 1
4 3 12 4 17 7 39 52 166 69 195 69 113 201 171 376 165 49 -2 94 -6 100 -10 6
-3 19 -8 29 -10 68 -13 143 -69 166 -125 23 -58 9 -225 -40 -480 -3 -14 -7
-34 -9 -45 -2 -11 -6 -36 -9 -55 -3 -19 -12 -74 -21 -123 -8 -48 -18 -104 -21
-125 -3 -20 -7 -43 -10 -51 -2 -7 -7 -34 -10 -59 -3 -25 -7 -49 -9 -52 -2 -4
-7 -29 -10 -56 -4 -27 -8 -56 -10 -64 -3 -8 -7 -32 -11 -54 -3 -21 -8 -48 -10
-60 -2 -11 -7 -37 -10 -56 -7 -46 -13 -80 -18 -105 -2 -11 -7 -40 -12 -65 -4
-25 -8 -47 -9 -50 0 -3 -4 -27 -9 -53 -4 -27 -10 -59 -12 -70 -7 -32 -17 -100
-17 -114 0 -7 -3 -13 -6 -13 -3 0 -6 -10 -7 -22 -2 -34 -13 -107 -24 -163 -11
-49 -13 -62 -25 -135 -11 -62 -25 -144 -30 -170 -3 -14 -7 -41 -10 -60 -5 -33
-8 -54 -20 -110 -3 -14 -7 -41 -10 -60 -3 -19 -7 -46 -10 -60 -6 -31 -23 -124
-30 -170 -3 -19 -8 -42 -10 -50 -2 -8 -6 -31 -9 -50 -2 -19 -9 -62 -15 -95 -6
-33 -13 -69 -15 -80 -2 -11 -7 -42 -11 -70 -5 -27 -9 -52 -10 -55 -4 -15 -18
-98 -21 -124 -2 -17 -6 -42 -9 -56 -3 -14 -7 -38 -10 -55 -3 -16 -8 -41 -10
-55 -3 -14 -7 -38 -10 -55 -5 -36 -13 -82 -20 -112 l-5 -23 1094 0 1094 0 5
22 c21 95 47 220 52 253 4 22 8 51 11 65 3 14 7 39 10 55 19 103 54 293 57
310 3 11 8 40 12 65 8 51 12 74 20 110 2 14 7 41 10 60 3 19 8 42 10 50 3 8 7
31 9 50 3 19 12 73 21 120 9 47 18 105 21 130 3 25 9 52 13 60 4 8 8 30 10 49
1 18 6 41 11 51 5 9 7 20 4 22 -2 3 2 37 11 77 8 40 17 86 20 104 2 18 7 46
10 62 3 17 7 41 9 55 3 14 6 27 7 30 1 3 3 10 4 15 11 71 17 111 21 128 6 29
13 70 19 110 3 17 10 55 15 82 11 56 18 94 26 144 3 18 8 43 10 55 3 11 7 36
9 54 2 18 6 41 9 50 3 9 7 31 10 47 8 45 15 87 21 115 3 14 8 39 11 55 3 17
14 75 25 130 11 55 22 116 25 135 3 19 10 42 15 51 4 9 6 19 3 22 -3 3 -1 22
5 43 6 22 13 55 16 74 3 19 8 43 11 53 3 11 7 29 9 40 2 12 10 67 19 122 10
55 19 114 22 130 2 17 6 41 9 55 34 192 23 639 -19 760 -3 8 -7 29 -10 45 -16
102 -99 295 -181 421 -70 108 -75 114 -191 229 -107 107 -139 135 -153 135 -5
0 -11 4 -13 8 -4 12 -125 92 -137 92 -6 0 -11 4 -11 9 0 5 -8 11 -17 14 -10 3
-29 12 -43 21 -14 8 -56 29 -95 47 -38 18 -81 38 -95 44 -32 16 -212 77 -309
105 -74 22 -94 27 -141 36 -14 2 -32 7 -40 10 -13 5 -75 17 -145 29 -22 4 -66
12 -105 20 -14 3 -46 7 -71 10 -25 3 -54 7 -65 9 -11 2 -49 7 -84 10 -36 3
-96 9 -135 12 -64 6 -503 12 -508 8z"/>
</g>
</svg>
