<?xml version="1.0" encoding="UTF-8"?>
<svg width="21px" height="21px" viewBox="0 0 21 21" version="1.1" xmlns="http://www.w3.org/2000/svg" xmlns:xlink="http://www.w3.org/1999/xlink">
    <!-- Generator: Sketch 53.2 (72643) - https://sketchapp.com -->
    <title>icon</title>
    <desc>Created with Sketch.</desc>
    <g id="pages" stroke="none" stroke-width="1" fill="none" fill-rule="evenodd">
        <g id="03-m_01-01-index-research" transform="translate(-311.000000, -53.000000)" fill-rule="nonzero">
            <g id="hero">
                <g id="header" transform="translate(32.000000, 44.000000)">
                    <g id="btn" transform="translate(272.000000, 2.000000)">
                        <g id="icon" transform="translate(6.978066, 6.026980)">
                            <path d="M5.02193426,13.5088741 C5.02193426,14.0043009 5.21305144,14.470045 5.5606477,14.8201181 C5.5606477,14.8201181 9.46320577,18.9093025 9.46442114,18.9105265 C10.78553,20.2404371 12.4393469,20.9730201 14.1211173,20.9730201 C17.7885009,20.9730201 20.7719343,17.968022 20.7719343,14.2742 L20.7719343,7.8875079 C20.7719343,6.86513532 19.9463931,6.03309968 18.9315579,6.03309968 C18.6675184,6.03309968 18.4165442,6.09062918 18.1892697,6.19191781 L18.1892697,6.05084814 C18.1892697,5.02878157 17.3637286,4.19705195 16.3488933,4.19705195 C16.0629772,4.19705195 15.7928608,4.26498571 15.5513057,4.38249277 C15.3525925,3.57432575 14.6291426,2.97302012 13.7662288,2.97302012 C12.8048699,2.97302012 12.0148784,3.71906752 11.9337523,4.66585613 C11.7040471,4.56181343 11.4506421,4.5030599 11.1835642,4.5030599 C10.1681213,4.5030599 9.34258014,5.33509553 9.34258014,6.35746812 L9.34258014,12.6514398 L8.04182873,11.9252829 C7.08745822,11.4555607 6.19264091,11.5608274 5.5606477,12.197936 C5.21305144,12.5483151 5.02193426,13.0137532 5.02193426,13.5088741 Z" id="Shape" fill="#FFFFFF" opacity="0.200000003" transform="translate(12.896934, 11.973020) scale(-1, 1) rotate(40.000000) translate(-12.896934, -11.973020) "></path>
                            <path d="M6.23770993,12.8735675 C6.60262524,12.506052 7.08998923,12.6309032 7.43454707,12.7995136 L10.81723,14.6894187 C11.0837002,14.8381386 11.4173197,14.7408281 11.5637719,14.4736831 C11.7108319,14.2065382 11.6154252,13.8699294 11.3501704,13.7218216 L10.341412,13.158767 L10.341412,6.25063734 C10.341412,5.83813861 10.6744238,5.5030599 11.0837002,5.5030599 C11.4926727,5.5030599 11.8253807,5.83844462 11.8253807,6.25063734 L11.8253807,12.4252659 C11.8253807,12.7306618 12.0717972,12.9788343 12.3750324,12.9788343 C12.6782677,12.9788343 12.9240765,12.7306618 12.9240765,12.4252659 L12.9240765,4.71998554 C12.9240765,4.30809883 13.2567845,3.97302012 13.6663647,3.97302012 C14.0753373,3.97302012 14.4080452,4.30840484 14.4080452,4.71998554 L14.4080452,12.4252659 C14.4080452,12.7306618 14.6544618,12.9788343 14.957697,12.9788343 C15.2609322,12.9788343 15.5067411,12.7306618 15.5067411,12.4252659 L15.5067411,5.94401737 C15.5067411,5.53213066 15.8397529,5.19705195 16.2490293,5.19705195 C16.6580018,5.19705195 16.9907098,5.53243667 16.9907098,5.94401737 L16.9907098,12.4252659 C16.9907098,12.7306618 17.2365187,12.9788343 17.5403616,12.9788343 C17.8435968,12.9788343 18.0894057,12.7306618 18.0894057,12.4252659 L18.0894057,7.78067712 C18.0894057,7.36817839 18.4224175,7.03309968 18.8316938,7.03309968 C19.2406664,7.03309968 19.5733743,7.3684844 19.5733743,7.78067712 L19.5733743,14.1676752 C19.5733743,17.2510113 17.0827742,19.7599706 14.0212532,19.7599706 C12.6339066,19.7599706 11.2568906,19.1430585 10.1436103,18.0236814 L6.245306,13.9384752 C5.94875534,13.6391994 5.94875534,13.1645811 6.23770993,12.8735675 Z" id="Path" fill="#FFFFFF" transform="translate(12.797654, 11.866495) scale(-1, 1) rotate(40.000000) translate(-12.797654, -11.866495) "></path>
                            <path d="M1.25432535,14.3301011 C1.18232167,13.8848091 1.84254455,13.8995224 1.91330287,14.336596 C2.01991649,15.186202 2.55831217,15.9618965 3.30337984,16.3393517 C3.69039609,16.5628882 3.39263679,17.1474851 3.01361994,16.9369013 C2.06480625,16.4258984 1.38743868,15.4222223 1.25432535,14.3301011 Z M2.34191002,17.9744913 C1.05635251,17.4681896 -0.132903239,16.0138763 0.0035681931,14.554128 C0.0434378853,14.1101268 0.69076175,14.3086178 0.651646546,14.7476387 C0.555762935,15.8079622 1.5517878,16.9431912 2.4662915,17.3014185 C2.87262446,17.4632039 2.75575151,18.1360307 2.34191002,17.9744913 Z M12.087124,1.94968813 C13.1548823,2.21490535 14.0685268,3.00954127 14.4600895,4.01355824 C14.6229131,4.41541366 14.006386,4.63970908 13.8316811,4.22833534 C13.5478403,3.44282107 12.8435416,2.81390513 12.0132614,2.60454527 C11.5880689,2.48104849 11.6539261,1.82395371 12.087124,1.94968813 Z M16.0069886,3.7464234 C16.1168893,4.17686688 15.4348344,4.21087172 15.3237745,3.78785082 C15.0796673,2.83650676 14.074285,1.70955651 13.0101798,1.67550449 C12.5696642,1.66082494 12.4515417,0.994136158 12.8970923,1.00867379 C14.3625916,1.05111816 15.6611308,2.40874558 16.0069886,3.7464234 Z" id="Combined-Shape" fill="#7A3DD9"></path>
                        </g>
                    </g>
                </g>
            </g>
        </g>
    </g>
</svg>