<svg width="22" height="21" xmlns="http://www.w3.org/2000/svg"><g fill-rule="nonzero" fill="none"><path d="M21.462 8.462c.247.429.315.928.189 1.405l-1.336 5.494c-.48 1.812-1.545 3.274-3.002 4.115-3.176 1.833-7.262.723-9.109-2.476l-3.193-5.531a1.85 1.85 0 0 1 .667-2.526 1.82 1.82 0 0 1 .722-.234l-.07-.122a1.85 1.85 0 0 1 .666-2.526c.248-.143.516-.22.784-.238-.232-.8.094-1.682.84-2.113.833-.48 1.89-.23 2.434.55.147-.205.337-.383.568-.517a1.85 1.85 0 0 1 2.522.686l3.147 5.45.763-1.279c.592-.884 1.42-1.24 2.286-1.004.476.13.874.437 1.122.866z" fill="#7A3DD9"/><path d="M19.979 8.54c-.5-.136-.86.215-1.074.534l-1.984 3.328a.546.546 0 0 1-.754.186.555.555 0 0 1-.191-.758l.592-.992-3.454-5.982a.746.746 0 0 0-1.017-.277.745.745 0 0 0-.269 1.019l3.088 5.347a.552.552 0 0 1-.2.754.552.552 0 0 1-.752-.205l-3.852-6.673a.745.745 0 0 0-1.017-.275.745.745 0 0 0-.269 1.017l3.853 6.673a.552.552 0 0 1-.2.755.552.552 0 0 1-.751-.205L8.487 7.173a.745.745 0 0 0-1.016-.276.745.745 0 0 0-.27 1.018l3.241 5.613a.552.552 0 0 1-.199.754.552.552 0 0 1-.752-.205l-2.322-4.022a.746.746 0 0 0-1.017-.277.745.745 0 0 0-.268 1.019l3.193 5.53c1.542 2.671 4.953 3.599 7.604 2.068 1.202-.694 2.086-1.917 2.49-3.443l1.334-5.487a.755.755 0 0 0-.526-.926z" fill="#F1E5FF"/><path d="M1.999 11.369c.006-.451.654-.322.647.12-.042.856.353 1.713 1.022 2.214.342.288-.053.812-.39.539-.845-.668-1.338-1.774-1.28-2.873zm.438 3.778C1.259 14.425.34 12.787.728 11.372c.116-.43.72-.122.605.303-.279 1.028.505 2.319 1.343 2.83.372.23.14.873-.24.642zm12.38-14.09c1.005.447 1.767 1.388 1.978 2.445.09.424-.555.538-.656.103-.143-.823-.727-1.565-1.509-1.915-.397-.196-.218-.831.187-.632zm3.548 2.45c.033.444-.644.359-.68-.077-.075-.98-.87-2.264-1.912-2.482-.43-.091-.432-.768.005-.676 1.436.296 2.479 1.858 2.587 3.236z" fill="#7A3DD9"/></g></svg>