<svg width="449" height="348" xmlns="http://www.w3.org/2000/svg"><g fill="none" fill-rule="evenodd"><path fill="#8C88EF" d="M0 346.977h449v-264H0z"/><path d="M82.793 94.373S91 62.972 77.967 49.446c0 0-13.514 5.314 4.826 44.927M179.163 168.768l21.908 11.041 9.68-39.008 4.8-27.988-15.052-7.439-3.739-2.707s-20.145 13.867-24.265 30.262c-1.77 7.046 2.947 14.224 10.142 15.18 1.096.147 2.272.21 3.522.16l-6.996 20.499z" fill="#1C0C48"/><path d="M179.163 168.768l-55.988-27.53-12.457-46.013c-3.353-12.388-13.314-22.069-25.904-24.504-4.444-.86-9.322-1.008-14.408.142 0 0-5.149 7.084 21.236 13.526 0 0-9.573 54.025 11.584 80.514l54.763 52.414 21.174-48.549z" fill="#1C0C48"/><path d="M179.163 168.768s-32.176 6.229-18.019 67.525L136.69 319.49l56.4 27.487h91.571l-42.43-127.969-26.678-50.24h-36.389z" fill="#4DB2F7"/><path d="M238.709 83.238s13.324 22.865 50.569 22.417c0 0 45.652-4.904 63.913 20.314 0 0 7.647 9.323 11.047 19.4 3.365 9.976 9.417 18.875 17.9 25.135 9.884 7.295 24.063 13.893 41.99 12.207 0 0 18.963-2.101 24.58-9.807V82.977h-210v.261z" fill="#210754"/><path d="M338.623 89.584c20.93 22.86 38.03 18.443 46.972 13.114 5.337-3.18 8.707-9.122 8.027-15.322-.191-1.738-.655-3.189-1.303-4.4h-59.61c3.204 3.898 5.914 6.608 5.914 6.608" fill="#F3427C"/><path d="M56.706 211.208c4.202.818 8.3 1.86 13.202-3.178 0 0 3.07-3.88 7.396-1.996 0 0 5.906 2.08 7.702-3.022.97-2.755-.041-5.792-2.17-7.789-3.47-3.256-9.502-5.587-21.937.899 0 0-11.058 4.814-8.52 11.651.68 1.833 2.409 3.063 4.327 3.435" fill="#B4B1FF"/><path d="M73.17 34.47S66.589 17.894 80.9 6.76c2.867-2.23 6.2-3.767 9.687-4.776 7.324-2.12 20.822-4.09 30.657 5.756 0 0 16.648 14.363 33.677 2.394 3.145-2.212 6.405-4.251 9.949-5.739 13.037-5.472 39.47-10.584 50.682 15.582 0 0 15.818 39.855-40.056 43.059-3.717.213-7.422.865-10.88 2.246-1.051.42-2.081.904-2.989 1.451a27.39 27.39 0 0 1-15.12 3.901c-9.998-.357-23.637-3.004-30.47-13.82-4.43-7.016-10.81-12.709-18.737-15.143-4.626-1.422-9.191-1.746-11.958.85l-12.171-8.05z" fill="#7824D7"/><path d="M77.967 49.446s-8.015-1.052-6.524-9.73c.457-2.664 2.068-5.006 4.365-6.426 2.21-1.366 5.27-4.207 6.986-9.93 0 0-.49 8.38 1.711 12.021.675 1.117 1.288 2.273 1.526 3.556.672 3.613.558 9.882-8.064 10.509" fill="#1C0C48"/><path d="M349 248.716c-8.379-9.8-34.335-23.03-34.335-23.03-22.154-6.284-22.24-18.404-32.289-31.118-7.03-8.893-27.194-17.012-27.194-17.012s-29.794-11.738-22.621-32.1c7.172-20.36-3.378-31.261-3.378-31.261-19.719-20.241-32.465-11.302-32.465-11.302-7.805 7.793-.988 18.518 1.635 22.032a3.06 3.06 0 0 0 2.338 1.22 9.612 9.612 0 0 1 4.509 1.324 5.57 5.57 0 0 1 2.716 4.407 6.092 6.092 0 0 1-1.869 4.84l-.61.583a12.695 12.695 0 0 0-3.89 10.086l.36 4.928a19.495 19.495 0 0 1-1.565 9.175l-1.522 3.507c-.896 2.064-1.484 4.27-1.534 6.514-.307 13.83 14.46 21.969 14.46 21.969 7.36 3.638 10.223 11.866 11.323 18.274 1.772 10.322 5.797 23.414 13.108 30.789 9.62 9.705 4.912 22.777 3.315 40.487-1.46 16.173 4.333 31.844 15.054 43.796 5.564 6.203 7.26 12.304 8.351 15.475.189.547 12.773 4.334 12.983 4.872l73.12-.04c17.627-13.113 26.671-23.944 27.134-32.494 1.86-34.417-23.065-61.161-27.134-65.92z" fill="#F3427C"/><path d="M417.197 86.43c-2.208 8.103-1.27 16.703 2.061 24.426 6.088 14.12 16.554 46.313 9.812 89.836 0 0-2.213 23.754-6.57 36.742-2.336 6.965 4.006 14.095 11.223 12.28 5.401-1.36 11.124-6.447 15.277-19.512V83h-30.649a31.788 31.788 0 0 0-1.154 3.43" fill="#73C0FF"/><path d="M275.662 346.906s-11.455-19.71-43.472-19.323c0 0-39.245 4.227-54.944-17.511 0 0-6.574-8.036-9.497-16.721-2.892-8.599-8.095-16.27-15.387-21.666-8.498-6.288-20.687-11.976-36.097-10.522 0 0-16.302 1.811-21.133 8.453v77.515h180.53v-.225z" fill="#210754"/><path d="M.066 328.122c4.032-.358 7.167-.523 9.406-.496 0 0 39.245 4.227 54.944-17.51 0 0 6.574-8.036 9.496-16.722 2.893-8.599 8.096-16.27 15.388-21.666 8.497-6.288 20.686-11.976 36.097-10.522 0 0 16.302 1.811 21.132 8.454v77.514H.007l.059-19.052z" fill="#210754"/><path d="M374.392 248.57s-16.693-8.67-8.522-20.95c0 0 2.41-6.596-3.082-10.435 0 0-7.106-5.769-1.853-11.827 2.517-2.901 6.553-3.953 10.281-3.036 6.524 1.604 16.448 7.327 15.749 27.362 0 0 .607 26.691-12.573 18.886" fill="#73C0FF"/></g></svg>