<svg width="451" height="244" xmlns="http://www.w3.org/2000/svg"><g fill="none" fill-rule="evenodd"><path fill="#DEE7FF" d="M1 244h450V26H1z"/><path d="M154.73 66.74l-14.36 29.431 40.923 2.986-2.73-7.8 2.159-18.485 7.492-.304a5.452 5.452 0 0 0 5.154-4.476c1.018-5.673 1.449-16.553-5.335-30.298L167 35.101l-3.868 13.306-8.401 18.334z" fill="#F3427C"/><path d="M144.996 57.768a19.215 19.215 0 0 0 7.64 9.382c5.173 3.281 13.405 6.251 20.932-.801 0 0 6.31-3.72 3.662-10.853 0 0-5.034-8.731-.882-10.788 0 0 4.15-2.056 8.04 2.971 0 0 4.16-3.21 6.26-9.337.878-2.565.3-5.4-1.49-7.438-5.331-6.069-18.69-17.831-34.825-6.482 0 0-17.401 12.198-9.337 33.346M141.9 29.402c0 .718-3.876 1.204-6.625-5.188 0 0-6.316-14.188-20.271-8.11 0 0-14.597 7.734-21.822-.877 0 0-20.882-27.323-48.918-8.769 0 0-27.523 17-10.962 40.47 4.018 5.693 9.53 10.197 15.888 13.065 11.386 5.136 32.19 9.357 53.09-12.74 3.23-3.416 6.976-6.308 11.162-8.454 4.823-2.473 9.657-5.314 15.309-3.094.899.353 1.729.86 2.505 1.434 1.28.946 5.152 4.722 7.934 3.179l2.71-10.916z" fill="#1C0C48"/><path fill="#73C0FF" d="M147.442 31.721l-6.494-2.319-3.37 11.273 5.562 1.267z"/><path d="M87.28 108.972c-9.068 7.358-15.325 13.064-18.77 17.116-8.497 9.997-33.702 43.207-33.702 45.084 0 15.661 9.072 39.473 27.217 71.435l92.605-.61 12.35-44.395c20.519-4.638 23.81-36.444 23.81-36.444l13.983 13.915 19.216-31.804c-27.319-48.429-65.27-53.895-65.27-53.895-38.514-5.947-62.744 11.51-71.44 19.598z" fill="#400564"/><path d="M203.518 242.812s-12.852-22.054-48.776-21.622c-35.924.433-44.034 14.375-61.647-9.949 0 0-7.376-8.992-10.655-18.711-3.245-9.622-9.083-18.206-17.265-24.244-9.534-7.037-23.21-13.401-40.5-11.774 0 0-18.292 2.026-23.71 9.46v77.092h202.553v-.252z" fill="#210754"/><path d="M252.568 37.286c3.247.63 6.414 1.435 10.201-2.452 0 0 2.372-2.994 5.716-1.541 0 0 4.563 1.605 5.952-2.332.748-2.125-.032-4.469-1.677-6.01-2.682-2.512-7.343-4.31-16.952.694 0 0-8.544 3.714-6.584 8.99.526 1.415 1.862 2.364 3.344 2.651" fill="#B4B1FF"/><path d="M223.742 142.8l17.135 20.188s12.088-69.547.119-89.966l14.816-5.367s43.539 75.61 13.928 133.727c-3.634 7.133-12.013 10.52-19.597 7.932-10.645-3.635-26.968-17.077-45.685-34.64l19.284-31.874z" fill="#F3427C"/><path d="M209.722 31.58l65.463-27.666s14.588 14.962 11.04 35.829L219.02 56.318l-9.298-24.739z" fill="#8242CC"/><path d="M222.354 35.178l65.463-27.13s14.588 14.961 11.04 35.829L231.653 60.45l-9.299-25.273z" fill="#A05BE2"/><path d="M222.288 49.544c2.568 6.98 6.76 11.863 9.365 10.908 2.604-.956 2.634-7.388.066-14.367-2.568-6.98-6.76-11.862-9.365-10.907-2.603.955-2.633 7.387-.066 14.366M209.474 46.001c2.567 6.979 6.76 11.862 9.364 10.907 2.605-.955 2.634-7.388.067-14.367-2.568-6.979-6.76-11.862-9.365-10.907-2.604.956-2.633 7.388-.066 14.367" fill="#400564"/><path d="M220.431 48.056a33.264 33.264 0 0 0-1.52-5.515c-1.257-3.418-2.905-6.328-4.565-8.3l-6.748 3.233v.001l-11.22 5.376 2.881 10.662 12.43-2.687-.001-.001 8.24-1.782.503-.987z" fill="#A05BE2"/><path d="M194.384 49.198c1.1 2.985 3.356 4.903 5.041 4.285 1.686-.618 2.162-3.54 1.064-6.524-1.098-2.985-3.355-4.904-5.04-4.286-1.686.619-2.163 3.54-1.065 6.525" fill="#400564"/><path d="M221.069 44.882a33.867 33.867 0 0 0 1.355 4.663 33.93 33.93 0 0 0 2.072 4.579l8.977-1.971c-.301-1.881-.838-3.948-1.618-6.069-1.3-3.533-3.017-6.526-4.734-8.5l-6.587 3.157v.008l-11.396 5.46 2.882 10.662 12.478-2.74a33.939 33.939 0 0 1-2.072-4.58 33.794 33.794 0 0 1-1.357-4.67" fill="#AF78EF"/><path d="M207.316 52.378c1.098 2.985 3.355 4.903 5.04 4.285 1.685-.618 2.162-3.54 1.064-6.524-1.098-2.986-3.355-4.904-5.04-4.286-1.686.619-2.163 3.54-1.064 6.525" fill="#400564"/><path d="M232.794 59.973s5.58-.972 5.327-4.828c0 0-.208-6.025-3.222-11.348-1.192-2.103-.015-4.77 2.316-5.422l6.397-1.79s8.488 5.593 8.751 21.224l3.45 9.845-14.817 5.368-8.202-13.049z" fill="#F3427C"/></g></svg>