<svg width="453" height="373" xmlns="http://www.w3.org/2000/svg" xmlns:xlink="http://www.w3.org/1999/xlink"><defs><path id="a" d="M38.911 291.21l398.26-70.3L398.261 0 0 70.3z"/></defs><g fill="none" fill-rule="evenodd"><path stroke="#8448C5" stroke-width=".9" d="M24.413 229.193L232.18 192.46 208.765 59.32 1 96.053z"/><g transform="translate(27.986 81.79)"><mask id="b" fill="#fff"><use xlink:href="#a"/></mask><use fill="#210754" xlink:href="#a"/><path d="M93.798 193.914s-12.163 67.947-7.117 89.206l89.877-15.862 10.23-14.673 11.982 10.752 75.586-13.342s-4.888-31.655-.596-46.8l-99.947-31.525-80.015 22.244z" fill="#F3427C" mask="url(#b)"/></g><path fill="#A979F3" d="M106.05 188.664l352.101 76.511 40.993-188.633L147.041.03z"/><path fill="#46078D" d="M363.315 72.088l93.63 20.519 3.52-11.685-93.631-20.518z"/><path stroke="#46078D" stroke-width="1.12" d="M344.425 167.35l90.595 19.63 18.248-83.732-90.594-19.63zM227.487 54.857l-66.566-15.28M223.888 72.833l-66.565-15.28"/><path d="M286.33 80.922s4.355 26.303-12.01 35.833c-5.18 3.016-11.486 3.446-17.192 1.594l-1.57-.51-5.08 18.809-31.987-7.315 23.53-24.23 11.065-3.668s-2.622-9.902 3.045-12.191c0 0 4.643-2.571 6.138 2.809 0 0 17.723 2.07 24.061-11.13" fill="#F3427C"/><path d="M285.956 81.173s-13.217-23.668-40.068-6.721c-7.263 4.584-12.457 12.028-13.64 20.585-.718 5.192-.12 11.225 3.627 17.244 0 0 13.983 1.85 17.014-10.435 0 0-2.542-10.208 3.028-12.286 0 0 4.243-2.278 6.107 2.83 0 0 17.3 2.689 23.932-11.217" fill="#000"/><path d="M136.282 34.808l11.966-7.798s.965-4.596-3.804-1.183c0 0-4.146.601-1.918-3.005 0 0 3.673-6.075 2.299-8.23 0 0-1.652-2.587-15.387 11.859 0 0 3.644 10.443 6.844 8.357" fill="#F3427C"/><path d="M136.19 34.494l-7.197-7.5S63.803 78.473 97.96 131.672c0 0 25.536 33.894 56.391 38.873 0 0-33.541 68.372-32.358 104.601 0 0 122.488 33.092 180.188 9.27l18.485-65.072s72.246 59.278 139.8 10.715l-3.9-22.088s-59.47 27.198-113.775-25.706c0 0-22.116-45.288-73.354-53.133 0 0-25.64-6.815-57.793-3.161 0 0-52.568 8.604-81.04-23.471 0 0-22.485-35.083 5.587-68.005" fill="#4DB2F7"/><path d="M372.31 94.404l53.073 79.993M358.818 160.915l80.058-53.029" stroke="#46078D" stroke-width="1.12"/><path d="M154.434 170.8l9.186-13.273s-25.563 4.033-39.003-.146c-13.44-4.182 0 0 0 0s16.304 13.603 29.817 13.419M320.138 219.455s-17.613-15.99-20.69-31.576l15.059 51.231 5.631-19.655z" fill="#2A9BDB"/></g></svg>