<svg width="496" height="310" xmlns="http://www.w3.org/2000/svg"><g fill="none" fill-rule="evenodd"><path fill="#7824D7" d="M45.5 310h449V46h-449z"/><path fill="#FFF" d="M471.675 290.2l-188.822-32.14 17.18-100.86 188.82 32.138z"/><path fill="#A05BE2" d="M27.966 177L260 125.866 232.036 0 0 51.134z"/><path d="M206 262.5c0 13.53 10.97 24.5 24.5 24.5s24.5-10.97 24.5-24.5-10.97-24.5-24.5-24.5-24.5 10.97-24.5 24.5" fill="#73C0FF"/><path d="M158.401 204.588c.663.993 15.893 16.89 3.973 24.84H158.4v14.902h-18.54v-16.89l3.973-22.852h14.567z" fill="#F3427C"/><path d="M147.807 218.994s-2.256-.605-2.17-2.925c.058-1.592 1.17-2.476 2.751-2.676.634-.08 1.35.012 2.067.468 0 0 12.416-5.878 8.958-16.938l-.816-1.888s-16.917-3.657-25.113 16.435c-1.656 4.057-1.57 8.578.29 12.546 1.267 2.7 2.915 5.485 6.802 6.48 5.713 1.459 10.79-4.068 8.403-9.46a11.965 11.965 0 0 0-1.172-2.042" fill="#000"/><path d="M130.145 140.573s1.107-12.16 7.399-12.16c0 0 2.979 1.562 1.986 6.08 0 0 1.158-2.768 2.648-1.775 0 0 .828 7.122-5.131 11.26l-6.902-3.405zM230.34 122.113s1.396-12.13-4.762-13.413c0 0-3.235.92-3.185 5.547 0 0-.569-2.947-2.23-2.278 0 0-2.263 6.802 2.727 12.07l7.45-1.926z" fill="#F3427C"/><path d="M120.327 240.025h65.554l19.476-31.391a61.09 61.09 0 0 0 8.937-26.776l5.357-60.069h11.919s29.465 114.924-40.723 187.787H84.074l5.96-19.871s-4.217-26.662-4.818-52.895a110.795 110.795 0 0 1 12.546-53.781c8.12-15.566 19.558-35.218 29.247-43.355l13.858 3.974-20.83 46.171a50.799 50.799 0 0 0-3.544 30.668l3.834 19.538z" fill="#000"/><path d="M459.112 222.06s-4.277 7.77-9.025 10.62c-2.16 1.297-5.065.915-6.714-.99-1.197-1.383-1.776-3.536.696-6.613l2.897-2.318s-.599-1.199-3.835.955c0 0-1.529.823-2.398.62-.693-.164-2.09-.644.899-2.708l9.549-6.744 7.455 6.055.476 1.124zM326.738 166.988s-4.983 5.862-5.859 10.99c-.518 3.03 1.622 6.025 4.659 6.492 1.71.263 3.636-.298 4.98-3.218l.945-3.59s1.338.063.68 3.895c0 0-.451 1.825-.214 2.371.327.755 2.074 1.619 2.73-1.844l2.12-10.716-8.376-5.117-1.665.737z" fill="#F3427C"/><path d="M495.01 46.04h-69.323c-8.008 6.157-71.992 56.646-101.137 119.92l15.23 7.285s32.821-54.289 94.026-90.747l27.149 12.585 16.953 28.832a33.92 33.92 0 0 1 .832 32.883l-29.705 56.92 11.92 9.868s18.243-14.634 34.055-37.507V46.04z" fill="#1E0950"/><path d="M432.806 82.498s-4.635 19.21 7.946 18.547c0 0 12.001.017 19.202-5.961V76.537l-27.148 5.961z" fill="#F3427C"/><path d="M454.333 53.022c-.166 11.682-16.555 15.897-16.555 15.897-6.031 1.132-7.878 6.128-8.349 10.22-.442 3.831 1.942 7.57 5.688 8.475 8.425 2.035 15.574-5.116 15.574-5.116.442.272.882.52 1.32.745 5.789 2.978 12.772 1.897 17.96-2.035 4.782-3.624 13.497-7.984 13.497-7.984 2.753-1.204 7.556-1.244 11.542-1.006V46.04h-41.02c.282 3.282.343 6.982.343 6.982" fill="#73C0FF"/><path d="M305.538 207.624c-8.097-12.028-24.456-15.244-36.538-7.182L298.324 244c12.082-8.062 15.312-24.347 7.214-36.376" fill="#210754"/><path fill="#F3427C" d="M410 291.447h46.561V279H410zM308.338 112.288l-2.079-27.946 14.921-1.054 2.08 27.947z"/><path fill="#A05BE2" d="M311.158 277.346l43.278-19.372 4.488 10.036-43.278 19.37z"/></g></svg>