<svg width="434" height="388" xmlns="http://www.w3.org/2000/svg"><g fill="none" fill-rule="evenodd"><path fill="#DEE7FF" d="M95 388h285V4H95z"/><path d="M202.391 107.715l-22.935 47.068 65.356 4.775-4.358-12.474 3.446-29.564 11.966-.486c4.084-.167 7.51-3.134 8.231-7.157 1.625-9.073 2.313-26.474-8.52-48.456l-33.592-4.307-6.178 21.28-13.416 29.32z" fill="#F3427C"/><path d="M186.845 93.365c2.351 6.176 6.624 11.46 12.202 15.004 8.262 5.248 21.407 9.998 33.43-1.28 0 0 10.075-5.951 5.848-17.357 0 0-8.04-13.965-1.41-17.253 0 0 6.63-3.29 12.841 4.75 0 0 6.644-5.134 9.996-14.932 1.403-4.102.479-8.636-2.38-11.895-8.513-9.706-29.847-28.518-55.615-10.368 0 0-27.79 19.508-14.912 53.331M181.902 48c0 1.147-6.19 1.924-10.581-8.298 0 0-10.087-22.69-32.374-12.969 0 0-23.312 12.368-34.85-1.404 0 0-33.349-43.696-78.123-14.024 0 0-43.954 27.189-17.506 64.722 6.417 9.106 15.22 16.31 25.373 20.895 18.183 8.215 51.407 14.966 84.786-20.374 5.16-5.464 11.14-10.088 17.826-13.52 7.703-3.955 15.422-8.5 24.449-4.949 1.435.565 2.761 1.376 4.001 2.294 2.042 1.513 8.228 7.552 12.67 5.084L181.902 48z" fill="#1C0C48"/><path fill="#73C0FF" d="M190.752 51.708L180.382 48 175 66.027l8.882 2.027z"/><path d="M208.762 143.911c-61.507-9.51-99.876 18.9-113.762 31.835V388h107.232l19.722-71c32.77-7.418 38.025-58.284 38.025-58.284l22.332 22.254L313 230.105c-43.629-77.451-104.238-86.194-104.238-86.194" fill="#400564"/><path d="M312.604 229.357l27.367 32.285s19.303-111.226.188-143.881l23.663-8.584s69.532 120.922 22.243 213.869c-5.804 11.408-19.185 16.826-31.296 12.686-17.001-5.814-43.07-27.312-72.962-55.402l30.797-50.973z" fill="#F3427C"/><path d="M290.215 51.481L394.761 7.237s23.297 23.928 17.63 57.3L305.064 91.045l-14.849-39.564z" fill="#8242CC"/><path d="M310.389 57.237l104.546-43.388s23.297 23.927 17.63 57.3L325.24 97.655l-14.85-40.42z" fill="#A05BE2"/><path d="M310.283 80.213c4.1 11.162 10.797 18.971 14.955 17.444 4.16-1.529 4.207-11.815.107-22.977-4.101-11.162-10.797-18.971-14.956-17.444-4.158 1.529-4.206 11.815-.106 22.977M289.82 74.546c4.099 11.161 10.796 18.971 14.954 17.444 4.16-1.529 4.206-11.815.106-22.977-4.1-11.162-10.796-18.971-14.955-17.444-4.159 1.529-4.206 11.815-.106 22.977" fill="#400564"/><path d="M307.318 77.833c-.5-2.769-1.303-5.757-2.428-8.82-2.008-5.468-4.64-10.12-7.29-13.276l-10.778 5.171v.002l-17.92 8.599 4.603 17.05 19.85-4.297v-.001l13.16-2.85.803-1.578z" fill="#A05BE2"/><path d="M265.72 79.658c1.755 4.774 5.359 7.843 8.05 6.854 2.692-.99 3.453-5.66 1.7-10.435-1.754-4.773-5.36-7.842-8.05-6.853-2.693.99-3.453 5.66-1.7 10.434" fill="#400564"/><path d="M308.336 72.756a54.221 54.221 0 0 0 2.164 7.457 54.301 54.301 0 0 0 3.31 7.324l14.336-3.153c-.482-3.008-1.34-6.313-2.584-9.705-2.076-5.651-4.819-10.437-7.56-13.593l-10.52 5.048.001.012-18.2 8.734 4.602 17.05 19.927-4.381a54.315 54.315 0 0 1-3.309-7.325 54.105 54.105 0 0 1-2.167-7.468" fill="#AF78EF"/><path d="M286.372 84.744c1.754 4.774 5.358 7.842 8.05 6.853 2.691-.989 3.452-5.66 1.698-10.434-1.753-4.775-5.358-7.842-8.05-6.854-2.692.99-3.453 5.661-1.698 10.435" fill="#400564"/><path d="M327.061 96.891s8.912-1.554 8.508-7.721c0 0-.333-9.636-5.146-18.148-1.903-3.365-.024-7.63 3.698-8.672l10.217-2.863s13.555 8.945 13.976 33.943l5.508 15.746-23.663 8.585-13.098-20.87z" fill="#F3427C"/></g></svg>