<svg width="340" height="430" xmlns="http://www.w3.org/2000/svg"><g fill="none" fill-rule="evenodd"><path fill="#8C88EF" d="M55 429.048h285v-384H55z"/><path d="M15.59 115.016s10-38.25-5.881-54.726c0 0-16.469 6.473 5.882 54.726M133.03 205.64l26.698 13.449 11.797-47.516 5.85-34.094-18.343-9.062-4.557-3.297s-24.55 16.892-29.57 36.863c-2.158 8.583 3.59 17.327 12.36 18.492 1.335.178 2.768.256 4.292.195l-8.526 24.97z" fill="#1C0C48"/><path d="M133.03 205.64l-68.228-33.535-15.181-56.05c-4.087-15.09-16.225-26.883-31.568-29.85-5.416-1.047-11.36-1.228-17.558.173 0 0-6.274 8.63 25.88 16.477 0 0-11.667 65.81 14.116 98.076l66.736 63.847 25.804-59.138z" fill="#1C0C48"/><path d="M133.03 205.64s-39.21 7.587-21.958 82.254L81.27 389.24 267 429l-57.115-162.161-32.51-61.2H133.03z" fill="#4DB2F7"/><path d="M121 45.322s13.896 23.942 52.736 23.472c0 0 47.61-5.134 66.652 21.272 0 0 7.976 9.762 11.52 20.313 3.51 10.445 9.822 19.764 18.668 26.319 10.308 7.638 25.095 14.547 43.79 12.781 0 0 19.775-2.2 25.634-10.269V45.048H121v.274z" fill="#210754"/><path d="M234.154 51.842c21.777 23.674 39.57 19.1 48.873 13.581 5.554-3.294 9.06-9.446 8.352-15.867-.199-1.8-.681-3.302-1.356-4.556H228c3.333 4.036 6.154 6.842 6.154 6.842" fill="#F3427C"/><path d="M195.735 106.398c5.12.996 10.114 2.265 16.088-3.871 0 0 3.74-4.726 9.014-2.432 0 0 7.196 2.533 9.386-3.681 1.18-3.356-.05-7.055-2.644-9.488-4.23-3.966-11.581-6.806-26.734 1.095 0 0-13.476 5.864-10.384 14.193.83 2.233 2.936 3.73 5.274 4.184" fill="#B4B1FF"/><path d="M3.864 42.047s-8.022-20.191 9.42-33.754c3.493-2.717 7.554-4.59 11.804-5.819 8.925-2.582 25.375-4.98 37.36 7.012 0 0 20.287 17.496 41.04 2.916 3.833-2.693 7.805-5.178 12.124-6.99 15.888-6.666 48.1-12.893 61.763 18.981 0 0 19.276 48.548-48.814 52.451-4.529.26-9.044 1.054-13.257 2.736-1.282.513-2.538 1.102-3.644 1.768A33.39 33.39 0 0 1 93.235 86.1c-12.185-.435-28.806-3.66-37.131-16.836-5.4-8.545-13.175-15.48-22.835-18.446-5.637-1.73-11.2-2.126-14.572 1.037L3.864 42.047z" fill="#7824D7"/><path d="M9.71 60.29S-.06 59.008 1.757 48.437c.558-3.245 2.52-6.097 5.32-7.827 2.694-1.664 6.422-5.125 8.513-12.097 0 0-.596 10.208 2.086 14.644.822 1.361 1.57 2.768 1.86 4.332.818 4.401.679 12.037-9.828 12.8" fill="#1C0C48"/><path d="M340 303.027c-10.21-11.937-41.842-28.053-41.842-28.053-26.998-7.656-27.102-22.42-39.348-37.907-8.567-10.832-33.14-20.723-33.14-20.723s-36.308-14.298-27.567-39.1c8.74-24.803-4.117-38.082-4.117-38.082-24.03-24.656-39.563-13.767-39.563-13.767-9.51 9.493-1.204 22.558 1.993 26.838a3.73 3.73 0 0 0 2.849 1.487c1.94.075 3.825.628 5.495 1.611a6.785 6.785 0 0 1 3.31 5.37 7.42 7.42 0 0 1-2.277 5.895l-.743.71a15.46 15.46 0 0 0-4.74 12.286l.436 6.003a23.74 23.74 0 0 1-1.906 11.176l-1.855 4.273c-1.092 2.514-1.809 5.202-1.87 7.934-.373 16.848 17.622 26.761 17.622 26.761 8.97 4.432 12.459 14.455 13.8 22.26 2.158 12.575 7.063 28.522 15.972 37.505 11.725 11.822 5.987 27.745 4.04 49.319-1.778 19.7 5.28 38.79 18.346 53.349 6.781 7.557 8.847 14.989 10.177 18.851.23.666 15.566 11.37 15.822 12.025L340 429V303.027z" fill="#F3427C"/><path d="M306.27 48.655c-2.342 8.638-1.347 17.804 2.186 26.036 6.457 15.05 17.557 49.363 10.406 95.753 0 0-2.347 25.319-6.967 39.163-2.478 7.423 4.248 15.023 11.902 13.087 5.728-1.449 11.798-6.87 16.203-20.796V45h-32.507a33.998 33.998 0 0 0-1.224 3.655" fill="#73C0FF"/><path d="M275 428.725s-13.959-24.008-52.977-23.538c0 0-47.825 5.15-66.956-21.33 0 0-8.012-9.788-11.573-20.368-3.525-10.475-9.866-19.82-18.752-26.393-10.355-7.66-25.21-14.588-43.99-12.816 0 0-19.865 2.205-25.752 10.297V429h220v-.275z" fill="#210754"/><path d="M289.956 321.482s-24.897-12.937-12.71-31.256c0 0 3.594-9.843-4.597-15.57 0 0-10.597-8.607-2.763-17.646 3.754-4.328 9.772-5.898 15.333-4.53 9.73 2.394 24.531 10.932 23.488 40.824 0 0 .905 39.823-18.75 28.178" fill="#73C0FF"/></g></svg>