<?xml version="1.0" encoding="utf-8"?><svg xmlns="http://www.w3.org/2000/svg" xmlns:xlink="http://www.w3.org/1999/xlink"><symbol viewBox="0 0 38 28" id="III" xmlns="http://www.w3.org/2000/svg"><title>logo_07</title><path d="M7.015.27l6.275 10.844-1.013.583-5.262-9.093V28H0V0h7.015v.27zM31.57 0H38v28h-6.43V0zM19.877 0h7.015v28h-7.015V0z" fill-rule="evenodd"/></symbol><symbol viewBox="0 0 116 12" id="YESPLZ" xmlns="http://www.w3.org/2000/svg"><path d="M9.792.224L5.92 6.464v4.96H3.872v-4.96L0 .224h2.176l2.72 4.416L7.616.224h2.176zm20.664 11.2h-7.328V.224h7.168v1.984h-5.072v2.384h3.936v1.984h-3.936V9.44h5.232v1.984zm17.225.224c-.8 0-1.53-.08-2.192-.24-.661-.16-1.168-.352-1.52-.576l.24-2.336c.341.33.819.61 1.432.84.613.23 1.31.344 2.088.344 1.333 0 2-.405 2-1.216 0-.235-.056-.445-.168-.632a1.79 1.79 0 0 0-.432-.488 2.87 2.87 0 0 0-.576-.352 5.229 5.229 0 0 0-.616-.24l-1.504-.528-.64-.272c-.672-.277-1.163-.608-1.472-.992-.31-.384-.48-.917-.512-1.6 0-.427.08-.84.24-1.24.16-.4.405-.757.736-1.072.33-.315.752-.568 1.264-.76C46.56.096 47.164 0 47.857 0a7.2 7.2 0 0 1 1.064.08c.357.053.696.12 1.016.2.32.08.608.173.864.28.256.107.464.208.624.304l-.208 2.096c-1.237-.672-2.33-1.008-3.28-1.008-.277 0-.539.021-.784.064a2.256 2.256 0 0 0-.648.208 1.28 1.28 0 0 0-.448.368.88.88 0 0 0-.168.544c0 .277.067.493.2.648.133.155.33.29.592.408.261.117.59.237.984.36.395.123.853.285 1.376.488l.864.336c.224.085.459.208.704.368.245.16.472.357.68.592.208.235.381.51.52.824.139.315.208.67.208 1.064 0 .341-.043.71-.128 1.104a2.509 2.509 0 0 1-.576 1.112c-.299.347-.736.635-1.312.864-.576.23-1.35.344-2.32.344zm22.296-3.904h-2v3.68H65.93V.224h3.168c.811 0 1.518.045 2.12.136.603.09 1.102.267 1.496.528.395.261.691.624.888 1.088.198.464.296 1.064.296 1.8 0 .779-.122 1.421-.368 1.928-.245.507-.56.912-.944 1.216a3.451 3.451 0 0 1-1.272.64 5.208 5.208 0 0 1-1.336.184zm-.32-5.808h-1.68v3.888h1.728c.758 0 1.3-.152 1.624-.456.326-.304.488-.83.488-1.576a3 3 0 0 0-.104-.848 1.225 1.225 0 0 0-.352-.576 1.523 1.523 0 0 0-.664-.328 4.375 4.375 0 0 0-1.04-.104zm24.68 9.488h-6.655V.224h2.048V9.44h4.608v1.984zm20.985-11.2L110.17 9.44h4.432v1.984h-7.808l5.152-9.216h-4.432V.224h7.808z"/></symbol><symbol viewBox="0 0 129 21" id="arival" xmlns="http://www.w3.org/2000/svg"><title>logo_08</title><path d="M0 0h15.51v14.566h.002L9.37 20.563v-9.7h-.66L7.48 9.32h1.89V6.13H6.13v14.43L0 14.568V0zm1.56 13.975l3.011 2.975V5.702L3.684 4.59h6.368l.877.818v3.914l-.826.77.826.77v6.1l3.023-2.986V1.54H1.56v12.434zm33.809-8.939H32.29v4.179h3.079c1.344 0 2.3-.688 2.3-2.082 0-1.392-.956-2.097-2.3-2.097zm2.316 10.311l-2.624-5.06h-2.77v5.06h-1.232v-11.4h4.423c2.01 0 3.419 1.201 3.419 3.17 0 1.666-1.02 2.755-2.511 3.059l2.737 5.171h-1.442zm17.971 0v-11.4h1.231v11.4h-1.23zm22.173 0h-1.005l-3.792-11.4h1.297l2.998 9.223 2.997-9.223h1.296l-3.791 11.4zm22.228-9.655l-2.17 6.021h4.31l-2.14-6.02zm3.419 9.655l-.923-2.578h-5.04l-.923 2.578h-1.312l4.245-11.4h1.037l4.228 11.4h-1.312zm17.514-11.4h1.231v10.312h5.898v1.088h-7.129v-11.4z" fill-rule="evenodd"/></symbol><symbol viewBox="0 0 24 24" id="behance-logo" xmlns="http://www.w3.org/2000/svg"><path d="M22 7h-7V5h7v2zm1.726 10c-.442 1.297-2.029 3-5.101 3-3.074 0-5.564-1.729-5.564-5.675 0-3.91 2.325-5.92 5.466-5.92 3.082 0 4.964 1.782 5.375 4.426.078.506.109 1.188.095 2.14H15.97c.13 3.211 3.483 3.312 4.588 2.029h3.168zm-7.686-4h4.965c-.105-1.547-1.136-2.219-2.477-2.219-1.466 0-2.277.768-2.488 2.219zm-9.574 6.988H0V5.021h6.953c5.476.081 5.58 5.444 2.72 6.906 3.461 1.26 3.577 8.061-3.207 8.061zM3 11h3.584c2.508 0 2.906-3-.312-3H3v3zm3.391 3H3v3.016h3.341c3.055 0 2.868-3.016.05-3.016z"/></symbol><symbol viewBox="0 0 16 16" id="close" xmlns="http://www.w3.org/2000/svg"><path d="M0 1.595C.54 1.08 1.08.54 1.595 0L8 6.405 14.405 0 16 1.595 9.595 8 16 14.405c-.515.54-1.055 1.08-1.595 1.595L8 9.595 1.595 16 0 14.405 6.405 8 0 1.595z" fill-rule="evenodd"/></symbol><symbol viewBox="0 0 16 16" id="dribbble-logo" xmlns="http://www.w3.org/2000/svg"><defs><path d="M17.37 6.886a8.022 8.022 0 0 0-4.256-4.257A8.07 8.07 0 0 0 10 2a8.028 8.028 0 0 0-3.115.63A8.036 8.036 0 0 0 2.63 6.885a7.989 7.989 0 0 0 .738 7.588c.286.424.614.82.975 1.184A8 8 0 0 0 10 18a7.97 7.97 0 0 0 1.611-.164 7.88 7.88 0 0 0 2.862-1.203 8.164 8.164 0 0 0 1.185-.975c.36-.364.69-.76.975-1.184a7.97 7.97 0 0 0 1.205-6.084 8.02 8.02 0 0 0-.468-1.504zM10 3.168c1.73 0 3.31.646 4.512 1.706-.017.025-.99 1.507-3.569 2.473A34.802 34.802 0 0 0 8.39 3.36 6.83 6.83 0 0 1 10 3.168zm-1.636.199l-.002.002-.02.003.022-.005zm-1.28.455a40.877 40.877 0 0 1 2.538 3.936c-3.28.872-6.128.837-6.308.834a6.834 6.834 0 0 1 3.77-4.77zM4.919 14.565A6.805 6.805 0 0 1 3.168 10c0-.072.003-.144.005-.215.121.003 3.497.08 7.015-.973.195.382.383.773.554 1.161-.09.025-.18.052-.27.082-3.686 1.19-5.557 4.508-5.557 4.508l.003.003zM10 16.833a6.804 6.804 0 0 1-4.265-1.497l.065.05s1.31-2.856 5.362-4.268c.016-.006.031-.01.046-.014a28.442 28.442 0 0 1 1.46 5.187 6.807 6.807 0 0 1-2.668.542zm3.818-1.167c-.07-.412-.434-2.417-1.33-4.88 2.206-.352 4.117.253 4.258.299a6.834 6.834 0 0 1-2.928 4.581zm-1.746-5.958c-.049-.117-.097-.234-.148-.352a20.557 20.557 0 0 0-.454-.991c2.698-1.102 3.793-2.685 3.806-2.704a6.806 6.806 0 0 1 1.555 4.27c-.1-.02-2.412-.518-4.76-.223z" id="fa"/></defs><use xlink:href="#fa" transform="translate(-2 -2)" fill-rule="evenodd"/></symbol><symbol viewBox="0 0 51 59" id="hand-iconnn" xmlns="http://www.w3.org/2000/svg"><path d="M49.97 38.142c0-.068-.068-.136-.068-.204 0-.068-2.723-4.764-5.105-9.733-2.246-4.697-2.45-9.665-2.45-9.733 0-.137-.068-.34-.068-.477a2.039 2.039 0 0 0-1.294-1.293 2.17 2.17 0 0 0-1.837 0c-2.383.953-3.54 2.79-3.948 4.696-.136-1.089-.136-1.701-.136-1.77 0-.135-.068-.34-.068-.476a2.039 2.039 0 0 0-1.294-1.293 2.17 2.17 0 0 0-1.837 0c-.817.34-1.43.749-2.042 1.293l-6.398-6.398c-1.566-1.565-4.016-1.77-5.786-.544a5.613 5.613 0 0 0-1.43 1.701l-.067-.068c-.953-.953-2.315-1.43-3.608-1.293-.817.068-1.565.34-2.178.817a5.613 5.613 0 0 0-1.43 1.701 4.489 4.489 0 0 0-3.13-1.293 4.489 4.489 0 0 0-3.131 1.293A4.489 4.489 0 0 0 1.372 18.2c0 1.157.476 2.315 1.293 3.131l1.02 1.021c-.68.34-1.292.817-1.7 1.43C.69 25.482.894 28 2.46 29.566l.816.817c-.68.34-1.293.817-1.701 1.43-1.225 1.7-1.021 4.22.544 5.785l19.535 19.535a5.353 5.353 0 0 0 3.812 1.565c1.429 0 2.722-.545 3.811-1.565l.545-.545c.885.613 1.974.885 2.995.885 1.36 0 2.722-.545 3.811-1.566L49.017 43.52c1.225-1.43 1.702-3.54.953-5.378zm-3.063 3.404L34.52 53.933c-1.02 1.021-2.722 1.021-3.743 0l-.205-.204L11.31 34.467c-.613-.613-.749-1.566-.272-2.246.068-.136.204-.204.272-.273l.068-.068c.068-.068.136-.136.204-.136l.068-.068c.068-.068.205-.068.273-.136.136 0 .204-.068.34-.068h.407c.068 0 .068 0 .136.068l8.849 8.849 1.906-1.906-8.849-9.053-2.995-2.995c-.612-.612-.748-1.565-.272-2.246.545-.749 1.43-.817 2.042-.544L23.97 34.127l1.906-1.906-10.959-11.027-.068.068-2.994-2.995c-.681-.68-.681-1.77 0-2.382.068-.068.136-.136.272-.204.068-.068.136-.068.204-.136l.068-.068c.204-.068.408-.136.613-.136.408 0 .885.136 1.157.476l1.838 1.838-.069.068 12.865 12.864 2.042-1.906-12.116-12.115c-.272-.613-.204-1.566.545-2.042.68-.477 1.633-.34 2.246.272l7.419 7.42 4.833 4.832 2.314 2.314a1.349 1.349 0 0 0 1.701.204c.545-.34.75-.953.613-1.565-.477-1.566-1.77-6.603 1.293-8.44.136 1.77.68 5.853 2.655 9.937 2.246 4.629 4.764 9.053 5.173 9.801.204.75 0 1.634-.613 2.247zM20.838 8.738L22.2 2a.752.752 0 0 0 0-.545C22.063.707 21.315.23 20.566.366c-.749.136-1.225.885-1.09 1.634l1.362 6.738zm-7.963-3.675l5.445 4.22-3.404-5.99c-.068-.136-.204-.272-.34-.408-.612-.477-1.497-.34-1.974.272-.476.613-.34 1.497.273 1.906zm16.335-.409c.409-.68.136-1.497-.544-1.905-.681-.409-1.498-.137-1.906.544l-3.403 5.99 5.445-4.22a.614.614 0 0 0 .408-.409z"/></symbol><symbol viewBox="0 0 51 59" id="handdd" xmlns="http://www.w3.org/2000/svg"><title>icon</title><path d="M49.97 38.142c0-.068-.068-.136-.068-.204 0-.068-2.723-4.764-5.105-9.733-2.246-4.697-2.45-9.665-2.45-9.733 0-.137-.068-.34-.068-.477-.205-.612-.505 3.403-1.118 3.2-.613-.273-1.4-4.765-2.013-4.493-2.383.953-3.54 2.79-3.948 4.696-.136-1.089-.136-1.701-.136-1.77 0-.135-.068-.34-.068-.476a2.039 2.039 0 0 0-1.294-1.293 2.17 2.17 0 0 0-1.837 0c-.817.34-1.43.749-2.042 1.293l-6.398-6.398c-1.566-1.565-4.016-1.77-5.786-.544a5.613 5.613 0 0 0-1.43 1.701l-.067-.068c-.953-.953-2.315-1.43-3.608-1.293-.817.068-1.565.34-2.178.817a5.613 5.613 0 0 0-1.43 1.701 4.489 4.489 0 0 0-3.13-1.293 4.489 4.489 0 0 0-3.131 1.293A4.489 4.489 0 0 0 1.372 18.2c0 1.157.476 2.315 1.293 3.131l1.02 1.021c-.68.34-1.292.817-1.7 1.43C.69 25.482.894 28 2.46 29.566l.816.817c-.68.34-1.293.817-1.701 1.43-1.225 1.7-1.021 4.22.544 5.785l19.535 19.535a5.353 5.353 0 0 0 3.812 1.565c1.429 0 2.722-.545 3.811-1.565l.545-.545c.885.613 1.974.885 2.995.885 1.36 0 2.722-.545 3.811-1.566L49.017 43.52c1.225-1.43 1.702-3.54.953-5.378zm-3.063 3.404L34.52 53.933c-1.02 1.021-2.722 1.021-3.743 0l-.205-.204L11.31 34.467c-.613-.613-.749-1.566-.272-2.246.068-.136.204-.204.272-.273l.068-.068c.068-.068.136-.136.204-.136l.068-.068c.068-.068.205-.068.273-.136.136 0 .204-.068.34-.068h.407c.068 0 .068 0 .136.068l8.849 8.849 1.906-1.906-8.849-9.053-2.995-2.995c-.612-.612-.748-1.565-.272-2.246.545-.749 1.43-.817 2.042-.544L23.97 34.127l1.906-1.906-10.959-11.027-.068.068-2.994-2.995c-.681-.68-.681-1.77 0-2.382.068-.068.136-.136.272-.204.068-.068.136-.068.204-.136l.068-.068c.204-.068.408-.136.613-.136.408 0 .885.136 1.157.476l1.838 1.838-.069.068 12.865 12.864 2.042-1.906-12.116-12.115c-.272-.613-.204-1.566.545-2.042.68-.477 1.633-.34 2.246.272l7.419 7.42 4.833 4.832 2.314 2.314a1.349 1.349 0 0 0 1.701.204c.545-.34.75-.953.613-1.565-.477-1.566-1.77-6.603 1.293-8.44.136 1.77.68 5.853 2.655 9.937 2.246 4.629 4.764 9.053 5.173 9.801.204.75 0 1.634-.613 2.247zM20.838 8.738L22.2 2a.752.752 0 0 0 0-.545C22.063.707 21.315.23 20.566.366c-.749.136-1.225.885-1.09 1.634l1.362 6.738zm-7.963-3.675l5.445 4.22-3.404-5.99c-.068-.136-.204-.272-.34-.408-.612-.477-1.497-.34-1.974.272-.476.613-.34 1.497.273 1.906zm16.335-.409c.409-.68.136-1.497-.544-1.905-.681-.409-1.498-.137-1.906.544l-3.403 5.99 5.445-4.22a.614.614 0 0 0 .408-.409z"/></symbol><symbol viewBox="0 0 128 20" id="healthpath" xmlns="http://www.w3.org/2000/svg"><title>logo_05</title><path d="M43.27 10.498v5.935h-2.655v-5.568c0-1.102-.733-1.856-1.822-1.856-1.09 0-1.862.754-1.862 1.856v5.568h-2.674v-14.5h2.674v5.742c.653-.638 1.604-1.024 2.694-1.024 2.218 0 3.644 1.527 3.644 3.847zm10.967 2.03h-6.873c.317 1.218 1.327 1.895 2.754 1.895.97 0 1.881-.329 2.733-.967l1.11 1.779c-1.17.947-2.477 1.43-3.923 1.43-3.03.058-5.427-2.242-5.367-5.007-.06-2.765 2.297-5.065 5.13-5.007 2.713 0 4.615 1.952 4.615 4.446 0 .464-.06.948-.179 1.431zm-6.873-1.837h4.457c-.02-1.179-.95-1.933-2.12-1.933-1.128 0-2.04.754-2.337 1.933zm16.733.058v5.684H61.64v-.928c-.713.716-1.743 1.16-2.99 1.16-2.08 0-3.388-1.179-3.388-2.861 0-1.72 1.427-2.784 3.704-2.784h2.457v-.425c0-1.064-.634-1.682-1.823-1.682-1.01 0-1.723.406-2.594 1.314l-1.387-1.604c1.129-1.315 2.555-1.972 4.278-1.972 2.556 0 4.2 1.45 4.2 4.098zm-2.674 2.108v-.116h-2.1c-.872 0-1.367.328-1.367.966 0 .638.555 1.044 1.407 1.044 1.168 0 2.06-.792 2.06-1.894zm4.63 3.576v-14.5h2.674v14.5h-2.674zM77.06 14.25v2.184a7.76 7.76 0 0 1-1.842.232c-2.476 0-3.921-1.198-3.921-3.596V9.067h-1.545V6.863h1.545V4.447h2.674v2.416h2.773v2.204H73.97v3.77c0 1.083.554 1.489 1.822 1.489.158 0 .574-.02 1.267-.077zm10.335-3.751v5.935H84.74v-5.568c0-1.102-.733-1.856-1.823-1.856-1.089 0-1.861.754-1.861 1.856v5.568h-2.674v-14.5h2.674v5.742c.653-.638 1.604-1.024 2.693-1.024 2.219 0 3.645 1.527 3.645 3.847zm12.315 1.14c0 2.862-2.02 5.027-4.754 5.027-1.188 0-2.218-.406-2.931-1.16v4.408H89.35V6.863h2.456v1.199c.654-.909 1.803-1.411 3.15-1.411 2.733 0 4.753 2.126 4.753 4.988zm-2.713.02c0-1.605-1.09-2.649-2.536-2.649-1.347 0-2.476.909-2.476 2.63 0 1.701 1.11 2.648 2.476 2.648 1.426 0 2.536-1.063 2.536-2.629zm12.414-.909v5.684h-2.456v-.928c-.713.716-1.743 1.16-2.991 1.16-2.08 0-3.387-1.179-3.387-2.861 0-1.72 1.426-2.784 3.704-2.784h2.456v-.425c0-1.064-.634-1.682-1.822-1.682-1.01 0-1.724.406-2.595 1.314l-1.387-1.604c1.13-1.315 2.555-1.972 4.279-1.972 2.555 0 4.199 1.45 4.199 4.098zm-2.674 2.108v-.116h-2.1c-.871 0-1.366.328-1.366.966 0 .638.554 1.044 1.406 1.044 1.168 0 2.06-.792 2.06-1.894zm10.929 1.392v2.184a7.76 7.76 0 0 1-1.843.232c-2.475 0-3.921-1.198-3.921-3.596V9.067h-1.545V6.863h1.545V4.447h2.674v2.416h2.773v2.204h-2.773v3.77c0 1.083.554 1.489 1.822 1.489.158 0 .574-.02 1.268-.077zM128 10.498v5.935h-2.654v-5.568c0-1.102-.733-1.856-1.822-1.856-1.09 0-1.862.754-1.862 1.856v5.568h-2.674v-14.5h2.674v5.742c.653-.638 1.604-1.024 2.693-1.024 2.219 0 3.645 1.527 3.645 3.847zM14.687.515c2.465-1.021 5.277-.498 7.176 1.34a6.18 6.18 0 0 1 0 8.928l-5.275 5.112a1.281 1.281 0 0 1-1.772 0L5.463 6.838a1.025 1.025 0 0 1 .042-1.52c.436-.38 1.117-.32 1.531.08l2.701 2.617 2.335-2.276-1.998-1.936-.48-.465c-1.697-1.643-4.46-1.644-6.158 0a4.129 4.129 0 0 0 0 5.965l9.229 8.909c.424.409.424 1.073.001 1.482a1.106 1.106 0 0 1-1.528.001l-9.232-8.911a6.18 6.18 0 0 1 0-8.927c2.541-2.46 6.677-2.46 9.219 0l.48.465.938.908.106.104 4.558 4.418c.45.434.472 1.17-.006 1.575a1.099 1.099 0 0 1-.711.258c-.277 0-.554-.102-.766-.307L13.601 7.22l-2.334 2.276 4.436 4.295 4.63-4.49a4.129 4.129 0 0 0 0-5.964 4.437 4.437 0 0 0-4.82-.885c-.607.256-1.323-.07-1.486-.722-.125-.499.174-1.013.66-1.215z" fill-rule="evenodd" opacity=".9"/></symbol><symbol viewBox="0 0 113 25" id="hightform" xmlns="http://www.w3.org/2000/svg"><title>logo_03</title><path d="M10.953 20.874l-2.543-.013v-5.624H2.536v5.637H0V6.984h2.536v5.84h5.881v-5.84h2.536v13.89zM12.26 8.298c0-.791.67-1.432 1.496-1.432.827 0 1.497.64 1.497 1.432 0 .79-.67 1.431-1.497 1.431-.826 0-1.496-.64-1.496-1.431zm2.761 12.557h-2.53v-9.834h2.537l-.007 9.834zm12.134-13.91H29.7v5.447c.744-.968 1.943-1.52 3.2-1.472 2.907 0 4.195 1.885 4.195 4.767v5.187h-2.536v-5.149c0-1.784-1.003-2.539-2.33-2.539-.71.03-1.38.33-1.856.835a2.473 2.473 0 0 0-.68 1.85v4.984h-2.536V6.945zm23.021 6.12c-1.825 0-2.781 1.41-2.781 2.902 0 1.492.936 2.882 2.781 2.882 1.846 0 2.782-1.39 2.782-2.882a2.697 2.697 0 0 0-.758-2.006 2.952 2.952 0 0 0-2.024-.896zm0-2.209h-.013a5.308 5.308 0 0 1 3.83 1.43 4.841 4.841 0 0 1 1.534 3.649c0 2.815-2.387 5.098-5.33 5.098-2.945 0-5.331-2.283-5.331-5.098a4.788 4.788 0 0 1 1.497-3.647 5.253 5.253 0 0 1 3.813-1.432zm6.313.203h2.33l.186 1.13c.6-.958 1.725-1.5 2.887-1.39a3.996 3.996 0 0 1 2.656.933l-1.142 2.108a2.605 2.605 0 0 0-1.826-.635 2.425 2.425 0 0 0-1.888.666 2.202 2.202 0 0 0-.667 1.816v5.168H56.49v-9.796zm17.618 9.796h-2.536v-5.244c0-1.289-.724-2.463-2.098-2.463-1.374 0-2.184 1.193-2.184 2.463v5.244h-2.536v-9.828h2.344l.186 1.194c.57-.893 1.609-1.412 2.701-1.352 1.317-.079 2.54.658 3.034 1.828.7-1.169 2.032-1.857 3.438-1.777 2.908 0 4.342 1.714 4.342 4.653v5.288h-2.536v-5.288c0-1.295-.558-2.387-1.932-2.387-1.374 0-2.223 1.155-2.223 2.425v5.244zM21.62 12.907V12.9a2.497 2.497 0 0 0-1.931.788 3.645 3.645 0 0 0-.717 2.92 2.312 2.312 0 0 0 1.062 1.86 3.402 3.402 0 0 0 3.22-.178v-5.237a8.935 8.935 0 0 0-1.634-.146zm-.146-2.057l-.006.038a16.953 16.953 0 0 1 4.334.558v6.717c-.053 1.143.073 2.286-.053 3.422-.099 1.269-.877 2.398-2.058 2.984a6.97 6.97 0 0 1-4.826 0c.14-.667.319-1.359.478-2.038.326.143.67.245 1.023.305.806.21 1.67.046 2.33-.445.448-.601.64-1.343.537-2.076a5.48 5.48 0 0 1-4.646 0c-1.127-.611-1.903-1.678-2.111-2.9a5.967 5.967 0 0 1 .664-4.445c.978-1.36 2.608-2.158 4.334-2.12zm21.269-3.543h-.034a8.039 8.039 0 0 1 2.656.426l-.492 2.031a4.404 4.404 0 0 0-1.234-.336 2.501 2.501 0 0 0-2.184.552c-.525.635-.458 1.498-.458 2.26h3.697l-.604 2.05h-3.087v6.546h-2.549v-8.983a4.607 4.607 0 0 1 .97-3.276 4.296 4.296 0 0 1 3.319-1.27zm58.156-.349l.006-.006v4.634H96.06l.006-.006h-.013V6.952h-4.84l4.847-4.635L98.483 0l.587.562.01-.01 1.364 1.324.461.441-.003.003 4.843 4.632h-4.846v.006zM86.42 15.433v-1.498h-2.476l2.423-2.317 4.846-4.635h.006v9.269l-.04 4.546h-4.732l-.06.057v-4.603h-.013l.013-.012v-.826l.013.02h.02zm24.176.597v4.825h-4.846V6.983l-.006-.031 4.812 4.602h.02L113 13.872h-2.403v2.158zm-14.537.19h4.839v4.635h-4.84v-4.634z" fill-rule="evenodd"/></symbol><symbol viewBox="0 0 26 26" id="instagram-logo" xmlns="http://www.w3.org/2000/svg"><path d="M7.547 0C3.39 0 0 3.39 0 7.547v10.906C0 22.61 3.39 26 7.547 26h10.906C22.61 26 26 22.61 26 18.453V7.547C26 3.39 22.61 0 18.453 0zm0 2h10.906A5.53 5.53 0 0 1 24 7.547v10.906A5.53 5.53 0 0 1 18.453 24H7.547A5.53 5.53 0 0 1 2 18.453V7.547A5.53 5.53 0 0 1 7.547 2zM20.5 4a1.5 1.5 0 1 0 0 3 1.5 1.5 0 0 0 0-3zM13 6c-3.855 0-7 3.145-7 7s3.145 7 7 7 7-3.145 7-7-3.145-7-7-7zm0 2c2.773 0 5 2.227 5 5s-2.227 5-5 5-5-2.227-5-5 2.227-5 5-5z"/></symbol><symbol viewBox="0 0 16 16" id="linkedIn-logo" xmlns="http://www.w3.org/2000/svg"><defs><path d="M15.545 1H2.455C1.65 1 1 1.65 1 2.455v13.09C1 16.35 1.65 17 2.455 17h13.09C16.35 17 17 16.35 17 15.545V2.455C17 1.65 16.35 1 15.545 1zM6.057 14.09H3.912V7.189h2.145v6.903zM4.963 6.2a1.25 1.25 0 1 1 0-2.501 1.25 1.25 0 0 1 0 2.502zm9.13 7.89H11.95v-3.356c0-.8-.015-1.83-1.115-1.83-1.116 0-1.288.871-1.288 1.772v3.415H7.403V7.188H9.46v.943h.03c.286-.543.985-1.115 2.029-1.115 2.172 0 2.574 1.43 2.574 3.289v3.786z" id="la"/></defs><use xlink:href="#la" transform="translate(-1 -1)"/></symbol><symbol viewBox="0 0 30 18" id="logo" xmlns="http://www.w3.org/2000/svg"><defs><path d="M27.555 27.528l.477-2.733c.346-1.979.699-3.956 1.039-5.935.11-.641.006-.857-.415-.984-.586-.177-1.224.026-1.398.512-.153.429-.227.889-.308 1.34-.45 2.527-.892 5.055-1.337 7.582-.012.066-.029.132-.047.214h-5.69c.1-.59.19-1.15.288-1.708.458-2.623.884-5.253 1.384-7.869.535-2.798 1.988-4.207 4.88-4.744 1.792-.333 3.597-.321 5.361.206 2.234.668 3.278 2.144 3.208 4.235-.035 1.021-.314 2.035-.495 3.05-.384 2.154-.776 4.307-1.167 6.461-.022.121-.061.24-.096.373h-5.684zm-14.198-8.982c.049-.394-.049-.763-.251-.873-.647-.352-1.392-.086-1.59.624-.055.2-.079.41-.116.615-.179.986-.363 1.972-.532 2.96-.066.384-.068.777.493.94.654.191 1.273-.188 1.404-.867.164-.854.367-1.974.499-2.739.052-.303.078-.544.093-.66zM13.067 10l-.62 3.618c.234-.067.404-.11.57-.164 1.34-.433 2.698-.528 4.059-.08 1.66.548 2.66 2.241 2.387 3.963-.327 2.066-.72 4.123-1.1 6.18-.43 2.33-1.952 3.594-4.185 4.011a19.399 19.399 0 0 1-3.788.328c-1.27-.016-2.536-.269-3.632-1.005-1.398-.939-1.961-2.298-1.693-3.903.715-4.278 1.51-8.542 2.274-12.81.007-.04.021-.079.037-.138h5.692z" id="ma"/></defs><use xlink:href="#ma" transform="translate(-5 -10)" fill-rule="evenodd"/></symbol><symbol viewBox="0 0 79 21" id="mCast" xmlns="http://www.w3.org/2000/svg"><title>logo_04</title><path d="M16.063 7.03c3.047 0 4.83 2.157 4.83 5.367v8.28h-3.487v-7.768c0-1.59-.904-2.589-2.273-2.589-1.394 0-2.35 1.025-2.35 2.508v7.848H9.297V12.91c0-1.59-.904-2.589-2.273-2.589-1.395 0-2.35.998-2.35 2.59v7.766H1.187V7.326H4.39v1.187c.852-.917 2.09-1.483 3.615-1.483 1.73 0 2.996.701 3.797 1.915.955-1.16 2.453-1.915 4.26-1.915zm16.9-4.477c3.28 0 6.018 1.7 7.515 4.423l-2.634 1.942c-1.136-1.888-2.737-2.994-4.88-2.994-3.177 0-5.502 2.427-5.502 5.88 0 3.425 2.325 5.825 5.501 5.825 2.144 0 3.745-1.106 4.881-2.994l2.634 1.942C39.006 19.301 36.243 21 32.938 21c-5.063 0-9.066-3.991-9.066-9.223 0-5.232 4.003-9.224 9.091-9.224zM48.727 7.03c3.254 0 5.475 1.915 5.475 5.717v7.93H51v-1.295C50.096 20.38 48.753 21 47.1 21c-2.79 0-4.416-1.726-4.416-3.991 0-2.428 1.885-3.884 4.83-3.884h3.202v-.593c0-1.457-.801-2.347-2.376-2.347-1.37 0-2.325.675-3.384 1.834L43.15 9.781c1.496-1.861 3.33-2.751 5.577-2.751zm-.697 11.3c1.472 0 2.686-1.079 2.686-2.643v-.162h-2.738c-1.136 0-1.782.459-1.782 1.349 0 .917.749 1.456 1.834 1.456zM62.296 7.003c1.859 0 3.434.674 4.597 2.023l-1.757 2.238c-.826-.809-1.833-1.267-2.866-1.267-.827 0-1.37.296-1.37.943 0 .54.414.81 1.344 1.187l1.24.54c2.298.97 3.59 1.995 3.59 4.072 0 2.75-2.196 4.261-4.985 4.261-2.273 0-4.158-1.025-5.294-2.589l1.756-2.212c1.033 1.106 2.22 1.807 3.59 1.807.878 0 1.627-.35 1.627-1.105 0-.62-.543-.863-1.317-1.214l-1.37-.593c-2.169-.917-3.486-1.969-3.486-4.073 0-2.562 1.989-4.018 4.7-4.018zm14.369 10.734c.413 0 .981-.054 1.653-.108v3.047a9.287 9.287 0 0 1-2.402.324c-3.151 0-5.114-1.591-5.114-5.016V10.4h-2.014V7.327h2.014V3.955h3.487v3.372h3.615V10.4H74.29v5.26c0 1.536.775 2.076 2.376 2.076zM.318 0h20.66v2.697H.318V0z" fill-rule="evenodd"/></symbol><symbol viewBox="0 0 24 24" id="mail-error" xmlns="http://www.w3.org/2000/svg"><path d="M4 4a2 2 0 0 0-2 2v12a2 2 0 0 0 2 2h6.01l1.166-2H4V9.002L12 14l8-4.998v4.17l2 3.428V6a2 2 0 0 0-2-2H4zm0 2h16v1.002L12 12 4 7.002V6zm12.996 6.975a.991.991 0 0 0-.863.498l-5.26 9.013a1 1 0 0 0 .863 1.504h10.52a1 1 0 0 0 .863-1.504l-5.26-9.013a.991.991 0 0 0-.863-.498zm-1 3.015h2v4h-2v-4zm0 5h2v2h-2v-2z"/></symbol><symbol viewBox="0 0 117 28" id="rentorr" xmlns="http://www.w3.org/2000/svg"><path d="M.04 11.731h6.22c.54 0 1.558.74 1.558 2.216 0 1.476-1.013 2.228-1.558 2.228H0V12.22a3 3 0 0 1 .04-.488zm4.263-4.855L10.749.814a3 3 0 0 1 4.11 0l9.803 9.22a3 3 0 0 1 .945 2.185V24.46a3 3 0 0 1-3 3h-9.545v-4.855c0-1.638-.78-2.842-2.339-3.612 1.688-1.399 2.467-3.386 2.339-5.962-.076-1.517-.889-3.552-2.427-4.795-.948-.766-3.058-1.22-6.332-1.361zM7.91 27.46H3a3 3 0 0 1-3-3v-2.719h6.261c1.29 0 1.65 1.029 1.65 1.848v3.871zm42.571-4.476l-3.058-6.006H45.84v6.006h-3.058V7.387h6.094c3.036 0 4.972 2.09 4.972 4.796 0 2.178-1.276 3.828-3.322 4.422l3.344 6.38h-3.388zm-4.642-8.624h2.464c1.54 0 2.442-.88 2.442-2.156 0-1.32-.902-2.178-2.442-2.178H45.84v4.334zm12.198 1.98h4.84c-.044-1.078-.748-2.134-2.42-2.134-1.518 0-2.354 1.144-2.42 2.134zm5.126 2.816l2.442.726c-.55 1.87-2.266 3.432-4.928 3.432-2.97 0-5.588-2.134-5.588-5.786 0-3.454 2.552-5.698 5.324-5.698 3.344 0 5.346 2.134 5.346 5.61 0 .418-.044.858-.044.902h-7.744c.066 1.43 1.276 2.464 2.728 2.464 1.364 0 2.112-.682 2.464-1.65zm7.732-2.398v6.226H67.97V12.161h2.838v1.342c.66-1.122 1.958-1.628 3.124-1.628 2.684 0 3.916 1.914 3.916 4.29v6.82h-2.926v-6.314c0-1.21-.594-2.156-2.002-2.156-1.276 0-2.024.99-2.024 2.244zm13.43-7.832v3.234h2.178v2.596h-2.178v4.532c0 .946.44 1.254 1.276 1.254.352 0 .748-.044.902-.088v2.42c-.264.11-.792.264-1.65.264-2.112 0-3.432-1.254-3.432-3.344v-5.038h-1.958V12.16h.55c1.144 0 1.672-.748 1.672-1.716V8.927h2.64zm9.316 11.726c1.43 0 2.75-1.034 2.75-3.08 0-2.046-1.32-3.08-2.75-3.08s-2.75 1.034-2.75 3.08c0 2.024 1.32 3.08 2.75 3.08zm0-8.822c3.234 0 5.676 2.398 5.676 5.742 0 3.322-2.442 5.742-5.676 5.742s-5.676-2.42-5.676-5.742c0-3.344 2.442-5.742 5.676-5.742zm14.486.286v2.948a4.406 4.406 0 0 0-.88-.088c-1.496 0-2.794.726-2.794 3.058v4.95h-2.926V12.161h2.838v1.606c.66-1.43 2.156-1.694 3.08-1.694.242 0 .462.022.682.044zm8.502 0v2.948a4.406 4.406 0 0 0-.88-.088c-1.496 0-2.794.726-2.794 3.058v4.95h-2.926V12.161h2.838v1.606c.66-1.43 2.156-1.694 3.08-1.694.242 0 .462.022.682.044z" fill-rule="evenodd"/></symbol><symbol viewBox="0 0 97 21" id="sakeWiz" xmlns="http://www.w3.org/2000/svg"><title>logo_02</title><path d="M84.578 18.13l6.226-6.674c.33-.368.772-.714.882-.793-.082 0-.69.106-1.183.106H84.99v-3.23h11.657v2.358L90.42 16.49c-.44.476-.908.822-.992.874.054 0 .662-.133 1.406-.133h5.814v3.23h-12.07v-2.33zm-6.034 2.332V7.538h3.84v12.924h-3.84zm-13.96-5.858h-.056a10.71 10.71 0 0 1-.6 2.243L62.349 21h-3.626L51.39 1.615h3.815l4.961 13.128c.354.997.465 1.495.6 2.242.136-.747.22-1.274.573-2.214l1.28-3.323-3.732-9.833h3.598l1.5 4.043c.27.832.487 1.552.57 2.16.082-.608.274-1.328.572-2.16l1.5-4.043h3.6l-3.737 9.833 1.282 3.323c.354.94.437 1.467.574 2.214.136-.747.217-1.245.599-2.242l4.96-13.128h3.816L70.39 21h-3.626l-1.58-4.153a10.733 10.733 0 0 1-.6-2.243zM46.07 10.358c-1.689 0-3.126 1.02-3.514 3.015h6.779c-.25-1.863-1.466-3.015-3.265-3.015zM46.264 21c-3.956 0-6.668-2.78-6.668-6.475 0-3.538 2.546-6.448 6.503-6.448 4.232 0 6.114 2.935 6.114 6.448v.68h-9.74c.277 2.415 1.994 3.514 3.9 3.514 1.774 0 2.99-.812 3.71-1.809l1.966 1.418C50.747 19.952 49.254 21 46.264 21zm-6.12-.538h-3.04l-4.24-6.105-1.412 1.66v4.445h-2.828V0h2.828v12.477l4.106-4.91h3.092l-4.079 4.801 5.573 8.094zm-21.8-1.763c2.372 0 3.752-1.706 4.057-3.387-.635-.136-1.767-.324-2.816-.324-2.043 0-3.367.867-3.367 2.085 0 .895.689 1.626 2.125 1.626zm8.086 2.03h-.801c-1.657 0-2.512-.92-2.898-2.246C21.904 19.726 20.3 21 17.708 21c-2.954 0-4.444-1.842-4.444-3.766 0-2.301 1.905-4.226 5.852-4.226 1.408 0 2.622.271 3.313.407v-.65c0-1.596-1.16-2.681-2.954-2.681-1.16 0-2.292.57-2.955 1.517l-2.068-1.545s1.518-2.518 5.133-2.518c3.504 0 5.657 2.086 5.657 5.146v4.686c0 .462.305.758.801.758h.387v2.6zM6.46 21c-2.444 0-4.836-1.239-5.814-3.823l2.472-1.402c.625 1.671 1.903 2.613 3.37 2.613 1.767 0 2.772-1.211 2.772-2.852 0-3.367-7.336-4.848-7.336-9.56 0-2.585 2.147-4.36 4.536-4.36 1.74 0 3.206.779 4.075 2.152l-2.09 1.696c-.462-.7-1.087-1.266-1.9-1.266-1.006 0-1.74.781-1.74 1.805 0 2.665 7.362 4.36 7.362 9.505 0 3.15-2.472 5.492-5.706 5.492z" fill-rule="evenodd"/></symbol><symbol viewBox="0 0 96 18" id="sens" xmlns="http://www.w3.org/2000/svg"><title>logo_06</title><path d="M6.957 6.122v-.39c0-.488-.1-.903-.302-1.247-.2-.343-.51-.515-.927-.515-.464 0-.804.15-1.02.447-.217.297-.325.63-.325.995 0 .534.174.958.521 1.27.348.313.785.584 1.31.813.526.229 1.09.462 1.693.698A7.59 7.59 0 0 1 9.6 9.12c.526.381.962.881 1.31 1.499.348.618.522 1.423.522 2.415 0 1.739-.502 3.002-1.507 3.787C8.92 17.607 7.467 18 5.565 18c-.896 0-1.689-.072-2.377-.217-.688-.145-1.267-.397-1.739-.756A3.411 3.411 0 0 1 .371 15.62C.124 15.04 0 14.323 0 13.468v-.572h4.174v.39c0 .701.131 1.193.394 1.476.263.282.603.423 1.02.423.449 0 .793-.153 1.032-.458.24-.305.36-.679.36-1.121 0-.534-.166-.958-.499-1.27a4.387 4.387 0 0 0-1.252-.801 41.003 41.003 0 0 0-1.635-.676 7.2 7.2 0 0 1-1.635-.892A4.415 4.415 0 0 1 .707 8.525C.375 7.93.21 7.152.21 6.19c0-1.663.448-2.929 1.345-3.799.896-.87 2.257-1.304 4.08-1.304 1.887 0 3.251.4 4.094 1.201.842.801 1.263 2.08 1.263 3.834H6.957zm27.702 3.22c0-.657-.081-1.137-.244-1.442-.162-.306-.467-.458-.915-.458-.433 0-.73.152-.893.458-.163.305-.244.785-.244 1.441v.55h2.296v-.55zm-2.296 2.792v1.625c0 .67.116 1.117.348 1.338.232.222.495.332.789.332.37 0 .66-.148.87-.446.208-.298.312-.866.312-1.705h3.757c-.031 1.526-.425 2.674-1.183 3.444-.757.77-2.002 1.156-3.733 1.156-1.005 0-1.848-.11-2.528-.332-.68-.22-1.229-.587-1.646-1.098-.418-.511-.715-1.179-.893-2.003-.178-.824-.267-1.823-.267-2.998 0-1.19.1-2.197.302-3.021.2-.824.518-1.495.95-2.014A3.718 3.718 0 0 1 31.1 5.279c.672-.236 1.48-.355 2.423-.355.835 0 1.565.1 2.191.298.626.198 1.152.53 1.577.995.425.466.742 1.076.95 1.831.21.756.314 1.698.314 2.827v1.259h-6.192zM56.38 2.046h4.582l2.643 9.567h.044V2.046h3.833V17.57h-4.494l-2.731-9.588h-.044v9.588H56.38V2.046zm35.146 4.076v-.39c0-.488-.1-.903-.302-1.247-.2-.343-.51-.515-.927-.515-.464 0-.804.15-1.02.447-.217.297-.325.63-.325.995 0 .534.174.958.521 1.27.348.313.785.584 1.31.813.526.229 1.09.462 1.693.698a7.59 7.59 0 0 1 1.693.927c.526.381.962.881 1.31 1.499.348.618.522 1.423.522 2.415 0 1.739-.502 3.002-1.507 3.787-1.005.786-2.458 1.179-4.36 1.179-.896 0-1.689-.072-2.377-.217-.687-.145-1.267-.397-1.739-.756a3.411 3.411 0 0 1-1.078-1.407c-.247-.58-.371-1.297-.371-2.152v-.572h4.174v.39c0 .701.131 1.193.394 1.476.263.282.603.423 1.02.423.449 0 .793-.153 1.032-.458.24-.305.36-.679.36-1.121 0-.534-.166-.958-.499-1.27a4.387 4.387 0 0 0-1.252-.801 41.004 41.004 0 0 0-1.635-.676 7.2 7.2 0 0 1-1.635-.892 4.415 4.415 0 0 1-1.252-1.442c-.332-.595-.498-1.373-.498-2.335 0-1.663.448-2.929 1.345-3.799.896-.87 2.257-1.304 4.08-1.304 1.887 0 3.251.4 4.094 1.201.842.801 1.263 2.08 1.263 3.834h-4.034zM28.58 0h10.498v2.431H28.58V0z" fill-rule="evenodd"/></symbol><symbol viewBox="0 0 125 30" id="snapchat" xmlns="http://www.w3.org/2000/svg"><title>logo_01</title><path d="M14.724 5.158c-.301 0-.603 0-.902.028-.94.09-1.865.412-2.63.973a4.964 4.964 0 0 0-1.3 1.424c-.183.3-.354.622-.457.96a4.92 4.92 0 0 0-.174 1.052c-.061.826-.012 1.657.039 2.482l.04.649c.004.08.03.19.015.27-.008.044-.021.06-.056.095-.147.15-.356.228-.559.26-.405.063-.822-.047-1.195-.2-.103-.043-.2-.103-.312-.109a.689.689 0 0 0-.276.05c-.129.048-.32.153-.337.31-.022.205.258.37.403.452.316.181.666.266 1.005.39.639.234 1.273.672 1.15 1.447-.05.308-.206.61-.351.886a7.437 7.437 0 0 1-1.684 2.15c-.47.408-1 .746-1.576.978a5.051 5.051 0 0 1-.976.284c-.07.013-.099.003-.075.076.003.009.01.018.015.026a.393.393 0 0 0 .056.07c.217.226.565.338.853.43.335.106.68.183 1.025.248.186.035.42.034.59.116.134.065.208.202.258.336.063.171.096.354.135.532.026.117.052.233.084.348.022.078.023.102.105.106.174.007.358-.054.528-.086a6.63 6.63 0 0 1 .523-.08 5.162 5.162 0 0 1 1.357.037c.423.067.806.248 1.166.476.634.402 1.206.904 1.908 1.188.369.148.76.231 1.157.244.372.012.75.004 1.115-.078.728-.162 1.337-.584 1.936-1.01.343-.243.691-.49 1.08-.652.408-.17.855-.221 1.293-.232.4-.01.8.03 1.194.102.167.032.34.077.511.074.1-.001.092-.05.118-.143.028-.107.052-.214.076-.32.06-.275.105-.72.4-.85.178-.077.41-.078.6-.114.191-.036.382-.076.57-.123.4-.098.845-.213 1.183-.462a.58.58 0 0 0 .16-.16.097.097 0 0 0 .016-.028c.026-.078-.022-.061-.095-.075a5.081 5.081 0 0 1-.512-.124c-1.147-.343-2.125-1.094-2.873-2.02a7.553 7.553 0 0 1-1.006-1.62c-.155-.342-.265-.718-.133-1.087.113-.317.379-.541.666-.697.292-.157.61-.25.923-.353.286-.095.624-.228.829-.461.108-.123.134-.25.009-.378a.81.81 0 0 0-.482-.213c-.231-.022-.421.105-.632.18-.354.128-.739.211-1.107.095-.139-.044-.391-.15-.427-.31-.016-.074.01-.174.014-.247l.02-.345.04-.627c.023-.416.043-.832.046-1.249.006-.722-.001-1.507-.27-2.189a5.005 5.005 0 0 0-2.572-2.699 5.498 5.498 0 0 0-2.242-.483zM0 24.541V4.674C0 2.093 2.08 0 4.647 0h19.749c2.566 0 4.647 2.093 4.647 4.674v19.867c0 2.582-2.081 4.675-4.647 4.675H4.646C2.082 29.216 0 27.123 0 24.54zm42.833-4.169v-3.01a5.738 5.738 0 0 0 3.694 1.373c.38 0 .712-.035.996-.104a2.34 2.34 0 0 0 .711-.286c.19-.123.332-.267.426-.433a1.175 1.175 0 0 0-.084-1.247 2.43 2.43 0 0 0-.613-.574 6.41 6.41 0 0 0-.922-.508c-.355-.163-.738-.33-1.15-.499-1.047-.439-1.828-.975-2.343-1.608-.514-.634-.772-1.4-.772-2.296 0-.703.141-1.307.421-1.811a3.59 3.59 0 0 1 1.146-1.247 5.12 5.12 0 0 1 1.679-.72 8.57 8.57 0 0 1 2.02-.23c.698 0 1.317.042 1.857.127a7.27 7.27 0 0 1 1.492.39v2.813a4.53 4.53 0 0 0-.735-.414 6.19 6.19 0 0 0-2.446-.527 4.11 4.11 0 0 0-.935.1 2.37 2.37 0 0 0-.71.277 1.38 1.38 0 0 0-.45.428 1.019 1.019 0 0 0-.158.56c0 .226.059.428.177.607.119.178.287.348.505.508.218.16.484.316.795.47.312.154.664.312 1.057.475.536.226 1.018.466 1.445.72.427.254.794.541 1.1.86.305.32.538.686.7 1.097.163.41.244.89.244 1.435 0 .752-.142 1.384-.426 1.896a3.467 3.467 0 0 1-1.155 1.242 4.991 4.991 0 0 1-1.697.682 9.741 9.741 0 0 1-2.044.207c-.736 0-1.436-.063-2.1-.188-.664-.126-1.239-.314-1.725-.565zm20.284.654H60.17v-5.354c0-1.492-.53-2.239-1.59-2.239-.51 0-.932.198-1.262.593-.33.395-.496.897-.496 1.505v5.495h-2.955V11.39h2.955v1.525h.037c.705-1.173 1.73-1.76 3.078-1.76 2.12 0 3.18 1.324 3.18 3.97v5.9zm10.52 0H70.84v-1.383h-.038c-.642 1.079-1.593 1.618-2.852 1.618-.93 0-1.66-.265-2.194-.795-.533-.53-.8-1.237-.8-2.122 0-1.869 1.101-2.948 3.302-3.236l2.6-.348c0-1.054-.567-1.581-1.702-1.581-1.14 0-2.226.342-3.255 1.026v-2.24c.412-.213.975-.401 1.689-.564a8.832 8.832 0 0 1 1.95-.245c2.73 0 4.096 1.37 4.096 4.112v5.758zm-2.779-3.914v-.65l-1.74.227c-.96.125-1.44.56-1.44 1.307 0 .339.117.617.351.833.234.216.55.325.95.325.554 0 1.007-.193 1.356-.579.349-.386.523-.874.523-1.463zm8.182 2.794h-.038v5.551h-2.955V11.391h2.955v1.45h.038c.73-1.123 1.755-1.685 3.077-1.685 1.24 0 2.2.428 2.876 1.284.677.857 1.015 2.022 1.015 3.496 0 1.606-.395 2.895-1.183 3.867-.79.972-1.838 1.458-3.147 1.458-1.154 0-2.033-.451-2.638-1.355zm-.084-3.951v.771c0 .665.174 1.207.524 1.628.349.42.807.63 1.374.63.674 0 1.196-.262 1.567-.785.371-.524.556-1.266.556-2.225 0-1.694-.654-2.54-1.964-2.54a1.84 1.84 0 0 0-1.482.69c-.383.462-.575 1.072-.575 1.83zm16.01 4.723c-.667.389-1.631.583-2.89.583-1.472 0-2.663-.448-3.573-1.345-.91-.897-1.366-2.054-1.366-3.472 0-1.637.488-2.928 1.464-3.872s2.28-1.416 3.914-1.416c1.129 0 1.946.151 2.45.452v2.521a3.357 3.357 0 0 0-2.066-.696c-.848 0-1.52.25-2.016.748-.496.499-.743 1.187-.743 2.065 0 .854.236 1.523.71 2.01.474.485 1.126.728 1.955.728.736 0 1.456-.232 2.16-.696v2.39zm11.134.294h-2.946v-5.476c0-1.411-.512-2.117-1.534-2.117-.524 0-.948.198-1.272.593-.324.395-.486.897-.486 1.506v5.494h-2.956V6.71h2.956v6.059h.037c.723-1.11 1.705-1.666 2.946-1.666 2.17 0 3.255 1.318 3.255 3.952v5.918zm10.307 0h-2.797V19.59h-.037c-.642 1.079-1.593 1.618-2.853 1.618-.929 0-1.66-.265-2.193-.795-.533-.53-.8-1.237-.8-2.122 0-1.868 1.1-2.948 3.302-3.236l2.6-.348c0-1.054-.567-1.58-1.702-1.58-1.141 0-2.226.341-3.255 1.025v-2.24c.412-.213.974-.4 1.688-.564a8.835 8.835 0 0 1 1.95-.245c2.731 0 4.097 1.37 4.097 4.112v5.758zm-2.778-3.914v-.65l-1.74.227c-.96.125-1.44.561-1.44 1.307 0 .34.117.617.35.833.234.217.55.325.95.325.555 0 1.007-.193 1.356-.579.35-.386.524-.873.524-1.463zm10.906 3.801c-.437.232-1.095.348-1.974.348-2.082 0-3.124-1.088-3.124-3.265V13.53h-1.552v-2.192h1.552v-2.08l2.946-.846v2.926h2.152v2.192h-2.152v3.895c0 1.004.396 1.505 1.188 1.505.312 0 .633-.09.963-.272v2.201z"/></symbol><symbol viewBox="0 0 82 35" id="sortly" xmlns="http://www.w3.org/2000/svg"><path d="M74.959 24.013c-.529.134-.971.232-1.405.36-.326.098-.65.21-.957.355-.691.328-1.36.696-1.744 1.422-.33.62-.274 1.497.11 1.919.346.378 1.123.494 1.706.243.428-.184.767-.485 1.04-.872.704-.998.996-2.148 1.25-3.427zM58.39 15.558c1.64-1.311 3.121-3.6 3.776-5.736.39-1.27.593-2.566.551-3.896-.013-.427-.056-.9-.514-1.084-.466-.185-.846.094-1.165.414-.41.41-.703.91-.947 1.44-1.28 2.78-1.566 5.758-1.701 8.862zM82 21.072c-.89.662-1.838 1.227-2.871 1.622-.294.112-.396.281-.441.587-.312 2.074-.877 4.051-2.169 5.737-1.795 2.343-4.701 2.783-7.043 1.923-2.841-1.042-2.78-4.677-1.533-6.313.5-.657 1.114-1.158 1.834-1.623-.808-.483-1.538-1.013-2.07-1.812-1.16 1.367-2.489 2.482-4.209 2.927-2.833.732-5.388.33-7.314-2.182-.246-.322-.328-.06-.456.074-1.084 1.14-2.36 1.93-3.892 2.267-1.136.25-2.264.236-3.374-.107-1.835-.567-2.805-1.948-3.291-3.76-.404-1.502-.398-3.043-.331-4.58a42.348 42.348 0 0 1 1.8-10.47c.136-.45.32-.613.789-.59.89.044 1.786.032 2.678.004.41-.013.475.102.369.496-.323 1.196-.606 2.403-.91 3.605-.039.152-.087.298-.039.49 1.359 0 2.726.017 4.092-.01.406-.009.515.112.493.516a19.66 19.66 0 0 0 0 1.927c.018.377-.12.453-.456.448-1.311-.018-2.623.028-3.933-.023-.587-.023-.788.107-.846.75-.163 1.823-.353 3.639-.19 5.471.191 2.135 1.193 2.856 3.2 2.255 1.116-.336 2.015-1.05 2.84-1.87.188-.187.132-.386.11-.592-.438-3.99-.024-7.879 1.408-11.62.694-1.813 1.706-3.42 3.37-4.5.614-.397 1.32-.52 1.972-.798h1.483c.017.032.029.086.052.092 1.766.395 2.62 1.256 2.908 3.095.39 2.482-.006 4.88-.952 7.177-1.237 2.999-3.236 5.368-5.847 7.2-.315.222-.356.387-.176.728.584 1.106 1.606 1.644 2.95 1.54 1.778-.14 3.194-1 4.419-2.27.151-.157.208-.307.168-.514-.25-1.293-.209-2.595-.097-3.896.138-1.61.431-3.191.937-4.726.064-.193.1-.392.399-.388 1.173.02 2.346.008 3.557.008l-.103.32c-.818 2.5-1.181 5.06-.917 7.69.138 1.366.64 2.564 1.863 3.297.882.529 1.857.465 2.827.403.28-.017.205-.225.212-.383a29.661 29.661 0 0 0-.727-8.047c-.252-1.1-.603-2.17-.958-3.28 1.107 0 2.154.046 3.195-.018.56-.035.743.2.897.686.719 2.27 1.11 4.598 1.241 6.973.05.918.008 1.842.008 2.895a14.975 14.975 0 0 0 2.69-1.874c.109-.095.17-.307.384-.23v3.273zm-52.622-4.36c-.015-.106-.029-.24-.052-.373-.106-.64-.364-.908-.847-.884-.46.022-.766.419-.789 1.024a1.751 1.751 0 0 0 1.161 1.742c.223.081.357.072.384-.208.041-.424.093-.847.143-1.3zm-1.675 4.054c-1.949-.82-2.979-2.276-2.864-4.469.095-1.838 1.089-2.94 2.902-3.398-.135-.118-.213-.193-.298-.258-1.332-1.03-3.478-.525-4.408 1.038a4.925 4.925 0 0 0-.654 2.087c-.144 1.573-.098 3.121.874 4.46 1.027 1.415 3.224 1.67 4.448.54zm4.796-2.48c.825-.097 1.545-.475 2.267-.864.28-.151.21-.377.21-.595.003-2.317.011-4.634-.007-6.95-.003-.396.07-.536.487-.521.968.035 1.938.024 2.906.004.316-.007.435.075.416.414-.029.48-.008.964-.008 1.53.33-.388.592-.734.89-1.042 1.14-1.176 2.54-1.453 4.086-1.23.21.03.235.135.234.309-.003 1.125-.001 2.25-.001 3.372-.73-.081-1.422-.254-2.128-.124-1.51.277-2.496 1.389-2.862 3.217a12.02 12.02 0 0 0-.219 2.377c.001 1.83-.011 3.66.01 5.491.004.368-.097.454-.443.445a61.957 61.957 0 0 0-2.964-.001c-.331.008-.408-.102-.402-.424.018-1.11.007-2.22.007-3.37-.657.209-1.284.534-1.932.586-1.1.088-1.796.631-2.504 1.466-1.418 1.67-3.37 2.167-5.462 2.05-2.454-.14-4.407-1.185-5.594-3.487-1.617-3.135-1.024-7.93 1.335-10.148 2.156-2.03 4.727-2.285 7.388-1.366 2.534.875 3.763 2.912 4.172 5.542.169 1.087.118 2.172.063 3.26-.058.037-.074.08-.011.123.005.004.043-.041.066-.064zM3.883 23.382C.89 21.95-.297 18.955.062 15.768c.023-.2.056-.396.094-.593h3.941c-.076.612-.097 1.22-.075 1.831.074 1.98 1.02 3.263 2.878 3.694 1.654.383 3.287.366 4.858-.503 1.58-.873 2.2-4.105-.08-5.304-1.294-.68-2.701-.966-4.07-1.393a30.622 30.622 0 0 1-.43-.139 11.034 11.034 0 0 1-1.895-.71c-1.847-.916-2.816-2.436-3.075-4.503C1.712 4.192 4.095 1.714 6.853.721c2.915-1.05 5.82-.973 8.63.358 2.963 1.403 4.136 4.34 3.782 7.464a7.192 7.192 0 0 1-.074.486h-3.908a11.23 11.23 0 0 0 .062-1.7c-.072-1.94-1.01-3.198-2.849-3.62-1.636-.377-3.253-.36-4.807.492-1.564.857-2.178 4.026.078 5.2 1.281.668 2.674.949 4.028 1.367.96.297 1.897.638 2.793 1.113 1.236.656 2.042 1.796 2.421 3.09.135.373.233.772.286 1.201.502 4.035-1.906 6.563-4.692 7.575-2.946 1.07-5.88.992-8.72-.365zm19.75 8.675c-.005.254.034.466.116.637.082.171.195.307.338.409a1.4 1.4 0 0 0 .51.218c.195.044.405.066.628.066.127 0 .266-.019.417-.056.15-.037.29-.096.42-.176.13-.081.238-.185.325-.312a.798.798 0 0 0 .13-.46.682.682 0 0 0-.093-.36.85.85 0 0 0-.239-.257 1.403 1.403 0 0 0-.325-.17 3.145 3.145 0 0 0-.348-.107l-1.087-.27a3.224 3.224 0 0 1-.413-.138 1.175 1.175 0 0 1-.352-.222 1.052 1.052 0 0 1-.335-.83c0-.12.023-.261.068-.423a1.18 1.18 0 0 1 .257-.457c.125-.143.297-.264.516-.363.218-.1.499-.15.84-.15.242 0 .472.033.69.098.22.064.41.161.574.29.164.13.295.29.393.482.098.191.147.414.147.668h-.464a1.102 1.102 0 0 0-.42-.848 1.28 1.28 0 0 0-.417-.215 1.672 1.672 0 0 0-.496-.073c-.16 0-.313.018-.461.052-.148.035-.278.09-.39.166a.856.856 0 0 0-.27.302.955.955 0 0 0-.102.464c0 .115.02.215.058.3a.636.636 0 0 0 .16.219c.069.06.147.108.236.145.09.037.184.067.284.09l1.189.298c.173.046.336.103.489.17.152.067.287.15.403.249.116.1.207.22.273.363.066.144.1.317.1.52 0 .055-.006.129-.018.221-.011.093-.039.19-.082.295a1.47 1.47 0 0 1-.184.315 1.18 1.18 0 0 1-.328.287c-.14.085-.311.155-.516.208-.205.053-.451.08-.738.08s-.554-.034-.8-.101a1.712 1.712 0 0 1-.629-.308 1.356 1.356 0 0 1-.4-.533 1.768 1.768 0 0 1-.12-.783h.466zm5.494-1.682c-.205 0-.385.044-.54.131a1.19 1.19 0 0 0-.386.346 1.58 1.58 0 0 0-.232.489 2.009 2.009 0 0 0 0 1.114c.052.183.13.345.232.489.103.143.231.258.386.346.155.087.335.131.54.131.205 0 .385-.044.54-.131a1.19 1.19 0 0 0 .386-.346 1.58 1.58 0 0 0 .232-.489 2.009 2.009 0 0 0 0-1.114 1.58 1.58 0 0 0-.232-.489 1.19 1.19 0 0 0-.386-.346 1.077 1.077 0 0 0-.54-.131zm0-.367c.269 0 .507.05.714.152.207.102.382.238.523.409.141.17.248.37.321.598.073.229.11.472.11.731 0 .258-.037.502-.11.73-.073.229-.18.429-.321.6a1.52 1.52 0 0 1-.523.404c-.207.1-.445.15-.714.15-.269 0-.507-.05-.714-.15a1.52 1.52 0 0 1-.523-.405 1.775 1.775 0 0 1-.321-.599 2.39 2.39 0 0 1-.11-.73c0-.259.037-.502.11-.73.073-.229.18-.429.321-.6.141-.17.316-.306.523-.408.207-.102.445-.152.714-.152zm2.31.104h.396v.837h.014c.11-.29.279-.514.509-.671a1.32 1.32 0 0 1 .823-.215v.436a1.284 1.284 0 0 0-.533.08 1.198 1.198 0 0 0-.683.678c-.064.16-.096.334-.096.523v1.904h-.43v-3.572zm2.836 0h.717v.367h-.717v2.41c0 .142.02.254.058.335.039.08.136.126.29.135.123 0 .246-.007.37-.02v.366a2.65 2.65 0 0 0-.192.007 2.65 2.65 0 0 1-.191.007c-.287 0-.488-.057-.602-.17-.114-.113-.168-.322-.164-.626v-2.444h-.615v-.367h.615v-1.074h.43v1.074zm2.843 0h.458l1.161 3.046 1.087-3.046h.43l-1.53 4.112a4.003 4.003 0 0 1-.178.378.859.859 0 0 1-.181.235.598.598 0 0 1-.232.125 1.257 1.257 0 0 1-.339.038 42.568 42.568 0 0 0-.201-.01.411.411 0 0 1-.127-.025v-.367c.05.01.1.018.147.025.048.007.097.01.147.01a.577.577 0 0 0 .236-.042.5.5 0 0 0 .16-.114.656.656 0 0 0 .117-.176l.102-.229.15-.401-1.407-3.56zm5.05.263c-.205 0-.385.044-.54.131a1.19 1.19 0 0 0-.386.346 1.58 1.58 0 0 0-.232.489 2.009 2.009 0 0 0 0 1.114c.052.183.13.345.232.489.102.143.231.258.386.346.155.087.335.131.54.131.205 0 .385-.044.54-.131a1.19 1.19 0 0 0 .386-.346 1.58 1.58 0 0 0 .232-.489 2.009 2.009 0 0 0 0-1.114 1.58 1.58 0 0 0-.232-.489 1.19 1.19 0 0 0-.386-.346 1.077 1.077 0 0 0-.54-.131zm0-.367c.269 0 .507.05.714.152.207.102.382.238.523.409.141.17.248.37.321.598.073.229.11.472.11.731 0 .258-.037.502-.11.73-.073.229-.18.429-.321.6a1.52 1.52 0 0 1-.523.404c-.207.1-.445.15-.714.15-.269 0-.507-.05-.714-.15a1.52 1.52 0 0 1-.523-.405 1.775 1.775 0 0 1-.321-.599 2.39 2.39 0 0 1-.11-.73c0-.259.037-.502.11-.73.073-.229.18-.429.321-.6.141-.17.316-.306.523-.408.207-.102.445-.152.714-.152zm5.166 3.676h-.396v-.644h-.014c-.114.24-.279.424-.495.55a1.391 1.391 0 0 1-.721.191 1.55 1.55 0 0 1-.57-.093.95.95 0 0 1-.383-.267 1.086 1.086 0 0 1-.216-.422 2.152 2.152 0 0 1-.068-.568v-2.32h.43v2.327c.01.323.084.568.223.734.139.166.379.25.72.25a.9.9 0 0 0 .479-.122c.132-.08.241-.188.328-.322a1.46 1.46 0 0 0 .191-.46 2.29 2.29 0 0 0 .062-.53v-1.876h.43v3.572zm.814-3.572h.396v.837h.014a1.37 1.37 0 0 1 .509-.671 1.32 1.32 0 0 1 .823-.215v.436a1.284 1.284 0 0 0-.533.08 1.198 1.198 0 0 0-.683.678c-.064.16-.096.334-.096.523v1.904h-.43v-3.572zm4.059-1.371h.43v4.943h-.43v-4.943zm1.264 0h.43v.699h-.43v-.7zm0 1.37h.43v3.573h-.43v-3.572zm2.617.368h-.697v3.205h-.43V30.48h-.601v-.367h.6v-.326c0-.152.012-.293.035-.422a.83.83 0 0 1 .13-.333.627.627 0 0 1 .263-.214c.112-.051.254-.076.427-.076a2.12 2.12 0 0 1 .362.027v.374a9.613 9.613 0 0 0-.164-.024 1.08 1.08 0 0 0-.15-.01.552.552 0 0 0-.273.055.337.337 0 0 0-.14.149.578.578 0 0 0-.052.218 4.953 4.953 0 0 0-.007.27v.312h.697v.367zm2.946 1.17a1.595 1.595 0 0 0-.086-.478 1.313 1.313 0 0 0-.222-.405 1.103 1.103 0 0 0-.348-.284.987.987 0 0 0-.465-.107.991.991 0 0 0-.471.107 1.103 1.103 0 0 0-.349.284 1.42 1.42 0 0 0-.229.408 2.024 2.024 0 0 0-.113.475h2.283zm-2.283.367c0 .157.022.32.065.488.044.168.113.32.209.453.095.134.216.245.362.333.146.087.321.131.526.131.314 0 .56-.083.738-.249.178-.166.3-.388.37-.665h.43c-.091.407-.259.72-.503.942-.243.222-.588.332-1.035.332a1.62 1.62 0 0 1-.72-.149 1.33 1.33 0 0 1-.496-.408 1.787 1.787 0 0 1-.284-.602 2.773 2.773 0 0 1 0-1.416 1.87 1.87 0 0 1 .284-.606 1.43 1.43 0 0 1 .495-.43c.203-.108.443-.162.721-.162.283 0 .524.057.724.173.201.115.364.266.49.453.124.187.214.402.27.644.054.243.077.488.067.738H56.75z" fill-rule="evenodd"/></symbol><symbol viewBox="0 0 16 13" id="twitter-logo" xmlns="http://www.w3.org/2000/svg"><defs><path d="M17.559 4.24a6.563 6.563 0 0 1-2.086.796A3.282 3.282 0 0 0 9.88 8.029a9.316 9.316 0 0 1-6.766-3.43 3.277 3.277 0 0 0-.445 1.652A3.28 3.28 0 0 0 4.13 8.982a3.285 3.285 0 0 1-1.488-.409v.04a3.283 3.283 0 0 0 2.635 3.218 3.278 3.278 0 0 1-1.483.057 3.283 3.283 0 0 0 3.066 2.278 6.586 6.586 0 0 1-4.077 1.406c-.265 0-.527-.015-.783-.045A9.306 9.306 0 0 0 7.032 17c6.039 0 9.34-5 9.34-9.337 0-.143-.003-.285-.009-.425A6.637 6.637 0 0 0 18 5.539c-.588.26-1.22.437-1.885.517A3.289 3.289 0 0 0 17.56 4.24" id="ua"/></defs><use xlink:href="#ua" transform="translate(-2 -4)" fill-rule="evenodd"/></symbol></svg>