<svg width="569" height="662" xmlns="http://www.w3.org/2000/svg" xmlns:xlink="http://www.w3.org/1999/xlink"><defs><path id="a" d="M.289.13H29.73v29.442H.29z"/></defs><g fill="none" fill-rule="evenodd"><path stroke="#8448C5" d="M123.238 337.114l79.496-14.017-14.016-79.497-79.497 14.018z"/><path d="M338.499 359.53c3.632 20.597 23.274 34.352 43.873 30.72 20.598-3.633 34.352-23.275 30.72-43.873-3.632-20.599-23.275-34.353-43.873-30.72-20.598 3.632-34.352 23.274-30.72 43.872" fill="#73C0FF"/><path fill="#210754" d="M397.265 283.04l-.728 11.937 46.065 2.808.727-11.937z"/><g transform="translate(356.428 .532)"><mask id="b" fill="#fff"><use xlink:href="#a"/></mask><path fill="#210754" mask="url(#b)" d="M4.703 19.572l25.028-4.413-4.414-25.03L.29-5.456z"/></g><path fill="#210754" d="M501.768 539.893l25.029-4.414-4.414-25.029-25.028 4.414z"/><path d="M216.27 32.623l11.16 7.815" stroke="#FFF"/><path d="M217.897 41.886l7.632-10.901" stroke="#FFF" stroke-width=".977"/><path d="M267.811 372.792l11.161 7.815" stroke="#FFF"/><path d="M269.439 382.055l7.633-10.9" stroke="#FFF" stroke-width=".977"/><path d="M448.526 391.47s-.994-8.46 16.978-11.314c17.973-2.854 34.65-9.963 35.013-36.685" stroke="#FFF" stroke-width="1.75"/><path d="M111.202 172.002s6.51-5.806 19.529 7.4c13.019 13.207 28.841 22.835 51.471 7.4" stroke="#FFF" stroke-width="1.75" opacity=".904"/><path d="M129.93 637.105s-.208.108-.596.29" stroke="#FFF" stroke-width="2" stroke-linecap="round" stroke-linejoin="round"/><path d="M134.402 643.32c-9.36 3.03-28.451 5.994-40.157-14.313 0 0-15.73-20.168 13.112-53.101 0 0 23.907-26.633 21.915-62.044 0 0-.572-22.97-20.788-23.308-5.263-.088-10.428 1.427-14.943 4.131-4.208 2.52-11.946 6.446-22.071 8.503-25.237 5.124-51.205-6.447-64.114-28.73-4.175-7.206-6.975-15.786-6.238-25.47" stroke="#8448C5" stroke-width="2" stroke-linecap="round" stroke-linejoin="round" stroke-dasharray="1.994,7.974"/><path d="M362.334 110.108s.17-.16.495-.44" stroke="#FFF" stroke-width="2" stroke-linecap="round" stroke-linejoin="round"/><path d="M407.07 105.749c7.3-4.816 22.956-11.884 37.804 2.74 0 0 18.26 13.553 1.357 48.61 0 0-14.17 28.49-4.065 58.36 0 0 5.938 19.547 23.341 15.042 4.53-1.173 8.596-3.696 11.824-7.084 3.008-3.157 8.708-8.356 16.896-12.519 20.408-10.376 45.404-6.62 61.749 9.411 5.286 5.186 9.72 11.874 11.386 20.345" stroke="#8448C5" stroke-width="2" stroke-linecap="round" stroke-linejoin="round" stroke-dasharray="1.994,7.974"/><path stroke="#FFF" stroke-width="1.517" d="M322.99 660.746l150.869-26.602-17.003-96.422-150.868 26.603z"/><path fill="#50119B" d="M98.49 139.144l83.609 5.118 3.392-55.882-83.608-5.118z"/><path fill="#FFE6EE" d="M242.653 288.977l166.197-29.305-36.689-208.074-166.198 29.305z"/><path d="M260.867 170.3s-6.692-20.1 7.64-39.577c0 0 6.136 25.876-7.64 39.577" fill="#B72358"/><path d="M268.855 134.934s-66.118-16.902-87.11-30.742c0 0-8.963-6.516-13.074-5.116 0 0-.918 4.21 4.009 5.365 0 0-5.062 1.905-11.316-1.04 0 0-5.658 2.346 1.385 7.85 0 0 9.094 5.666 26.553 10.929l75.588 34.488s6.424-8.112 3.965-21.734" fill="#000"/><path d="M291.255 239.156s-12.814 48.354-6.901 44.89c5.913-3.464 69.591-14.693 69.591-14.693s3.423-16.229-4.71-51.938c-8.134-35.71 0 0 0 0l-57.98 21.74" fill="#5089E9"/><path fill="#1C0C48" d="M266.117 240.89l.338 46.404 45.307-7.989-2.085-47.057z"/><path d="M306.288 140.927l2.329-7.832s-6.78-.828-6.856-5.088c0 0-.525-13.175 4.916-19.307l19.102 2.479-1.463 7.004s4.118.399 3.214 2.92c0 0-.431 2.661-3.087 2.905 0 0-.27 6.12-2.362 8.287l-.642 12.932-15.151-4.3z" fill="#000"/><path d="M268.506 130.723s39.522 2.926 64.81 21.63c0 0 15.776 15.788 15.919 65.062 0 0-22.537 22.687-83.118 23.474l7.056-64.565-12.306-6.023s9.985-30.097 7.64-39.578" fill="#F3427C"/><path d="M306.677 108.7s-7.236-4.049-1.512-8.58c0 0 23.234-4.695 27.453 14.126 0 0 .786 6.934-1.388 13.176-2.127 6.11-9.296 7.858-9.296 7.858s-.25-4.32 1.614-7.248c.723-1.137.895-4.024.895-4.024s2.838.146 3.087-2.906c.215-2.64-3.214-2.92-3.214-2.92l-1.243-4.502-16.396-4.98" fill="#73C0FF"/><path fill="#7A3DD9" d="M49.262 478.04l170.068-29.987-37.543-212.92L11.718 265.12z"/><path d="M113.5 374.167l-32.634 5.755 1.447-33.533 44.105-29.874 8.539.582s2.424 7.987 38.212-9.21l11.893 32.408-27.457 9.618 2.225 13.3 12.49 35.138-49.977 14.532-8.842-38.716z" fill="#4DB2F7"/><path d="M173.168 307.887s82.34-23.504 116.253-48.212c0 0 8.158-4.77 14.995-3.687.957.153 1.332 1.331.66 2.03-1.284 1.335-3.837 3.206-8.672 4.455 0 0 6.645 4.188 4.024 11.56-.942 2.649-2.855 4.833-5.23 6.336-11.813 7.477-64.716 40.42-110.137 59.926l-11.893-32.408z" fill="#F3427C"/><path fill="#400564" d="M114.775 362.654l4.084 16.51-7.085 10.607z"/><path d="M134.957 317.098l-13.135-.157 1.035-25.451 2.583-22.549 13.224-2.33 3.477-1.239s12.362 15.154 11.853 28.655c-.219 5.802-5.45 10.251-11.188 9.372a16.42 16.42 0 0 1-2.74-.667l-5.11 14.366z" fill="#F3427C"/><path d="M142.141 265.372s-7.556-9.308-26.736 1.401c0 0-10.279 5.783-9.398 22.32.88 16.537-23.958 18.83-23.958 18.83s-16.848 1.681-24.054 6.735c-10.303 7.226-13.033 16.141-30.963 16.045 0 0-27.475-1.175-25.491 29.039.418 6.367 3.217 12.457 8.17 16.482 5.161 4.196 15.421 7.886 24.332-.787.937-.912 1.745-1.94 2.508-3.001 2.594-3.607 8.406-13.18 26.594-14.716 0 0 8.555.074 17.654-2.705a29.388 29.388 0 0 0 17.718-15.036c2.23-4.487 6.179-9.941 12.477-11.052 0 0 12.43-2.76 15.497-12.64.56-1.804.659-3.72.423-5.594l-.366-2.91c-.302-2.398-.01-4.835.85-7.095l1.35-3.555a9.605 9.605 0 0 0-.687-8.264l-.328-.56a4.613 4.613 0 0 1-.33-3.966 4.341 4.341 0 0 1 2.998-2.669 7.594 7.594 0 0 1 3.66-.012c.697.17 1.437.027 2.013-.401 2.733-2.03 10.183-8.48 6.067-15.889" fill="#1C0C48"/><path d="M104.62 424.611l7.448 42.236 36.379-6.414-9.32-52.856-35.978 8.69 1.471 8.344z" fill="#000"/><path fill="#400564" d="M172.063 398.211l23.772 53.866-56.283 10.094-27.027-47.927z"/><path d="M80.934 377.7l-.631 20.762s-3.49 49.476 36.003 27.548c0 0 25.127-25.89 44.411-72.484.964-2.328 1.277-4.898.783-7.37-.651-3.255-2.66-6.622-8.45-4.966-2.393.685-4.538 2.044-6.28 3.822l-6.82 6.958s3.514-8.76-.453-7.228c-2.762 1.067-3.791 5.977-3.791 5.977s-.615 3.433-.42 6.292l-22.696 30.608.911-13.452-32.567 3.533z" fill="#F3427C"/><path fill="#210754" d="M189.099 653.602l264.908-46.71-25.881-146.785-264.91 46.71z"/><path fill="#FFF" d="M215.02 531.18l234.59 50.978 27.313-125.683-234.593-50.978z"/><path fill="#F3427C" d="M386.726 453.744l62.257 13.53 2.34-10.769-62.258-13.529z"/><path stroke="#212121" stroke-width="1.244" d="M374.116 517.044l60.069 13.053 12.1-55.679-60.07-13.053zM295.857 442.094l-44.068-10.053M293.493 453.686l-44.069-10.053"/><path d="M335.035 459.351s2.9 17.603-7.998 23.98c-3.45 2.02-7.65 2.307-11.449 1.067l-1.046-.34-3.383 12.587-21.301-4.896 15.67-16.215 7.368-2.455s-1.746-6.627 2.028-8.159c0 0 3.092-1.72 4.088 1.88 0 0 11.802 1.386 16.023-7.449" fill="#F3427C"/><path d="M335.035 459.351s-8.849-15.717-26.826-4.463c-4.863 3.044-8.34 7.987-9.132 13.67-.48 3.447-.08 7.453 2.428 11.45 0 0 9.362 1.23 11.39-6.929 0 0-1.7-6.779 2.029-8.159 0 0 2.84-1.513 4.088 1.88 0 0 11.583 1.785 16.023-7.449" fill="#000"/><path d="M225.683 588.64s-8.1 45.204-4.74 59.347l59.853-10.553 6.812-9.762 7.98 7.154 50.335-8.876s-3.256-21.06-.397-31.136l-66.558-20.972-53.285 14.799zM235.023 428.701l7.917-5.107s.638-3.009-2.517-.774c0 0-2.743.394-1.27-1.968 0 0 2.431-3.977 1.522-5.39 0 0-1.093-1.693-10.181 7.766 0 0 2.411 6.838 4.529 5.473" fill="#F3427C"/><path d="M235.126 428.348l-4.787-4.995s-43.357 34.288-20.64 69.722c0 0 16.983 22.577 37.505 25.893 0 0-22.308 45.541-21.521 69.673 0 0 81.467 22.042 119.842 6.174l12.295-43.343s48.05 39.484 92.98 7.137l-2.593-14.712s-39.553 18.116-75.672-17.122c0 0-14.71-30.166-48.787-35.391 0 0-17.053-4.54-38.438-2.106 0 0-34.963 5.732-53.9-15.633 0 0-14.955-23.368 3.716-45.297" fill="#4DB2F7"/><path d="M392.151 468.424l35.35 52.992M383.33 512.594l52.992-35.348" stroke="#212121" stroke-width="1.244"/><path d="M449.004 548.418l2.8-3.504a8.734 8.734 0 0 0 1.183-1.956c.63-1.443 1.827-4.06 2.794-5.478.48-.704 1.58-.352 1.57.5-.011.778-.182 1.915-.707 3.558 0 0-2.168 4.034.052 3.753l1.157-.979.83-3.134 1.434.344c1.382.331 2.653 1.071 3.534 2.187l.044.058c1.052 1.367 1.098 3.225.296 4.752-.785 1.495-2.49 3.322-6.19 4.213 0 0-6.077 1.071-7.264 4.38l-1.533-8.694z" fill="#F3427C"/><path d="M247.204 518.968l6.116-8.803s-17.02 2.674-25.967-.097c-8.947-2.774 0 0 0 0s10.855 9.022 19.85 8.9M357.82 551.472s-11.675-10.704-13.714-21.14l9.981 34.3 3.733-13.16z" fill="#2A9BDB"/><path fill="#FFE6EE" d="M108.747 567L130 563.252 126.252 542 105 545.748z"/><path d="M73.146 471.107a8.999 8.999 0 1 0 17.723-3.126 8.999 8.999 0 0 0-17.723 3.126" fill="#210754"/></g></svg>